<?xml version="1.0" encoding="UTF-8" standalone="no"?>
<svg id="svg2" xmlns:rdf="http://www.w3.org/1999/02/22-rdf-syntax-ns#" xmlns="http://www.w3.org/2000/svg" height="100%" width="100%" version="1.1" xmlns:cc="http://creativecommons.org/ns#" xmlns:dc="http://purl.org/dc/elements/1.1/" viewBox="0 0 620 309.99999">
 <metadata id="metadata116">
  <rdf:RDF>
   <cc:Work rdf:about="">
    <dc:format>image/svg+xml</dc:format>
    <dc:type rdf:resource="http://purl.org/dc/dcmitype/StillImage"/>
    <dc:title>Simple Wacky Dancers</dc:title>
   </cc:Work>
  </rdf:RDF>
 </metadata>
 <defs id="defs4">
  <clipPath id="clipPath4393">
   <path id="path7" d="M0,0h630v300h-630z"/>
  </clipPath>
  <clipPath id="clipPath4397">
   <path id="path10" d="M-47.099-22.428h724.2v344.86h-724.2z"/>
  </clipPath>
  <clipPath id="clipPath4401">
   <path id="path13" d="M-10.175,70.488h650.35v159.02h-650.35z"/>
  </clipPath>
  <filter id="filter4099" color-interpolation-filters="sRGB">
   <feGaussianBlur id="feGaussianBlur16" stdDeviation="2.482"/>
  </filter>
  <filter id="filter4314" width="1.36743" y="-1.01939" x="-0.18370999" height="3.03878" color-interpolation-filters="sRGB">
   <feGaussianBlur id="feGaussianBlur19" stdDeviation="48.2248"/>
  </filter>
  <filter id="filter4346" width="1.13666" y="-0.37915" x="-0.068329997" height="1.75831" color-interpolation-filters="sRGB">
   <feGaussianBlur id="feGaussianBlur22" stdDeviation="17.9369"/>
  </filter>
  <linearGradient id="linearGradient4377" y2="135.14" gradientUnits="userSpaceOnUse" y1="528.15" x2="851.47" x1="916.01">
   <stop id="stop25" stop-color="#0a8" offset="0"/>
   <stop id="stop27" stop-color="#2affd5" offset="1"/>
  </linearGradient>
  <linearGradient id="linearGradient4379" y2="97.357" gradientUnits="userSpaceOnUse" y1="462.17" x2="838.51" x1="756.8">
   <stop id="stop30" stop-color="#f60" offset="0"/>
   <stop id="stop32" stop-color="#ff3900" offset="1"/>
  </linearGradient>
  <linearGradient id="linearGradient4381" y2="168.13" gradientUnits="userSpaceOnUse" y1="604.17" x2="379.58" x1="294.95">
   <stop id="stop35" stop-color="#fd0" offset="0"/>
   <stop id="stop37" stop-color="#ffbd00" offset="1"/>
  </linearGradient>
  <linearGradient id="linearGradient4383" y2="211.16" gradientUnits="userSpaceOnUse" y1="553.96" x2="154.39" x1="81.239">
   <stop id="stop40" stop-color="#f06" offset="0"/>
   <stop id="stop42" stop-color="#d400aa" offset="1"/>
  </linearGradient>
  <linearGradient id="linearGradient4385" y2="99.284" gradientUnits="userSpaceOnUse" y1="495.16" x2="663.57" x1="571.78">
   <stop id="stop45" stop-color="#800080" offset="0"/>
   <stop id="stop47" stop-color="#de87aa" offset="1"/>
  </linearGradient>
  <linearGradient id="linearGradient4387" y2="599.86" gradientUnits="userSpaceOnUse" y1="317.3" x2="561.74" x1="454.16">
   <stop id="stop50" stop-color="#00aa2b" offset="0"/>
   <stop id="stop52" stop-color="#55ff69" offset="1"/>
  </linearGradient>
  <linearGradient id="linearGradient4389" y2="584.09" gradientUnits="userSpaceOnUse" y1="183.91" x2="280.61" x1="208.89">
   <stop id="stop55" stop-color="#06f" offset="0"/>
   <stop id="stop57" stop-color="#37abc8" offset="1"/>
  </linearGradient>
  <linearGradient id="linearGradient4410" gradientUnits="userSpaceOnUse" x2="604.3" x1="0.69112">
   <stop id="stop60" stop-color="#aa00d4" offset="0"/>
   <stop id="stop62" stop-color="#86ff00" offset="0.25"/>
   <stop id="stop64" stop-color="#ff0076" offset="0.5"/>
   <stop id="stop66" stop-color="#ff0" offset="0.75"/>
   <stop id="stop68" stop-color="#aa00d4" offset="1"/>
  </linearGradient>
 </defs>
 <title id="title70">Simple Wacky Dancers</title>
 <g id="g72" transform="matrix(0.98412322,0,0,1.0333294,1.4952483e-4,7.0697918e-5)">
  <path id="path74" d="M0,0h630v300h-630z" clip-path="url(#clipPath4393)"/>
  <path id="path76" opacity="0.49040001" d="M102.17,93.231h425.66a102.17,31.216,0,0,1,102.17,31.219v51.105a102.17,31.216,0,0,1,-102.17,31.21h-425.66a102.17,31.216,0,0,1,-102.17,-31.22v-51.103a102.17,31.216,0,0,1,102.17,-31.216" clip-path="url(#clipPath4401)" transform="matrix(0.92364,0,0,1.88652,24.05462,-132.97739)" filter="url(#filter4346)" fill="#00F"/>
  <path id="path78" d="M0,93.231h630v113.54h-630z" clip-path="url(#clipPath4397)" transform="matrix(0.86993,0,0,0.86993,40.97309,19.511)" filter="url(#filter4314)" fill="url(#linearGradient4410)"/>
 </g>
 <path id="path80" d="m210.97,159.72-2.0312,51.719,7.0938,19.281-14.188,23.344-13.938,108.34,25.875,48.188-7.5938,12.125-52.031,25.062,1.0312-33.469-20.281-59.844-8.125-109.53,63.906-9.125v-43.601l-83.19,35.471,12.19,110.56-11.16,7.09,3.03-25.34-34.466-27.38-4.063,48.66,29.409,11.16-5.065,11.15-33.469,20.32-14.218-103.47-25.344,15.219,37.531,115.62,42.594-22.312,32.438,38.531-1,23.344-62.875-16.25,7.0938,156.19,36.5-17.219-20.281-98.406,44.625,16.25,2.0312-12.188,8.125,10.156,38.531-29.406-23.312,119.66,33.469,6.0938,6.375-114.62,24.031,118.66,28.406-20.281-36.5-133.88,3.8438-3.8438,13.375,23.125,11.156-37.531-4.5-5.625,14.656-14.656,45.625,54.75-38.531,112.59,26.375,26.375,6.4688-31.281,9.75,27.219,63.906-117.62,12.156-61.875,29.438,40.562-25.38,121.72,36.53,21.28,8.09-146.03-38.53-76.09-1.03-24.04,18.5-12.75,26.125,83.469,41.59-23.34,32.469,44.625v19.281l-61.875-15.219,10.125,150.09,33.469-5.0625-23.312-103.44,46.656,13.188,3.0312-13.188,10.156,11.156,39.469-29.344,0.0312,0.15625-31.375,119.44,38.531,7.0938,4.3125-85.219,23.062,83.188,21.312-25.344-39.562-106.5,47.656-54.75,11.812,12.438-5.7188,6.8125,11.156,35.5,13.188-22.719,8.125,8.5312-37.531,135.91,35.5,12.156,9.3-78.79,13,34.156,87.219-85.188-9.125-75.062,34.85,38.09-36.875,145.47,36.5,21.312,11.406-96.094,9.9062,96.094,31.438-11.156s-30.432-116.64-26.375-113.59c4.0569,3.0427,39.562,27.406,39.562,27.406l9.125-18.281,8.0938,17.25,39.562-17.25-24.344,108.53,44.625,6.0938-3.0312-151.12-57.812,16.219v-23.312l32.469-47.656,45.625,28.375,34.5-119.66-26.375-9.1562-17.25,102.44-29.406-16.219-5.0625-11.156,26.344-19.281-10.125-55.781-24.344,32.469-1.0312,33.469-8.0938-4.0625-3.0625-107.5,57.812-18.25-7.0938-39.562-68.969,40.562,2.0312,124.75-20.281,72.031,1,31.438-41.781-18.656,2.25-18.906-46.938-60.344-5.8125-8.625,18.25-57.812,54.74-33.47-22.312,107.53,27.375-14.219,8.125-125.75-62.906,37.531-6.0625-11.156,5.0625-5.0938,33.5-59.812-44.66-2.03-11.15,44.62,1.0312,14.188-10.156-6.0938-39.562-66.938-11.156,164.31,25.375,12.156-6.0938-128.78,30.438,48.656-10.031,75.062-13.312,23.344,22.312,88.219-80.438,43.875,6.4062-54-12.938-22.031,30.188-52-9.125-106.5-19.281-18.25,7.0938-17.25,1-60.812-38.531,18.25,15.219,55.75-10.156,2.0312-35.469,61.875-23.344-102.44-21.281,24.344,43.594,110.53,30.438-52.719-12.188,74.031-56.875,82.344-45.562,18.062-1-30.438-24.344-63.875,8.125-96.375,52.719,52.75,10.14-37.49-74.03-51.72-9.15,122.72-4.03,1.03-1.03-27.41-32.438-25.344-7.125,45.625,29.438,19.281-3.0625,8.125-31.438,19.25-11.594-70.281,15.656-10.812-8.125-28.406-12.23,10.95-0.97-5.91-25.34,15.22,3.46,11.09-14.12,12.66-12.66-21.72-9.12-34.47,3.03-36.53,14.188,3.0625-7.0938-72.031-34.469,20.281,12.156,41.594-1,27.375-21.312,12.188-32.438,96.344,40.562,95.344,11.15-27.4-35.5-66.938,25.344-68.969,31.438,62.906-15.219,17.219-2,80.125-49.06,58.43,13.562-65.531-64.938-88.25-16.219-82.156,37.531,54.781,35.5-111.56-13.188-30.438-26.375,110.56-32.438-63.906-17.25-1,19.25-55.781-35.469-16.25zm24.31,51.71l29.438,74.031-16.875,27-25.375-31.875,12.82-69.15zm465.66,12.812,15.094,57.188-30.344,36.062-12.25-20.844,27.5-72.406z" transform="matrix(0.57830295,0,0,0.58194969,13.212986,-63.374865)" filter="url(#filter4099)"/>
 <path id="path82" d="m210.97,159.72-2.0312,51.719,7.0938,19.281-14.188,23.344-13.938,108.34,25.875,48.188-7.5938,12.125-52.031,25.062,1.0312-33.469-20.281-59.844-8.125-109.53,63.906-9.125v-43.601l-83.19,35.471,12.19,110.56-11.16,7.09,3.03-25.34-34.466-27.38-4.063,48.66,29.409,11.16-5.065,11.15-33.469,20.32-14.218-103.47-25.344,15.219,37.531,115.62,42.594-22.312,32.438,38.531-1,23.344-62.875-16.25,7.0938,156.19,36.5-17.219-20.281-98.406,44.625,16.25,2.0312-12.188,8.125,10.156,38.531-29.406-23.312,119.66,33.469,6.0938,6.375-114.62,24.031,118.66,28.406-20.281-36.5-133.88,3.8438-3.8438,13.375,23.125,11.156-37.531-4.5-5.625,14.656-14.656,45.625,54.75-38.531,112.59,26.375,26.375,6.4688-31.281,9.75,27.219,63.906-117.62,12.156-61.875,29.438,40.562-25.38,121.72,36.53,21.28,8.09-146.03-38.53-76.09-1.03-24.04,18.5-12.75,26.125,83.469,41.59-23.34,32.469,44.625v19.281l-61.875-15.219,10.125,150.09,33.469-5.0625-23.312-103.44,46.656,13.188,3.0312-13.188,10.156,11.156,39.469-29.344,0.0312,0.15625-31.375,119.44,38.531,7.0938,4.3125-85.219,23.062,83.188,21.312-25.344-39.562-106.5,47.656-54.75,11.812,12.438-5.7188,6.8125,11.156,35.5,13.188-22.719,8.125,8.5312-37.531,135.91,35.5,12.156,9.3-78.79,13,34.156,87.219-85.188-9.125-75.062,34.85,38.09-36.875,145.47,36.5,21.312,11.406-96.094,9.9062,96.094,31.438-11.156s-30.432-116.64-26.375-113.59c4.0569,3.0427,39.562,27.406,39.562,27.406l9.125-18.281,8.0938,17.25,39.562-17.25-24.344,108.53,44.625,6.0938-3.0312-151.12-57.812,16.219v-23.312l32.469-47.656,45.625,28.375,34.5-119.66-26.375-9.1562-17.25,102.44-29.406-16.219-5.0625-11.156,26.344-19.281-10.125-55.781-24.344,32.469-1.0312,33.469-8.0938-4.0625-3.0625-107.5,57.812-18.25-7.0938-39.562-68.969,40.562,2.0312,124.75-20.281,72.031,1,31.438-41.781-18.656,2.25-18.906-46.938-60.344-5.8125-8.625,18.25-57.812,54.74-33.47-22.312,107.53,27.375-14.219,8.125-125.75-62.906,37.531-6.0625-11.156,5.0625-5.0938,33.5-59.812-44.66-2.03-11.15,44.62,1.0312,14.188-10.156-6.0938-39.562-66.938-11.156,164.31,25.375,12.156-6.0938-128.78,30.438,48.656-10.031,75.062-13.312,23.344,22.312,88.219-80.438,43.875,6.4062-54-12.938-22.031,30.188-52-9.125-106.5-19.281-18.25,7.0938-17.25,1-60.812-38.531,18.25,15.219,55.75-10.156,2.0312-35.469,61.875-23.344-102.44-21.281,24.344,43.594,110.53,30.438-52.719-12.188,74.031-56.875,82.344-45.562,18.062-1-30.438-24.344-63.875,8.125-96.375,52.719,52.75,10.14-37.49-74.03-51.72-9.15,122.72-4.03,1.03-1.03-27.41-32.438-25.344-7.125,45.625,29.438,19.281-3.0625,8.125-31.438,19.25-11.594-70.281,15.656-10.812-8.125-28.406-12.23,10.95-0.97-5.91-25.34,15.22,3.46,11.09-14.12,12.66-12.66-21.72-9.12-34.47,3.03-36.53,14.188,3.0625-7.0938-72.031-34.469,20.281,12.156,41.594-1,27.375-21.312,12.188-32.438,96.344,40.562,95.344,11.15-27.4-35.5-66.938,25.344-68.969,31.438,62.906-15.219,17.219-2,80.125-49.06,58.43,13.562-65.531-64.938-88.25-16.219-82.156,37.531,54.781,35.5-111.56-13.188-30.438-26.375,110.56-32.438-63.906-17.25-1,19.25-55.781-35.469-16.25zm24.31,51.71l29.438,74.031-16.875,27-25.375-31.875,12.82-69.15zm465.66,12.812,15.094,57.188-30.344,36.062-12.25-20.844,27.5-72.406z" transform="matrix(0.57673865,0,0,0.58194969,14.014849,-63.374865)" filter="url(#filter4099)"/>
 <g id="g84" transform="matrix(0.58535182,0,0,0.60315968,9.5996817,-71.339661)">
  <path id="path86" fill="url(#linearGradient4377)" d="m954.38,180.03-68.967,40.569,2.0284,124.75-20.284,72.01,1.0142,31.441-56.796-25.355,17.242,167.35,31.441-11.156s-30.427-116.64-26.37-113.59c4.0569,3.0427,39.555,27.384,39.555,27.384l9.128-18.256,8.1138,17.242,39.555-17.242-24.341,108.52,44.626,6.0853-3.0426-151.12-57.81,16.228v-23.327l32.455-47.668,45.64,28.398,34.483-119.68-26.37-9.128-17.242,102.44-29.412-16.228-5.0711-11.156,26.37-19.27-10.142-55.782-24.341,32.455-1.0142,33.469-8.1138-4.0569-3.0426-107.51,57.81-18.256-7.0995-39.555z"/>
  <path id="path88" fill-opacity="0.16859999" fill="#000080" d="m952.37,181.07-8.6562,5.0938,12.844,7.0625-1.9688-10.938-2.2188-1.2188zm-12.344,7.2812-8.6875,5.0938,28,15.375-1.9375-10.938-17.375-9.5312zm-12.375,7.2812-8.6875,5.0938,37.219,20.438,5.0938-1.5938-1.0938-6.0625-32.531-17.875zm-12.375,7.25-8.6875,5.0938,33.344,18.344,11.375-3.5938-36.031-19.844zm-12.375,7.2812-8.6875,5.0938,29.438,16.188,11.406-3.5938-32.156-17.688zm-12.375,7.2812-5.3125,3.125,0.0625,3.8438,22.125,12.156,11.375-3.5938-28.25-15.531zm-5.1875,11.219,0.15625,9.9688,18.281,10.031-0.28125-10.031-18.156-9.9688zm0.25,14.219,0.15625,9.9375,18.438,10.156-0.28125-10.031-18.312-10.062zm0.21875,14.188,0.15625,9.9688,18.625,10.219-0.28125-10.031-18.5-10.156zm0.21875,14.188,0.1875,9.9688,18.781,10.312-0.28125-10-18.688-10.281zm89.469,12.188-0.71875,4.25,24.594,13.531,2.4687-8.5-0.625-0.34375-25.719-8.9375zm-89.219,2.0312,0.15625,9.9375,18.969,10.438-0.28125-10.031-18.844-10.344zm51.906,0.375-5.25,7,9.75,5.3438-2-10.969-2.5-1.375zm35.938,5.7188-1.5,9,23.25,12.812,2.4688-8.5312-24.219-13.281zm-43.406,4.25-5.25,7,20.031,11-1.9688-10.938-12.812-7.0625zm-44.219,3.8438,0.15625,9.9375,19.156,10.531-0.28125-10-19.031-10.469zm85.469,4.75-1.5312,9.0625,21.938,12.062,2.4688-8.5312-22.875-12.594zm-48.719,1.375-5.25,7,30.344,16.688-1.9688-10.969-23.125-12.719zm-36.5,8.0938,0.15625,9.9062,19.312,10.625-0.28125-9.9688-19.188-10.562zm29.031,1.875-0.125,0.15625-0.28125,9.4688,30.656,16.844,4.0938-3-0.9375-5.0938-33.406-18.375zm54.031,1.5625-1.5312,9.0312,20.594,11.312,2.4688-8.5-21.531-11.844zm-82.844,10.75,0.15625,9.9375,36.938,20.281,7.6562-5.5938-16.906-9.3125-0.1875,6-8.0938-4.0625-0.1875-6.5938-19.375-10.656zm28.281,1.4688-0.3125,9.6875,20.094,11.031,7.6875-5.5938-27.469-15.125zm52.375,0.65625-1.5312,9.0312,19.281,10.594,2.4688-8.5312-20.219-11.094zm-80.438,12.094,0.0625,3.0312-1.6562,5.9062,85.781,47.156,2.4375-8.4688-14.875-8.1875-0.6875,4.1562-29.406-16.219-2.7188-5.9688-38.938-21.406zm78.281,0.78125-1.5312,9,17.938,9.875,2.4688-8.5-18.875-10.375zm-80.906,11.844-2.4062,8.5,38.938,21.406,0.65625-0.96875,18.375,11.438,27.75,15.25,2.4375-8.4688-85.75-47.156zm78.719,1.0625-1.5,9,16.594,9.125,2.4375-8.5-17.531-9.625zm-82.156,11.094-2.4062,8.5312,35.406,19.469,4.875-7.1875-37.875-20.812zm80,1.7812-1.5312,9,15.281,8.375,2.4375-8.4688-16.188-8.9062zm-83.438,10.406-2.4062,8.5312,31.844,17.531,4.9062-7.1875-34.344-18.875zm-3.4375,12.188-2.375,8.5312,28.312,15.562,4.875-7.1874-30.812-16.906zm-3.4062,12.188-2.4062,8.5312,24.75,13.625,4.9062-7.1874-27.25-14.969zm-3.4375,12.188-0.4375,1.5313,0.25,8.2187,22.062,12.125v-6.1563l1.8438-2.6874-23.719-13.031zm-51.531,9.6875,100.75,55.375,10-4.3438-58.812-32.344,0.15625,4.5937-52.094-23.281zm-4.2812,1.8438,1.0938,10.469,69.156,38.031,0.34375-0.7188,0.5625,1.2188,19.594,10.781,10-4.375-100.75-55.406zm55.781,2.5312,0.3125,10.031,21.594,11.875v-9.875l-21.906-12.031zm79.719,8.75-3.25,0.9062,3.3125,1.8438-0.0625-2.75zm-8.3438,2.3438-11.875,3.3124,20.562,11.313-0.21875-9.9688-8.4688-4.6562zm-125.62,1.3124,1.0938,10.469,62.094,34.125,3.875-7.7188-67.062-36.875zm108.69,3.4376-11.875,3.3437,37.781,20.75-0.1875-9.9687-25.719-14.125zm-16.969,4.75-11.875,3.3437,55.031,30.25-0.1875-9.9687-42.969-23.625zm-90.188,6.7187,1.0938,10.469,19.281,10.594c-1.0543-5.1053-1.7674-9.0264-1.875-10.906l-18.5-10.156zm1.5625,14.938,1.0625,10.438,21.281,11.719c-0.93711-4.0357-1.7908-7.8866-2.5312-11.281l-19.812-10.875zm27.469,1.0312c11.831,8.2053,29.375,20.25,29.375,20.25l1.625-3.2187-31-17.031zm85.531,4.7813-1.9688,8.7813,21.031,11.562-0.1875-9.9687-18.875-10.375zm-43.781,4.0937,4.8438,10.344,7.7812-3.4062-12.625-6.9376zm-67.688,5,1.0625,10.469,23.594,12.969c-0.95001-3.9199-1.82-7.699-2.6875-11.375l-21.969-12.063zm108.66,3.4376-1.9688,8.7812,24.125,13.281-0.1875-9.9687-21.969-12.094zm-107.12,11.5,1.0938,10.437,26.062,14.344c-0.95583-3.8492-1.9082-7.6094-2.8438-11.438l-24.312-13.344zm104.31,1.0312-1.9688,8.7812,27.25,14.969-0.21875-9.9688-25.062-13.781zm-2.8125,12.531-1.9688,8.7813,30.344,16.656-0.21875-9.9688-28.156-15.469zm-99.969,1.3438,1.0938,10.469,28.625,15.719c-0.92389-3.6596-1.9148-7.5923-2.875-11.438l-26.844-14.75zm97.156,11.188-1.9688,8.7813,33.438,18.375-0.21875-9.9688-31.25-17.188zm-95.594,3.75,1.0625,10.438,31.25,17.188c-0.89063-3.4812-1.9177-7.4473-2.9375-11.469l-29.375-16.156zm92.781,8.7813-1.9688,8.7812,36.531,20.094-0.1875-10-34.375-18.875zm-91.25,6.125,1.0625,10.469,33.938,18.656c-0.47016-1.8076-1.3986-5.3937-2.9688-11.5l-32.031-17.625zm88.438,6.4062-1.9688,8.7812,39.625,21.781-0.1875-9.9687-37.469-20.594zm-86.906,8.5,1.0625,10.469,21.375,11.75,10.938-3.875-33.375-18.344zm84.094,4.0312-1.9688,8.7813,23.031,12.656,19.531,2.6562-0.0312-1.8125-40.562-22.281zm-82.562,10.906,1.0938,10.438,4.2812,2.375,10.906-3.875-16.281-8.9375zm79.75,1.625-1.2188,5.4687,14.875,2.0313-13.656-7.5z"/>
  <path id="path90" fill="url(#linearGradient4379)" d="m727.19,163.79-11.156,164.31,25.375,12.156-6.0938-128.78,30.438,48.656-10.031,75.062-13.312,23.344,22.312,88.219-89.25,48.688,19.281,50.719,87.219-85.188-9.125-75.062,34.844,38.094-36.875,145.47,36.5,21.312,21.312-179.53-46.938-60.344-5.8125-8.625,18.25-57.812,54.781-33.469-22.312,107.53,27.375-14.219,8.125-125.75-62.901,37.511-6.0681-11.136,5.0625-5.0938,33.486-59.827-44.642-2.0169-11.156,44.625,1.0312,14.188-10.17-6.0966z"/>
  <path id="path92" fill-opacity="0.16859999" fill="#A00" d="m727.22,164.42-0.375,5.6875,2.6875-1.7812-2.3125-3.9062zm3.875,6.5625-4.5312,3.0625-0.625,9.0938,8.8438-5.9062-3.6875-6.25zm55.969,7.6562-0.28125,1.0625,1.5312-1-1.25-0.0625zm6.4688,0.28125-7.8438,5.2812-2.625,10.438,22.656-15.156-12.188-0.5625zm17.375,0.78125-28.969,19.406-2.5938,10.438,43.75-29.281-12.188-0.5625zm-74.531,0.1875-10.688,7.1562-0.625,9.1562,15-10.062-3.6875-6.25zm91.938,0.59375-50.094,33.562-2.3125,9.2188,0.0625,0.96875,50.125-33.562,5.625-10.031-3.4062-0.15625zm-86.688,8.3125-16.812,11.281-0.625,9.1562,21.125-14.188-3.6875-6.25zm81.125,7.875-46.5,31.156,0.59375,8.2812,38.125-25.531,7.7812-13.906zm-75.844,1.0625-23,15.375-0.625,9.125,12.156-8.125-0.0937-2,0.90625,1.4375,14.344-9.5938-3.6875-6.2188zm5.25,8.9062-14.25,9.5625,3.8125,6.125,14.125-9.4688-3.6875-6.2188zm5.2812,8.9062-14.062,9.4062,3.8438,6.125,13.906-9.3125-3.6875-6.2188zm54.156,1.0312-51.75,34.688,3.8125,6.125,40.156-26.906,7.7812-13.906zm-75.969,1.1562-12.594,8.4062-0.625,9.125l13.58-9.09-0.375-8.4375zm126.44,2.3125-99.781,66.844-1.2812,9.5625,100.47-67.281,0.59375-9.125zm-99.375,4.4062-13.844,9.25,3.8438,6.125,13.688-9.1562-3.6875-6.2188zm-26.5,5.3125-14.031,9.4062-0.625,9.0938,15.031-10.062-0.375-8.4375zm32.781,2.9062-14.625,9.8125,3.8438,6.125,17.656-11.812-6.875-4.125zm92.25,0.375-100.75,67.5-1.2812,9.5938,34.344-23,0.625-2.0312,27.188-16.594,39.281-26.344,0.59375-9.125zm-60.75,3.4062-35.156,23.562,0.46875,0.75-1.125,8.375,30.281-20.281-1.7812-3.2812,5.0625-5.0938,2.25-4.0312zm-63.719,5.375-15.5,10.375-0.59375,9.0938,16.5-11.062-0.40625-8.4062zm85.906,0.90625-23.438,13.969-2.7812-5.125-32.312,21.625-1.2812,9.5938,59.812-40.062zm37.719,3.3438-11.938,8-2.0938,10.094,13.469-9,0.5625-9.0938zm-123.06,7.8125-16.938,11.344-0.625,9.0938,17.969-12.031-0.40625-8.4062zm122.25,5.1875-14.125,9.4375-2.0938,10.125,15.625-10.469,0.59375-9.0938zm-121.66,6.875-18.406,12.312-0.625,9.125,19.406-13.031-0.375-8.4062zm120.81,6.0938-16.281,10.906-2.0938,10.125,17.781-11.906,0.59375-9.125zm-120.25,5.9375-19.875,13.312-0.59375,9.0938,20.875-13.969-0.40625-8.4375zm119.41,7.0625-18.438,12.344-2.0938,10.156,19.938-13.375,0.59375-9.125zm-118.84,4.9688-21.312,14.281-0.625,9.125,22.344-14.969-0.40625-8.4375zm53,1.8125-33.406,22.375-1.25,9.5625,31.156-20.875,3.5-11.062zm65,6.2188-20.594,13.812-2.0938,10.094,22.094-14.781,0.59375-9.125zm-117.44,4.0312-22.75,15.25-0.625,9.125,23.781-15.938-0.40625-8.4375zm47.469,5.5312-30.25,20.25-1.0625,7.9688-1.3438,2.3438,29.156-19.531,3.5-11.031zm69.125,3.4688-22.75,15.219-2.0938,10.094,24.25-16.219,0.59375-9.0938zm-116.03,3.0625-22.75,15.25,7.5938,3.625,15.562-10.438-0.40625-8.4375zm41.906,9.25-31.094,20.812-8.0312,14.125,35.656-23.906,3.4688-11.031zm73.281,0.65625-24.906,16.688-2.0938,10.125,26.406-17.688,0.59375-9.125zm-114.59,2.1562-12.5,8.375,7.5625,3.625,5.3438-3.5625-0.40625-8.4375zm113.75,10.844-27.031,18.125-0.84375,4,27.375-14.219,0.5-7.9062zm-113.19,1.2188-2.25,1.5,2.375,1.125-0.125-2.625zm35.781,0.875-33.969,22.75,1.875,7.4688,33.562-22.469-2.6562-3.9688,1.1875-3.7812zm3.2188,10.312-34.5,23.094,1.875,7.4375,36.938-24.719-2.9062-3.7188-1.4062-2.0938zm6.2188,8.2812-38.031,25.438,1.9062,7.4375,40.562-27.156-4.4375-5.7188zm6.3438,8.1562-41.688,27.906,1.9062,7.4688,19.938-13.375-0.15625-1.3438,0.8125,0.90625,23.656-15.844-4.4688-5.7188zm6.375,8.1875-23.438,15.688,4.9375,5.4062,22.938-15.375-4.4375-5.7188zm6.3438,8.1562-22.719,15.25,4.9375,5.375,22.25-14.875-4.4688-5.75zm6.375,8.1875-22.031,14.781,4.9375,5.375,21.531-14.438-4.4375-5.7188zm-38.5,0.90625-19.594,13.094,1.9062,7.4688,18.656-12.5-0.96875-8.0625zm44.844,7.2812-21.344,14.281,4.9375,5.4062,20.875-13.969-4.4688-5.7188zm-43.469,4.2188-18.281,12.25,1.9062,7.4375,17.375-11.625-1-8.0625zm49.844,3.9375-20.656,13.844,3.6875,4.0312-0.6875,2.6875,21.5-14.406,0.125-1.0312-3.9688-5.125zm-48.438,7.5938-16.969,11.375,1.875,7.4375,16.062-10.781-0.96875-8.0312zm51.812,2.5938-22.156,14.844-2.6562,10.5,23.688-15.875,1.125-9.4688zm-50.406,8.875-15.688,10.531,1.875,7.4375,14.781-9.9062-0.96875-8.0625zm48.781,4.6562-24.344,16.281-2.6562,10.5,25.875-17.344,1.125-9.4375zm-47.375,6.8438-14.406,9.6562,0.0937,0.40625-3.9062,2.125-82.125,55,2.625,6.9688,98.688-66.094-0.96875-8.0625zm45.781,6.6562-26.531,17.75-2.6562,10.5,28.062-18.781,1.125-9.4688zm-44.406,4.8438-97.969,65.625,2.6562,6.9375,96.312-64.5-1-8.0625zm42.812,8.6562-28.719,19.219-2.6875,10.531,30.281-20.281,1.125-9.4688zm-41.406,2.875-95.594,64,2.625,6.9375,69.25-46.344,23.875-23.344-0.15625-1.25zm-50.906,5.4688-55.438,30.25,2.0938,5.5,53.344-35.75zm90.688,5.1875-30.906,20.688-2.6562,10.469,32.469-21.719,1.0938-9.4375zm-1.5938,13.5-33.125,22.188-2.625,10.469,34.625-23.219,1.125-9.4375zm-74.062,12.281-55.938,37.469,2.625,6.9375,24.938-16.688,28.375-27.719zm72.469,1.2188-35.312,23.656-2.6562,10.469,36.844-24.656,1.125-9.4688zm-1.5938,13.5-37.5,25.125-2.6562,10.469,39.031-26.125,1.125-9.4688zm-1.625,13.531-39.688,26.594-2.6562,10.469,41.219-27.625,1.125-9.4375zm-109.72,11.27l-11.719,7.8438,1,2.625,10.72-10.46zm108.12,2.1875-41.875,28.062-0.90625,3.5312,4.625,2.6875,37.031-24.812,1.125-9.4688zm-1.5938,13.531-33.594,22.5,6.9375,4.0625,25.531-17.094,1.125-9.4688zm-1.625,13.5-22.062,14.781,6.9688,4.0625,13.969-9.375,1.125-9.4688zm-1.5938,13.5-10.562,7.0625,6.9688,4.0625,2.4688-1.625,1.125-9.5z"/>
  <path id="path94" fill="url(#linearGradient4381)" d="m381.33,160.75-34.458,20.29,12.156,41.594-1,27.375-21.312,12.188-32.438,96.344,40.562,95.344l11.16-27.39-35.5-66.938,25.344-68.969,31.438,62.906-15.219,17.219-2,80.125-68.969,82.156,19.25,53.75,63.906-117.62,12.156-61.875,29.438,40.562-25.375,121.72,36.52,21.27,8.09-146.03-38.53-76.09-1.03-24.03,54.79-37.81-8.12-28.4-49.2,44.02-12.66-21.72-9.125-34.469,3.0312-36.531,14.188,3.0625z"/>
  <path id="path96" fill-opacity="0.17989999" fill="#F00" d="m381.35,160.73-2.0938,1.2188,2.4062,2.0938-0.3125-3.3125zm-4.9688,2.9375-6.8438,4.0312,13.656,11.875-1.0625-10.906-5.75-5zm-9.7812,5.75-6.8438,4.0312,24.969,21.688-1.0625-10.906-17.062-14.812zm-9.7812,5.75-6.8125,4.0312,36.25,31.5-1.0625-10.875-28.375-24.656zm-9.7188,5.75-0.21875,0.125,3.7812,12.969,37.125,32.25-1.0625-10.906-39.625-34.438zm5.25,18.812,3.9062,13.375,19.5,16.938,12.688,2.75-0.1875-1.875-35.906-31.188zm5.5625,19.062,1.125,3.8438-0.25,6.875,14.438,12.562,0.78125-9.3125-16.094-13.969zm0.71875,14.844-0.34375,9.6562,13.844,12.031,0.78125-9.2812-14.281-12.406zm-0.5,13.812-0.0937,2.5625-5.0938,2.9062,19.156,16.625-0.875-3.2812,0.5625-6.9688-13.656-11.844zm-8.125,7.1562-6.9062,3.9375,33.875,29.406-3.4375-12.906-23.531-20.438zm-9.9062,5.6562-3.375,1.9375-1.3125,3.9062,50.125,43.531-5.1875-8.9062-1.9062-7.1875-38.344-33.281zm-5.8125,9.1562-2.5625,7.6875,71.594,62.156,6.375-4.375-15.531-13.469-1.1562,1.0312-2.4062-4.1562-56.312-48.875zm107.91,9-5.2812,4.7188,8.8125,7.6562-3.5312-12.375zm-111.59,2-2.5938,7.7188,14.219,12.344,2.75-7.5625-14.375-12.5zm103.91,4.875-5.6562,5.0625,20.062,17.438,1.4062-0.96875-2.9688-10.375-12.844-11.156zm-107.62,6.1562-2.5938,7.6875,13.969,12.125,2.75-7.5312-14.125-12.281zm99.562,1.0625-5.6562,5.0625,19,16.5,6.4062-4.4062-19.75-17.156zm-77.844,3.5625,8.7812,17.562,38.25,33.219-0.0937-2.2188,5-3.4688-51.938-45.094zm69.781,3.6562-5.6562,5.0625,17.938,15.594,6.4062-4.4062-18.688-16.25zm-95.188,2.6875-2.5938,7.7188,13.688,11.906,2.7812-7.5625-13.875-12.062zm87.125,4.5312-5.6562,5.0625,16.906,14.656,6.375-4.4062-17.625-15.312zm-90.844,6.5-2.5938,7.7188,13.438,11.656,2.7812-7.5625-13.625-11.812zm82.75,0.75-5.625,5.0312,15.844,13.75,6.3438-4.4062-16.562-14.375zm-41.062,7,8.7812,17.562,26.312,22.875-0.4375-10.312-34.656-30.125zm-45.375,3.2188-2.625,7.7188,13.188,11.469,2.7812-7.5625-13.344-11.625zm-3.7188,11.031-2.5938,7.7188,12.906,11.219,2.7812-7.5625-13.094-11.375zm61.625,10.844,3.5938,7.1875-2.9375,3.3438,28.938,25.125-6.7188-13.281-0.125-2.625-22.75-19.75zm-65.344,0.15625-2.5938,7.7188,22.062,19.188-7.3125-13.812,0.71875-1.9062-12.875-11.188zm-3.6875,11.031-0.375,1.0625,5.7812,13.625,31.719,27.531-9.7812-18.5-27.344-23.719zm67.562,1.75-5,5.625,48.938,42.5-9-17.781-34.938-30.344zm-7.125,8.0312-3.0312,3.4375-0.0937,3.8125,67.031,58.219-9-17.812-54.906-47.656zm-3.2188,11.438-0.25,9.7812,24.312,21.094,0.46875-2.3438,5.4062,7.4688,42.875,37.219,0.40625-7.1562-2.25-4.4062-70.969-61.656zm-48.938,0.21875,6.75,15.812,36.094,31.375-9.7812-18.5-33.062-28.688zm48.562,13.719-0.21875,9.75,22.281,19.344,1.6562-8.5-23.719-20.594zm-38.969,8.8125,6.7188,15.812,22.531,19.562,3-7.375-32.25-28zm38.625,5.0938-0.21875,9.75,20.219,17.594,1.6875-8.5312-21.688-18.812zm-0.34375,13.938-0.25,9.7812,18.219,15.781,1.6875-8.5-19.656-17.062zm-28.656,3.5625,6.7188,15.812,8.625,7.5,3-7.375-18.344-15.938zm68,2.1562,15.688,21.594-0.34375,1.6875,18.438,16,0.53125-9.5-34.312-29.781zm-39.688,8.1875-0.25,9.75,16.188,14.031,1.6562-8.5-17.594-15.281zm-18.719,12.188,3.0938,7.3125,1.375-3.4062-4.4688-3.9062zm18.375,1.75-0.0625,2.5-3.5938,4.3125,17.25,14.969,0.53125-1,1.4375-7.25-15.562-13.531zm54.625,4.75-1.75,8.4375,20.188,17.531,0.53125-9.5-18.969-16.469zm-60.344,4.5-4.8438,5.7812,18.906,16.406,3.6875-6.7812-17.75-15.406zm57.812,7.5625-1.75,8.4375,21.969,19.062,0.53125-9.5-20.75-18zm-64.719,0.65625-4.8438,5.7812,20.562,17.844,3.6562-6.7812-19.375-16.844zm-6.9375,8.25-4.8438,5.7812,22.219,19.281,3.6875-6.7812-21.062-18.281zm69.156,3.125-1.75,8.4375,23.719,20.594,0.53125-9.5-22.5-19.531zm-76.031,5.0938-4.8438,5.75,23.875,20.75,3.6562-6.7812-22.688-19.719zm73.531,6.9688-1.7812,8.4375,25.5,22.125,0.53125-9.5-24.25-21.062zm-80.469,1.2812-4.8438,5.75,25.531,22.188,3.6875-6.7812-24.375-21.156zm-6.9062,8.2188-4.8438,5.75,27.188,23.625,3.6875-6.7812-26.031-22.594zm84.844,2.5312-1.75,8.4375,27.25,23.656,0.53125-9.5-26.031-22.594zm-91.75,5.6875-4.8438,5.7812,28.844,25.031,3.6875-6.7812-27.688-24.031zm89.25,6.3438-1.75,8.4375,29,25.188,0.53125-9.5-27.781-24.125zm-96.156,1.875-4.8438,5.7812,30.5,26.5,3.6875-6.7812-29.344-25.5zm-6.9062,8.25-4.8438,5.75,32.156,27.938,3.6875-6.7812-31-26.906zm100.56,1.9375-1.7812,8.4375,30.781,26.719,0.53125-9.5-29.531-25.656zm-107.47,6.2812-1.125,1.3438,4,11.156,26.094,22.656,3.6875-6.7812-32.656-28.375zm104.94,5.75-1.75,8.4375,32.531,28.25,0.53125-9.5312-31.312-27.156zm-2.5,12.062-1.7812,8.4688,34.312,29.75,0.5-9.5-33.031-28.719zm-97.375,0.8125,5.1875,14.438,13.469,11.719,3.6875-6.75-22.344-19.406zm94.844,11.25-1.6562,8,33.125,19.281-31.469-27.281zm-87.438,9.4062,5.1562,14.406,0.84375,0.75,3.6875-6.75-9.6875-8.4062z"/>
  <path id="path98" fill="url(#linearGradient4383)" d="m190.67,192.2-83.166,35.498,12.171,110.55-11.156,7.0995,3.0426-25.355-34.483-27.384-4.0569,48.683,29.412,11.156-5.0711,11.156-33.469,20.284-14.199-103.45-25.355,15.213,37.526,115.62,42.597-22.313,32.455,38.54-1.0142,23.327-62.882-16.228,7.0995,156.19,36.512-17.242-20.284-98.379,44.626,16.228,2.0284-12.171,8.1138,10.142,38.54-29.412-23.327,119.68,33.469,6.0853,9.128-164.3-54.768,26.37,1.0142-33.469-20.284-59.839-8.1138-109.54,63.896-9.128v-43.627"/>
  <path id="path100" fill-opacity="0.16859999" fill="#800080" d="m190.68,192.22-5.4375,2.3125,5.4375,10.875v-13.188zm-8.375,3.5625-6.9062,2.9375,15.281,30.5v-16.688l-8.375-16.75zm-9.8125,4.1875-6.875,2.9375,17.062,34.062,7.7812-1.125-17.969-35.875zm-9.8125,4.1875-6.875,2.9375,15.75,31.438,7.7812-1.0938-16.656-33.281zm-9.8125,4.1875-6.8438,2.9375,14.438,28.844,7.75-1.0938-15.344-30.688zm-9.8125,4.1875-6.875,2.9375,13.156,26.25,7.75-1.125-14.031-28.062zm-9.8438,4.2188-6.8438,2.9062,11.844,23.656,7.75-1.125-12.75-25.438zm-9.7812,4.1562-6.875,2.9375,10.562,21.031,7.7812-1.0938-11.469-22.875zm-9.8125,4.1875-6.125,2.625,0.25,2.3125,21.031,42-1.4375-19.562-13.719-27.375zm-4.875,14.031,2.375,21.406,19.75,39.438-1.4688-19.594-20.656-41.25zm3.375,30.531,2.375,21.406,18.438,36.844-1.4688-19.594-19.344-38.656zm-62.438,10.781-0.0625,0.0312,0.09375,0.15625-0.03125-0.1875zm-2.7812,1.6875-6.4375,3.8438,13.75,27.438-3.1562-22.969-4.1562-8.3125zm-9.1562,5.5-6.4375,3.8438,27.406,54.75-3.1562-23.031-17.812-35.562zm-9.1875,5.5-4.2188,2.5312,5.25,16.188,33.625,67.156-3.1562-23-31.5-62.875zm48.375,1.4062-1.1875,14.312,20.688,41.344,6,2.2812-2.3125,5.0938,32.469,64.812,4.3125,5.125-0.125,3.2188,25.219,50.344,6.0625-4.5938-91.125-181.94zm4.2188,1.3125,73.188,146.12,0.46875-15.719-41.906-83.688-4.375,2.7812,1.125-9.3125-14.625-29.156-13.875-11.031zm34.344,4.3438,2.3438,21.344,18.25,36.469-1.1875-3.5312-1.3438-18.219-18.062-36.062zm-14.562,11.375,9.4062,18.75,1.2188-10.312-10.625-8.4375zm-25.719,3.375-1.1875,14.281,7.7188,15.406,10.312,3.9062-16.844-33.594zm43.625,15.719,0.84375,7.5938-4.0938,2.5938,39.438,78.719,0.15625-5.25-11.625-34.344-24.719-49.312zm-82.688,1.4062,15.375,47.344,14.781,29.531,6.625-3.4375-36.781-73.438zm37.375,3.25-0.5,6,4.3438,1.6562-3.8438-7.6562zm24.906,25.969-1.0625,2.3438-4.6875,2.8438,11.375,22.719,0.40625-0.21875,19.344,23-25.375-50.688zm-8.4688,6.8438-6.4062,3.875,11.062,22.125,6.625-3.4688-11.281-22.531zm-9.125,5.5312-6.4375,3.875,10.781,21.531,6.625-3.4688-10.969-21.938zm-9.1562,5.5312-6.4062,3.875,10.469,20.938,6.625-3.4688-10.688-21.344zm-13.594,20.406,3.7812,11.688,1.625-0.84375-5.4062-10.844zm150.84,21.844-4.2812,2.0625,3.75,7.5,0.53125-9.5625zm-7.1562,3.4375-6.75,3.25,12.188,24.281,0.84375-15-6.2812-12.531zm-9.5938,4.625-6.75,3.25,20.594,41.094,0.84375-15.031-14.688-29.312zm-9.625,4.625-6.7188,3.2188,12,24,1.8125-1.375-0.6875,3.5938,15.875,31.688,0.8125-15-23.094-46.125zm-109.53,0.46875,0.5625,12.656,28.875,57.656-5.8438-28.312-20.625-41.25-2.9688-0.75zm7.0312,1.8125,20.125,40.188,10.219,3.6875-20.75-41.375-9.5938-2.5zm56.438,0.84375-0.59375,13.594-1.0938-0.28125,18.562,37.094,6.0625-4.625-22.938-45.781zm36.469,1.4688-6.7188,3.25,13,25.938,6.0312-4.5938-12.312-24.594zm-79.219,1.2188,21,41.938,10.219,3.7188-21.594-43.156-9.625-2.5zm69.625,3.4062-6.7188,3.25,13.969,27.906,6.0625-4.625-13.312-26.531zm-55.938,0.15625,21.875,43.688,10.25,3.6875-22.5-44.906-9.625-2.4688zm13.688,3.5312,20.438,40.781,1.4375-8.5938,6.9688,8.6875-19.25-38.406-9.5938-2.4688zm-47.156,8.0312,0.8125,18.375,36.031,71.875-5.8438-28.375-31-61.875zm114,13.594-2.3438,12,18.031,36,0.8125-15-16.5-33zm-112.81,12.594,0.84375,18.375,37.719,75.312,2.9062-1.375-3.3438-16.156-38.125-76.156zm109.47,4.5-2.3438,12.031,20.188,40.281,0.8125-15.031-18.656-37.281zm-3.3438,17.156-2.3438,12.031,22.344,44.562,0.8125-15.031-20.812-41.562zm-104.94,4.5312,0.84375,18.344,26.875,53.719,6.7812-3.1875-34.5-68.875zm101.59,12.594-2.3125,12.031,24.469,48.844,0.8125-15-22.969-45.875zm-100.41,13.531,0.8125,18.312,16.125,32.156,6.7188-3.1876-23.656-47.281zm97.094,3.5938-2.3438,12,17.406,34.719,9.1562,1.6563-24.219-48.375zm-3.3438,17.094-2.3438,12.031,7.625,15.187,9.1875,1.6876-14.469-28.906zm-92.562,5.4687,0.84375,18.344,5.25,10.5,6.75-3.1875-12.844-25.656zm89.219,11.656-1.5938,8.25,6.3125,1.1563-4.7188-9.4063zm-88.031,14.5,0.21875,4.9063,1.8125-0.84381-2.0312-4.0625z"/>
  <path id="path102" fill="url(#linearGradient4385)" d="m687.62,159.77-38.52,18.244,15.208,55.773-10.156,2.0312-35.469,61.875-23.344-102.44-21.281,24.344,43.594,110.53,30.426-52.733-12.176,74.045-67.938,98.375,38.531,138.94,21.312-25.344-39.562-106.5,47.656-54.75,11.812,12.438-5.7188,6.8125,11.156,35.5,13.188-22.719,8.125,8.5312-37.531,135.91,35.5,12.156,18.25-154.16-12.938-22.031,30.188-52-9.1306-106.5-19.276-18.247,7.0938-17.25zm-6.9688,140.58,15.094,57.188-30.344,36.062-12.25-20.844z"/>
  <path id="path104" fill-opacity="0.1696" fill="#2b0011" d="m685.91,160.17-10.375,4.9062,11.938,4.5625,0.125-8.8125-1.6875-0.65625zm-14.812,7.0312-10.344,4.9062,26.5,10.125,0.15625-8.8125-16.312-6.2188zm-14.781,7-7.1875,3.4062,0.8125,3.0312,37.094,14.156,0.15625-8.8125-30.875-11.781zm-5.2188,10.625,2.6875,9.9375,33.062,12.625,0.125-8.8438-35.875-13.719zm-55.75,10.031-1.875,2.1562,2.5938,1-0.71875-3.1562zm59.594,4.125,2.6875,9.875,29,11.094,0.15625-8.8125-31.844-12.156zm-63.969,0.875-5.7812,6.625,14.031,5.375l-2.22-9.72-6.03-2.28zm-8.2812,9.4688-5.8125,6.6562,25.5,9.75-2.2188-9.7188-17.469-6.6875zm76.094,3.7812,2.6875,9.9062,20.75,7.9062,3.1562-7.6562-26.594-10.156zm-84.375,5.6875-0.34375,0.40625,3.875,9.8438,27.594,10.562-2.2188-9.75-28.906-11.062zm88.219,8.4375,1.6875,6.1562-5.75,1.1562,30,11.469-9.0312-8.5625,1.3438-3.25-18.25-6.9688zm-82.938,6.2812,4.125,10.438,24.875,9.5-2.2188-9.7188-26.781-10.219zm73.906,2.9062-4.1875,7.2812,50.031,19.125-0.625-7.125-3.5312-3.3438-41.688-15.938zm-5.9688,10.375-4.1562,7.2812,57.062,21.812-0.78125-9.1562-52.125-19.938zm-62.062,1.5938,4.1562,10.469,22.125,8.4688-2.2188-9.7188-24.062-9.2188zm56.125,8.7812-4.1875,7.2812,64.156,24.531-0.78125-9.1875-59.188-22.625zm-50.219,6.1562,4.0938,10.406,19.438,7.4375-2.1875-9.7188-21.344-8.125zm44.25,4.25-4.1562,7.2812,14.562,5.5625,1.9688-3.4062-0.65625,3.9062,55.344,21.156-0.78125-9.1875-66.281-25.312zm-5.9375,10.375-4.1875,7.2812,14.562,5.5625,4.1875-7.2812-14.562-5.5625zm-32.438,0.28125,4.125,10.438,16.719,6.375-2.2188-9.7188-18.625-7.0938zm49.531,6.25-1.375,8.3438,33.062,12.625,2.0938-5.5,1.8438,7.0312,21.406,8.1562-0.78125-9.1562-56.25-21.5zm-23.062,3.8438-4.1562,7.2812,14.5,5.5312,4.1875-7.25-14.531-5.5625zm-20.594,4.7812,4.125,10.438,20.812,7.9688,4.2188-7.25-29.156-11.156zm41.688,3.2812-1.375,8.3438,30.844,11.781,2.9375-7.75-32.406-12.375zm-35.812,11.625,4.125,10.438,8.9688,3.4375,4.1875-7.25-17.281-6.625zm33.844,0.28125-1.375,8.3438,28.594,10.938,2.9688-7.75-30.188-11.531zm40.688,2.9062,2.5938,9.8438,18.812,7.1875-0.78125-9.1562-20.625-7.875zm-42.656,9-1.3438,8.3438,26.344,10.062,2.9375-7.7188-27.938-10.688zm-26,2.7188,2.6875,6.8125,2.75-4.75-5.4375-2.0625zm72.375,2.3438,2.5938,9.875,16.219,6.1875-0.78125-9.1875-18.031-6.875zm-48.312,6.8438-1.375,8.3438,24.125,9.2188,2.9375-7.75-25.688-9.8125zm52.031,7.2188,2.5938,9.875,13.625,5.1875-0.8125-9.1562-15.406-5.9062zm-54,4.6875-1.1562,7.0312-0.75,1.0938,22.406,8.5938,2.9375-7.75-23.438-8.9688zm57.719,9.4062,0.96875,3.7188-3.5312,4.1875,13.281,5.0625,2.4375-4.1875-0.34375-3.875-12.812-4.9062zm-61.719,1.75-4.8125,6.9688,25.125,9.625,2.9375-7.7188-23.25-8.875zm56.75,9-5.625,6.7188,15.312,5.8438,4.2188-7.25-13.906-5.3125zm-63.656,1-4.8438,7,40.906,15.625-6.6875-11.406-29.375-11.219zm55.594,8.5938-5.625,6.6875,17.375,6.6562,4.1875-7.25-15.938-6.0938zm-62.5,1.4062-4.8438,7,67.062,25.625,4.1875-7.2188-20-7.6562-0.25,0.28125-0.28125-0.5-45.875-17.531zm54.469,8.1562-5.625,6.6875,19.375,7.4375,4.2188-7.25-17.969-6.875zm-61.406,1.875-4.8125,7,27.562,10.531,0.84375-0.96875,1.9062,2,43.594,16.688-3.6562-6.25,1.9062-3.2812-67.344-25.719zm-6.9062,10-4.8438,7,26.25,10.031,5.75-6.625-27.156-10.406zm-6.9062,10-4.8438,7.0312,24.875,9.5,5.7812-6.6562-25.812-9.875zm45,4.5625,4.2188,4.4375-3.8125,4.5625,46.75,17.844,0.0312-0.375-6.375-10.875l-40.8-15.59zm-51.906,5.4688-4.8438,7,23.531,9,5.7812-6.6562-24.469-9.3438zm50.688,6.6875,3.1875,10.094,17.938,6.8437,2.9375-5.0625,8.125,8.5312-0.1875,0.7188,14.938,5.6875,1-8.5-47.938-18.312zm-57.594,3.3125-4.8438,7,22.156,8.5,5.7812-6.6563-23.094-8.8437zm-6.9375,10-4.8438,7.0313,20.812,7.9374,5.8125-6.6562-21.781-8.3125zm69.062,1.0937,3.1562,10.063,7.4062,2.8437,4.2188-7.25-14.781-5.6563zm-75.969,8.9376-2.875,4.1562,1.125,4.0312,21,8.0313-1.8438-4.9687,3-3.4688-20.406-7.7812zm102.5,1.1874-2.2188,8.0313,16.656,6.3437,1-8.4687-15.438-5.9063zm-22,4.25,1.8125,5.8126,2.4375-4.1876-4.25-1.625zm-81.094,6.9688,2.75,9.9375,22.562,8.625-3.8438-10.344-21.469-8.2188zm99.906,0.25-2.1875,8,18.375,7.0312,1-8.4687-17.188-6.5625zm-3.14,11.42l-2.2188,8,20.125,7.6875,1-8.4688-18.9-7.22zm-92.812,2.5,2.75,9.9063,24.125,9.2187-3.8438-10.344-23.031-8.7813zm89.656,8.9375-2.2188,8.0312,21.844,8.3438,1-8.5-20.625-7.875zm-85.719,5.2188,2.75,9.9062,25.656,9.8125-3.8438-10.344-24.562-9.375zm82.562,6.2187-2.2188,8.0313,23.562,9.0312,1-8.5-22.344-8.5625zm-78.656,7.9063,2.75,9.9374,27.25,10.406-3.875-10.344-26.125-10zm75.5,3.5624-2.2188,8,25.281,9.6876,1.0312-8.5-24.094-9.1876zm-71.562,10.594,2.75,9.9375,28.781,11-3.8438-10.344-27.688-10.594zm68.406,0.84381-2.2188,8.0312,27.031,10.312,1-8.4687-25.812-9.875zm-3.1875,11.437-2.2188,8.0313,28.781,11,1-8.5-27.562-10.531zm-61.281,1.9063,2.75,9.9375,30.312,11.562-3.8438-10.344-29.219-11.156zm58.125,9.5313-2.2188,8.0624,30.5,11.625,1-8.5-29.281-11.187zm-54.219,4.625,2.75,9.9062,30.312,11.594,0.9375-1.125-3.1875-8.625-30.812-11.75zm51.062,6.8437-2.2188,8.0313,32.219,12.312,1-8.5-31-11.844zm-47.125,7.3125,2.75,9.9062,18.312,7,5.6562-6.6874l-26.73-10.21zm43.969,4.125-2.2188,8.0312,33.938,12.969,1-8.4688-32.719-12.531zm-40.062,10.031,2.7812,9.9063,6.3125,2.4375,5.6562-6.7188-14.75-5.625zm36.906,1.4376-1.625,5.8437,35.5,12.156l0.54-4.84-34.44-13.16zm-32.969,12.719,0.90625,3.25,1.8438-2.2187-2.75-1.0313z"/>
  <path id="path106" fill="url(#linearGradient4387)" d="m429.01,283.48-25.355,15.213,36.512,116.64,41.583-23.327,32.455,44.626v19.27l-61.867-15.213,10.142,150.1,33.469-5.0711-23.327-103.45,46.654,13.185,3.0427-13.185,10.142,11.156,39.555-29.412-31.441,119.68,38.54,7.0995,8.1138-160.25-53.754,21.299-1.0142-30.427-24.341-63.896,8.1138-96.351,52.739,52.739,10.142-37.526-74.038-51.725-9.128,122.72-4.0569,1.0142-1.0142-27.384-32.455-25.355-7.0995,45.64,29.412,19.27-3.0426,8.1138-31.441,19.27-17.242-104.46"/>
  <path id="path108" fill-opacity="0.16859999" fill="#050" d="m505.16,224.66-0.0937,1.1562,1.4062-0.25-1.3125-0.90625zm5.4062,3.7812-5.7812,1.0625-0.625,8.625,16.094-2.9375-9.6875-6.75zm13.812,9.625-20.5,3.7188-0.65625,8.6562,30.812-5.5938-9.6562-6.7812zm13.781,9.6562-35.188,6.375-0.65625,8.625,45.531-8.25-9.6875-6.75zm13.781,9.625-33.406,6.0625,7.2188,7.2188,35.875-6.5312-9.6875-6.75zm-35.844,6.5-14.062,2.5625-0.625,8.625,13.938-2.5312,0.75-8.6562zm49.656,3.125-36.938,6.7188,7.1875,7.1875,39.406-7.125-9.6562-6.7812zm-50.688,9.2188-13.938,2.5312-0.65625,8.625,13.844-2.5312,0.75-8.625zm64.031,0.5-40.031,7.25,7.1875,7.1875,30.438-5.5,2.4062-8.9375zm-150.03,6.8125-11.156,6.6875,11.906-2.1562-0.75-4.5312zm84.938,5-13.781,2.5-0.65625,8.625,13.719-2.5,0.71875-8.625zm61.656,0.9375-26.312,4.7812,7.1875,7.1875,16.688-3.0312,2.4375-8.9375zm-145.25,2.0938-21.188,3.8438-5.5,3.3125,1.8438,5.875,26.188-4.75-1.3438-8.2812zm31.125,6.5-3.5,0.625-1.375,8.75,13.688-2.5-8.8125-6.875zm51.438,2.7812-13.688,2.5-0.625,8.5938,13.594-2.4688,0.71875-8.625zm59.219,1.4062-12.562,2.2812,7.1875,7.1875,2.9688-0.53125,2.4062-8.9375zm-139.84,1.0938-25.719,4.6875,2.5312,8.0312,24.531-4.4688-1.3438-8.25zm41.781,4.5625-18.031,3.2812-1.375,8.75,28.25-5.1562-8.8438-6.875zm37.812,5.2812-13.562,2.4688-0.65625,8.5938,13.469-2.4375,0.75-8.625zm-77.656,1.9375-24.062,4.375,2.5312,8.0312,22.906-4.1562-1.375-8.25zm52.469,2.625-32.625,5.9375-1.3438,8.7188,38.312-6.9375-0.15625-4.4375-4.1875-3.2812zm24.156,7.75-13.469,2.4375-0.625,8.625,13.344-2.4375,0.75-8.625zm-74.688,1.4375-22.406,4.0625,2.5312,8.0312,21.25-3.875-1.375-8.2188zm55.031,2.125-39.062,7.0938-0.8125,5.1875,4.125,2.7188,36.062-6.5625-0.3125-8.4375zm18.594,8.7812-13.312,2.4062-0.53125,7.1562-4.0312,1.0312-0.28125-7.3125-31.812,5.7812,10.156,6.6562,39.094-7.0938,0.71875-8.625zm-71.656,0.875-20.781,3.75,2.5312,8.0312,19.594-3.5625-1.3438-8.2188zm70.625,11.438-34.406,6.25,6.4062,4.1875-1.2812,3.375,29.094-5.2812-0.4375-1.125,0.625-7.4062zm-68.688,0.34375-19.125,3.4688,2.5312,8.0312,17.938-3.25-1.3438-8.25zm69.781,11.594-31.844,5.7812-0.3125,0.84375-17.875,10.969,53.062-9.6562-3.0312-7.9375zm-67.844,0.1875-17.469,3.1562,2.5312,8.0312,16.312-2.9375-1.375-8.25zm72.188,11.156-62.844,11.406-5.0938,3.125-0.34375-2.125-14.188,2.5625,2.5312,8.0312,82.938-15.031-3-7.9688zm-70.25,0.625-15.812,2.8438,2.5312,8.0625,14.656-2.6562-1.375-8.25zm74.562,10.75-83.188,15.094,2.5312,8.0312,23.031-4.1875,20.875-11.719,5.0938,7,34.688-6.2812-3.0312-7.9375zm4.3125,11.344-33.625,6.0938,5.4688,7.5,31.188-5.6562-3.0312-7.9375zm4.3438,11.344-30.156,5.4688,5.4375,7.5,27.75-5.0312-3.0312-7.9375zm-75.875,1.625-12.375,2.25,1.25,4,11.125-6.25zm80.188,9.7188-26.688,4.8438,5.4375,7.5,22.438-4.0938-0.1875-5.625-1-2.625zm1.3125,11.875-20.219,3.6875,1.6562,2.25v5.9375l18.844-3.4375-0.28125-8.4375zm54.312,2.2812-11.031,2-39.562,15.688,50.156-9.125,0.4375-8.5625zm-134.75,7.7188,0.0625,0.9375,2.1875-0.375-2.25-0.5625zm80.812,2.0625-18.938,3.4688v8.4688l19.219-3.5-0.28125-8.4375zm-70.031,0.59375-10.469,1.9062,0.5625,8.375,29.75-5.4062-19.844-4.875zm123.34,1.875-132.19,24,0.5625,8.375,131.19-23.812,0.4375-8.5625zm-94.938,5.0938-38.062,6.9062,0.5625,8.4062,57.344-10.406-19.844-4.9062zm94.312,7.1562-130.78,23.75,0.59375,8.375,17.875-3.25-0.90625-4.0624,9.125,2.5937,82.375-14.969,7.9062-5.875-1.2188,4.6562,14.625-2.6562,0.40625-8.5625zm-0.59375,12.219-15.438,2.8125-2.3438,8.9375,17.344-3.1562,0.4375-8.5938zm-27.562,5-68.156,12.375,18.375,5.1875,12.656-2.2813,1.75-7.6874,5.75,6.3124,14.469-2.625,15.156-11.281zm26.938,7.25-18.156,3.3125-2.3438,8.9375,20.062-3.6562,0.4375-8.5938zm-110.31,7.875-18.438,3.3438,0.5625,8.4374,19.719-3.5937-1.8438-8.1875zm61.781,0.9375-5.2188,0.9375,1.5938,1.75,3.625-2.6875zm-16.406,2.9687-4,0.75,3.5938,1,0.40625-1.75zm64.312,0.4688-20.875,3.7812-2.375,8.9688,22.812-4.1562,0.4375-8.5938zm-107.06,7.3125-20.25,3.6563,0.5625,8.4062,21.562-3.9062-1.875-8.1563zm106.44,4.9375-23.625,4.2812-2.3438,8.9376,25.531-4.625,0.4375-8.5938zm-103.78,6.7188-22.094,4,0.5625,8.4062,23.375-4.2188-1.8438-8.1874zm103.19,5.5312-26.375,4.7812-2.3438,8.9376,28.281-5.125,0.4375-8.5938zm-100.56,6.125-23.906,4.3125,0.5625,8.4063,25.188-4.5626-1.8438-8.1562zm99.938,6.125-29.094,5.2812-2.3438,8.9376,31-5.625,0.4375-8.5938zm-97.312,5.5312-25.719,4.6563,0.5625,8.4063,27-4.9063-1.8438-8.1563zm96.688,6.7188-31.812,5.7812-2.3438,8.9376,33.719-6.125,0.4375-8.5938zm-94.062,4.9375-27.531,5,0.5625,8.4063,28.812-5.2188-1.8438-8.1875zm93.438,7.3125-34.531,6.2812-2.3438,8.9376,36.438-6.625,0.4375-8.5938zm-90.812,4.3438-29.344,5.3437,0.5625,8.4063,30.625-5.5626-1.8438-8.1874zm90.188,7.9062-37.25,6.75-2.3438,8.9375,39.156-7.125,0.4375-8.5625zm-87.562,3.75-31.188,5.6562,0.59375,8.4063,32.438-5.875-1.8438-8.1875zm86.969,8.5-29.969,5.4375,23.219,4.2813,6.3125-1.1563,0.4375-8.5625zm-84.344,3.1562-33,6,0.125,1.6876,33.469-5.0626-0.59375-2.625z"/>
  <path id="path110" fill="url(#linearGradient4389)" d="m210.97,159.73-2.0312,51.722,7.0938,19.281-14.188,23.344-13.938,108.34,25.875,48.188-15,24,31.438,155.16,28.406-20.281-36.5-133.88,3.8438-3.8438,13.375,23.125,11.156-37.531-4.5-5.625,14.656-14.656,45.625,54.75-38.531,112.59,26.375,26.375,30.438-147.06-64.938-88.25-16.219-82.156,37.531,54.781,35.5-111.56-13.188-30.438-26.375,110.56-32.438-63.906-17.25-1,19.253-55.798zm-31.42,111.6l29.438,74.031-16.875,27-25.375-31.875z"/>
  <path id="path112" fill-opacity="0.16859999" fill="#9F5" d="m210.97,159.73-0.3125,8.3125,6.6562-5.4062-6.3438-2.9062zm9.625,4.4062-10.125,8.1875-0.375,10.031,18.188-14.719-7.6875-3.5zm10.938,5-21.625,17.5-0.375,10.031,29.656-24.031-7.6562-3.5zm10.938,5-33.125,26.844-0.375,10,35.219-28.531,2.25-6.5-3.9688-1.8125zm60.781,11.969-1.1562,4.875,2.4062-1.9688-1.25-2.9062zm-61.062,2.125-32.188,26.062,2.75,7.4688,24.812-20.094,4.625-13.438zm63.656,3.875-5,4.0625-2.8438,12,10.969-8.875-3.125-7.1875zm4.4688,10.281-13.562,10.938-2.875,12.031,19.531-15.812-3.0938-7.1562zm-74.719,5.0312-21.688,17.562,2.125,5.75-2.6562,4.375,17.562-14.219,4.6562-13.469zm79.125,5.1875-22.062,17.875-2.875,12.031,24.781-20.031,1.875-5.9375-1.7188-3.9375zm-85.781,14.062-20.531,16.625-6.5625,10.781-0.59375,4.6875,32.844-26.594-6.9062-0.40625,1.75-5.0938zm83.844,1.4062-24.219,19.594-2.875,12.031,22.906-18.531,4.1875-13.094zm-73.844,4.375-38.312,31-1.375,10.781,46.938-38-1.75-3.4688-5.5-0.3125zm8.75,6.75-49.031,39.688-1.4062,10.812,53.938-43.656-3.5-6.8438zm59.156,7.5-22.375,18.125-2.875,12.062,21.062-17.062,4.1875-13.125zm-54.156,2.3125-56.031,45.375-1.375,10.781,19.344-15.656,0.375-1.9688,0.5,1.25,40.656-32.906-3.4688-6.875zm4.9688,9.8125-40.906,33.125,2.9062,7.3438,24.906-20.156-1.1562-5.8125,2.9688,4.3438,14.781-11.969-3.5-6.875zm43.25,6.5625-20.531,16.625-2.875,12.031,19.219-15.562,4.1875-13.094zm-38.25,3.25-14.438,11.688,4.2812,6.25,13.656-11.031-3.5-6.9062zm4.9688,9.8125-13.312,10.781,4.2812,6.2812,12.531-10.156-3.5-6.9062zm-22.375,4.2812-24.344,19.688,2.9375,7.375,23.062-18.688-1.6562-8.375zm49.688,1.3438-28.406,23,4.2812,6.25,19.969-16.156,4.1562-13.094zm-22.312,4.2188-12.219,9.875,4.3125,6.25,11.406-9.25-3.5-6.875zm-58.906,6.0938-19.031,15.406-1.4062,10.875,18.344-14.844,2.0938-11.438zm33.906,0.28125-22.531,18.219,2.9062,7.375,21.281-17.219-1.6562-8.375zm41.375,8.0625-16.375,13.25,4.2812,6.25,7.9375-6.4375l4.12-13.03zm-39.031,3.875-20.719,16.781,2.9375,7.3438,19.438-15.75-1.6562-8.375zm-39.25,4.0938-18.031,14.594-1.4062,10.844,17.312-14,2.125-11.438zm41.625,7.875-18.906,15.312,2.9062,7.3438l17.62-14.24-1.6562-8.375zm30.719,2.8438-4.3125,3.5,2.1875,3.1875,2.125-6.6875zm-75.375,5.5625-17,13.75-1.4062,10.875,16.281-13.156,2.125-11.469zm47,3.5312-17.094,13.844,2.9062,7.3438,15.844-12.812-1.6562-8.375zm2.375,11.969-15.312,12.375,2.6875,6.7188-1,1.625,15.281-12.375-1.6562-8.3438zm-52.406,0.8125-15.938,12.938-0.8125,6.1875,1.5625,2.9062,13.094-10.594,2.0938-11.438zm54.75,11.125-21.25,17.188-10.594,16.969-4.0625-5.0938-16.938,13.719,3.6562,6.75,53.312-43.156-3.9062-5.3125-0.21875-1.0625zm-56.031,3.7812-12.344,10,3.625,6.7812,13.438-10.875-4.7188-5.9062zm62.062,5.1875-53.688,43.438,2.0312,3.7812-5.4688,8.75,61.594-49.875-4.4688-6.0938zm-55.344,3.25-13.875,11.25,3.625,6.75,14.938-12.094-4.6875-5.9062zm61.75,5.4375-68.781,55.656-4.2812,6.875,1.0938,5.4375,76.438-61.875-4.4688-6.0938zm-55.031,2.9688-15.406,12.5,3.625,6.75,16.469-13.344-4.6875-5.9062zm61.406,5.7188-77.625,62.844,1.6875,8.3438,19.906-16.094-0.0625-0.25,3.8438-3.8438,0.40625,0.6875,21.969-17.781-2.3438-2.9375,14.656-14.656,3.7812,4.5625,18.281-14.781-4.5-6.0938zm6.4062,8.6875-18.125,14.656,4.8438,5.7812,17.75-14.344-4.4688-6.0938zm6.375,8.6875-17.594,14.25,4.8438,5.7812,17.25-13.938-4.5-6.0938zm6.4062,8.6875-17.094,13.844,4.8125,5.7812,16.75-13.562-4.4688-6.0625zm6.375,8.6875-16.594,13.406,4.8438,5.8125,16.219-13.156-4.4688-6.0625zm-53.438,1.6562l-22.38,18.11,3.8438,6.625,14.969-12.125,3.6875-12.406-0.15625-0.1875zm59.844,7-16.094,13.031,4.8125,5.7812,15.75-12.719-4.4688-6.0938zm6.375,8.6875-15.594,12.625,4.8438,5.7812,15.219-12.312-4.4688-6.0938zm-71.375,2.375-11.719,9.5,3.8125,6.5938,4.0938-3.3125,3.8125-12.781zm-22.062,4-20.125,16.281,1.7188,8.3438,20.562-16.656-2.1562-7.9688zm99.844,2.3125-18.219,14.75-4.5938,13.438,22.844-18.5,1.5625-7.5-1.5938-2.1875zm-96.75,9.0312-20.781,16.844,1.6875,8.3438,21.25-17.219-2.1562-7.9688zm13.531,2.9062-0.8125,0.6875,0.40625,0.71875,0.40625-1.4062zm82.219,2.7188-23.781,19.25-4.5938,13.438,25.969-21,2.4062-11.688zm-92.656,5.75-21.469,17.375,1.6875,8.3438,21.938-17.781-2.1562-7.9375zm89.219,10.875-26.906,21.781-4.5625,13.406,29.062-23.562,2.4062-11.625zm-86.125,0.46875-22.156,17.938,1.6875,8.3125,22.625-18.312-2.1562-7.9375zm3.0938,11.344-22.844,18.5,1.6875,8.3125,23.312-18.875-2.1562-7.9375zm79.594,4.8438-30.031,24.312-4.5625,13.375,32.188-26.062,2.4062-11.625zm-76.5,6.5-23.531,19.031,1.7188,8.3438,23.969-19.406-2.1562-7.9688zm73.062,10.156-33.156,26.844-4.5625,13.375,35.312-28.594,2.4062-11.625zm-69.969,1.2188-24.188,19.562,1.6875,8.375,24.656-20-2.1562-7.9375zm3.0938,11.344-24.875,20.125,1.6875,8.375,25.344-20.531-2.1562-7.9688zm63.406,4.0938-36.25,29.344-4.1875,12.281,0.4375,0.4375,37.594-30.438,2.4062-11.625zm-60.312,7.25-25.562,20.688,1.6875,8.3125,26.031-21.062-2.1562-7.9375zm56.875,9.4062-34.25,27.719,5.3438,5.3438,26.5-21.438,2.4062-11.625zm-53.781,1.9688-26.25,21.25,1.6875,8.2812,26.719-21.625-2.1562-7.9062zm3.0938,11.344-26.938,21.812,1.6875,8.3125,27.406-22.188-2.1562-7.9375zm47.25,3.2812-23.156,18.781,5.3438,5.3438,15.406-12.438,2.4062-11.688zm-44.156,8.0938-27.594,22.344,0.65625,3.2812,28.406-20.281-1.4688-5.3438zm40.719,8.5625-12.062,9.7812,5.375,5.375,4.25-3.4688,2.4375-11.688zm-3.4688,16.656-0.9375,0.78125,0.65625,0.65625,0.28125-1.4375z"/>
 </g>
</svg>
