<?xml version="1.0" encoding="UTF-8" standalone="no"?>
<svg
   xmlns:dc="http://purl.org/dc/elements/1.1/"
   xmlns:cc="http://creativecommons.org/ns#"
   xmlns:rdf="http://www.w3.org/1999/02/22-rdf-syntax-ns#"
   xmlns:svg="http://www.w3.org/2000/svg"
   xmlns="http://www.w3.org/2000/svg"
   xmlns:sodipodi="http://sodipodi.sourceforge.net/DTD/sodipodi-0.dtd"
   xmlns:inkscape="http://www.inkscape.org/namespaces/inkscape"
   height="169.10788"
   id="mainmap"
   viewBox="-6148 0 1199.314 1880.6317"
   width="110.4694"
   xml:space="preserve"
   version="1.1"
   inkscape:version="0.91 r13725"
   sodipodi:docname="geography.svg"><metadata
   id="metadata49"><rdf:RDF><cc:Work
       rdf:about=""><dc:format>image/svg+xml</dc:format><dc:type
         rdf:resource="http://purl.org/dc/dcmitype/StillImage" /><dc:title></dc:title></cc:Work></rdf:RDF></metadata><sodipodi:namedview
   pagecolor="#ffffff"
   bordercolor="#666666"
   borderopacity="1"
   objecttolerance="10"
   gridtolerance="10"
   guidetolerance="10"
   inkscape:pageopacity="0"
   inkscape:pageshadow="2"
   inkscape:window-width="640"
   inkscape:window-height="480"
   id="namedview47"
   showgrid="false"
   fit-margin-top="0"
   fit-margin-left="0"
   fit-margin-right="0"
   fit-margin-bottom="0"
   inkscape:zoom="0.66233183"
   inkscape:cx="126.9061"
   inkscape:cy="-9.0541316"
   inkscape:window-x="0"
   inkscape:window-y="0"
   inkscape:window-maximized="0"
   inkscape:current-layer="mainmap" /><defs
   id="defs3">
  

  
 <filter
   filterUnits="objectBoundingBox"
   height="3"
   id="schatten"
   width="3"
   x="-1"
   y="-1">
    <feGaussianBlur
   in="SourceAlpha"
   result="blur"
   stdDeviation="4"
   id="feGaussianBlur6" />
    <feComposite
   in="blur"
   in2="SourceGraphic"
   k1="0"
   k2="0.5"
   k3="0"
   k4="0"
   operator="arithmetic"
   result="surface"
   id="feComposite8" />
    <feOffset
   dx="0"
   dy="0"
   id="offset"
   in="blur"
   result="offsetBlurredAlpha" />
    <feMerge
   id="feMerge11"> 
      <feMergeNode
   in="offsetBlurredAlpha"
   id="feMergeNode13" />
      <feMergeNode
   in="SourceGraphic"
   id="feMergeNode15" />
      </feMerge>
    </filter></defs>
 

 

 


<g
   transform="matrix(0.4403127,0,0,0.47459877,-3475.9621,-15.838509)"
   id="g17"><g
     transform="matrix(0.93091,0,0,0.93091,-2964.1389,-2344.1719)"
     id="g19"
     style="fill:#f0e949"><path
       d="m -2653,4702 c 7,-2 50,-7 51,3 1,1 0,5 -1,6 -3,4 -17,14 -22,15 -7,1 -42,-4 -37,-17 1,-3 6,-6 9,-7 z m -514,-827 -42,-2 -1,-33 -20,-16 1,-16 -21,-29 -21,20 -1,24 -17,16 -14,-14 -26,-4 -10,-11 -20,-10 -17,-38 -2,-17 23,-16 13,8 15,-15 -12,-11 1,-14 11,-1 10,8 23,-9 22,-41 30,-16 c 15,3 12,-2 21,-6 19,-10 25,-2 37,-6 8,-2 16,-5 25,-6 3,0 6,1 10,1 l 2,-3 c 9,1 26,6 34,11 25,16 19,54 26,79 2,6 12,16 13,22 3,12 -13,16 -19,21 l -2,4 c 8,3 28,4 32,6 14,5 11,53 4,63 l -3,0 c -4,-10 2,-24 -10,-28 l -3,1 c -2,4 -10,23 -10,26 1,7 21,4 8,27 -7,4 -25,2 -33,3 -10,7 -14,28 -27,29 -5,0 -28,-11 -30,-7 z m 200,-503 c 7,-5 3,-11 7,-15 7,-8 17,-8 23,-19 4,-6 8,-13 12,-18 2,-3 8,-8 9,-10 l -4,-4 c -4,0 -53,48 -68,53 -9,3 -25,-8 -31,-15 -5,-6 -8,-14 -13,-20 -4,-3 -11,-6 -13,-9 -1,-2 -3,-8 -1,-10 5,-6 34,-3 35,-3 5,-5 13,-5 17,-9 1,-2 3,-8 3,-11 -2,-6 -13,-1 -5,-21 4,-11 16,1 20,-3 7,-5 -9,-22 3,-24 8,-2 5,2 9,4 3,2 9,1 11,-3 4,-7 -11,-12 -12,-17 -1,-8 10,-10 13,-15 2,-4 1,-9 -3,-10 -2,0 -3,1 -4,-1 1,-1 3,-2 5,-3 3,-1 8,-6 8,-10 -2,-12 -22,-6 -29,-12 l 0,-30 3,-1 12,5 1,3 c 4,5 14,0 13,-8 -2,-2 -6,-4 -7,-7 -8,-14 1,-18 0,-23 -1,-3 -4,-4 -5,-7 -2,-4 1,-23 5,-24 11,-4 10,8 11,11 1,3 7,4 10,1 2,-4 -4,-8 -5,-11 -2,-5 0,-14 7,-12 4,1 7,4 8,8 5,0 8,-2 13,-3 7,-2 22,1 26,-4 l 1,-3 c -4,-8 -21,-19 -19,-28 2,-1 11,2 16,-6 5,-7 -10,-23 -6,-29 3,-5 26,3 32,-6 4,-7 2,-17 6,-24 3,-6 11,-8 12,-15 l -2,-2 c -1,-2 -2,-6 -3,-8 -1,-4 10,-20 13,-21 10,-6 20,14 34,17 5,0 13,-1 16,0 4,2 7,10 11,12 4,2 27,1 32,0 2,0 4,-1 7,-1 5,0 9,4 15,4 9,0 18,-6 28,-7 11,0 23,4 34,3 7,-1 8,-15 16,-15 2,0 12,3 14,4 3,2 9,7 10,10 2,8 -9,25 -10,34 0,9 7,12 3,21 -10,8 -25,9 -36,17 -14,9 -23,24 -37,33 -14,9 -41,13 -50,27 -3,5 -3,12 -6,17 -2,2 -5,4 -6,7 l 2,4 c 5,-1 42,-7 35,4 -1,3 -18,15 -21,16 -12,5 -47,-1 -43,15 7,6 28,-6 22,6 0,0 -21,15 -23,16 -2,1 -15,4 -16,5 -1,2 -1,4 -2,5 -1,6 7,5 10,4 10,-2 19,-10 29,-12 8,-2 16,-1 23,-3 3,-1 6,-3 8,-4 7,-4 14,-9 21,-12 11,-4 40,-8 50,-3 4,2 9,8 13,9 32,9 78,10 111,18 16,3 28,20 31,35 1,4 0,12 -1,16 -2,7 -7,16 -13,24 -7,9 -16,18 -21,29 -6,11 -8,25 -12,37 -7,23 -18,43 -40,54 -17,10 -18,53 -50,59 -15,2 -35,-3 -46,-1 -3,1 -15,6 -16,8 6,13 20,2 30,2 14,0 10,11 15,15 6,6 26,6 27,16 1,3 -1,9 -2,11 -10,10 -39,0 -51,5 -12,5 -25,32 -40,33 -8,1 -22,-8 -30,-9 -3,-1 -17,0 -14,5 0,2 12,10 14,11 12,7 45,17 58,12 15,-6 30,-27 48,-21 6,3 6,11 10,16 2,4 11,10 15,13 9,6 36,17 39,27 5,11 10,23 17,32 8,11 18,20 25,31 2,3 4,9 4,13 4,28 2,57 5,85 1,12 7,18 10,28 2,10 2,22 2,32 0,19 8,21 12,36 2,6 1,14 3,20 1,3 4,7 7,8 9,5 25,5 33,12 9,7 20,15 28,23 11,13 10,26 17,40 2,5 7,9 10,13 2,3 3,5 4,8 5,6 13,12 17,18 l 0,6 c -3,5 -9,18 -9,24 -2,19 5,37 15,53 3,5 18,23 19,25 1,3 1,6 -2,7 -15,-4 -29,-11 -44,-15 -12,-3 -25,-5 -37,-7 l -13,0 c 3,2 14,9 17,10 6,2 24,4 30,6 l 8,7 c 6,6 12,11 19,15 13,6 11,16 19,24 1,1 3,2 4,3 9,8 20,50 17,62 -1,5 -12,30 -14,33 -6,7 -25,5 -28,15 -3,9 11,25 20,27 2,2 15,7 17,7 6,-1 17,-24 23,-29 15,-14 36,-2 50,1 8,1 14,-5 21,-3 6,1 19,8 23,13 3,3 16,7 21,10 8,5 21,15 27,22 7,9 13,35 12,46 -3,25 -14,73 -23,96 -4,9 -29,33 -39,37 -3,2 -18,9 -17,13 1,4 8,7 4,12 -1,1 -15,7 -17,7 -10,1 -19,-2 -28,-1 -2,1 -15,6 -16,8 -4,7 14,5 13,13 0,2 -1,3 -2,4 -4,6 -3,15 -7,21 -6,8 -30,4 -40,6 -8,1 -26,10 -34,14 5,4 24,0 33,3 4,1 6,4 10,6 6,3 12,4 17,7 4,3 9,9 14,10 18,4 39,1 58,2 3,0 10,0 11,4 1,3 -9,42 -11,45 -8,12 -32,12 -41,20 -7,6 -12,25 -19,28 -5,2 -21,-4 -25,-7 -21,11 -25,8 -42,14 -12,5 -27,18 -40,19 -9,0 -12,-3 -16,-8 -2,-2 -14,-8 -16,-8 -22,-8 -61,-10 -84,-4 -6,2 -13,7 -19,7 -9,1 -18,-9 -24,-14 -16,-1 -34,-3 -50,-2 -12,1 -31,9 -42,7 -12,-1 -31,-5 -41,6 -3,4 -5,9 -9,13 -3,2 -12,7 -15,7 -13,2 -24,-10 -34,-14 -12,-5 -25,-6 -37,-11 -20,-8 -23,-16 -48,-18 -16,-3 -30,6 -45,8 -5,1 -11,0 -15,1 -3,2 -13,8 -16,11 -12,13 -7,29 -15,43 -2,5 -19,22 -23,24 -3,2 -10,-2 -12,-3 -14,-6 -24,-20 -37,-26 -3,-1 -7,-1 -10,-1 -30,-5 -46,-14 -79,-8 -3,0 -8,3 -10,4 -7,4 -13,9 -19,12 -10,5 -23,7 -32,14 -9,7 -4,29 -17,31 -15,2 -14,-25 -27,-31 -15,-7 -29,8 -37,1 -5,-5 -2,-15 2,-19 2,-2 9,-5 12,-6 11,-3 22,-5 33,-10 12,-5 28,-13 39,-21 2,-2 3,-5 5,-7 8,-9 17,-19 27,-26 6,-4 14,-6 21,-10 9,-5 24,-15 30,-24 5,-8 11,-19 14,-28 2,-4 3,-18 7,-20 6,-5 32,6 40,-6 3,-5 4,-25 6,-29 5,-8 57,-2 67,0 7,0 14,1 21,3 10,2 19,7 28,9 11,3 49,12 57,1 2,-3 3,-13 4,-17 0,-2 0,-5 2,-7 6,-8 34,-27 44,-37 12,-13 23,-29 33,-43 l 0,-3 -4,0 c -4,2 -24,17 -32,22 -6,4 -14,9 -21,11 -11,4 -23,2 -33,6 -20,7 -16,38 -50,27 -48,-15 -38,-47 -56,-58 -8,-5 -46,15 -51,3 -5,-10 9,-15 16,-17 2,-9 -14,-9 -18,-15 -3,-4 -1,-17 -6,-19 -5,-2 -17,5 -22,7 -8,2 -16,1 -23,3 -8,2 -20,12 -23,13 -5,1 -21,-1 -25,-4 -3,-2 -12,-17 -13,-21 -2,-14 14,-16 12,-29 -1,-5 -17,-7 -19,-11 -1,-3 2,-9 4,-11 6,-6 19,-7 26,-11 2,-2 4,-4 6,-5 5,-2 22,-2 29,-4 19,-4 39,-8 58,-16 13,-5 39,-24 47,-36 7,-12 11,-27 11,-41 1,-5 0,-10 1,-15 1,-8 9,-18 6,-26 -2,-5 -15,-26 -19,-28 -4,-3 -18,-3 -23,-2 -4,1 -8,6 -13,7 -2,1 -25,-1 -26,-2 -1,-1 -1,-3 -1,-4 2,-17 42,-27 55,-38 4,-4 7,-13 11,-18 3,-4 11,-10 14,-12 36,-17 68,-15 106,-13 3,0 8,0 11,1 5,3 17,26 25,18 l 1,-16 c -1,-19 6,-13 10,-21 1,-4 4,-20 4,-26 3,-5 7,-11 11,-15 3,-3 16,-11 16,-12 3,-5 -9,-11 -10,-16 -2,-4 -1,-20 0,-24 3,-18 13,-12 19,-19 2,-3 4,-13 6,-17 2,-4 5,-8 7,-12 l 0,-12 c 0,-1 -1,-4 -2,-5 -2,0 -13,-1 -15,-1 -12,2 -26,31 -38,23 -7,-5 1,-22 -1,-30 0,-3 -3,-5 -4,-8 -6,-15 -9,-32 -15,-47 -3,-8 -8,-15 -10,-22 -1,-2 -1,-3 -1,-5 2,-18 17,-31 26,-45 3,-6 5,-12 9,-17 3,-3 10,-8 14,-10 7,-2 38,-1 30,-13 -1,-2 -53,-21 -61,-9 -3,4 -1,12 -4,16 -3,4 -19,5 -24,6 -7,2 -19,10 -26,9 -18,-1 -16,-8 -25,-16 -4,-3 -9,-3 -13,-6 -1,-1 -4,-7 -8,-5 -6,3 -1,22 -2,27 0,2 -5,9 -7,10 -16,7 -28,-35 -51,-34 -22,1 1,46 -21,35 -2,-1 -4,-3 -5,-5 -5,-9 -16,-34 -19,-43 -2,-6 2,-16 6,-22 6,-7 14,-11 19,-18 6,-7 9,-15 14,-22 5,-6 12,-11 17,-18 5,-8 7,-17 12,-24 6,-9 16,-15 22,-24 11,-17 -15,-27 -15,-44 1,-9 5,-31 8,-40 5,-16 18,-12 18,-25 0,-10 -5,-22 -7,-32 -2,-11 -9,-3 -10,3 0,1 1,4 1,6 0,3 0,13 -1,17 -2,6 -7,13 -10,19 -4,1 -9,-1 -10,-2 -4,-5 -2,-16 -11,-15 -6,1 -9,13 -12,14 -4,3 -7,-5 -10,-6 -2,-6 4,-17 3,-21 -1,-7 -18,-5 -19,0 -1,10 3,34 -3,42 -2,4 -21,-2 -25,-4 -1,-1 -4,-5 -4,-7 0,-4 2,-17 4,-21 6,-14 16,-26 23,-40 4,-8 -2,-12 -1,-15 0,-3 6,-19 7,-22 7,-13 15,-26 23,-38 z m 586,-734 c -4,-1 -9,4 -13,5 -11,0 -22,-23 -11,-29 7,-5 12,1 20,-8 1,-4 3,-17 3,-21 -1,-3 -3,-5 -4,-7 -1,-10 7,-22 17,-22 l 3,3 c 3,23 -3,29 19,47 -1,7 -5,13 -6,20 -1,7 1,15 -1,21 -2,6 -8,10 -11,16 -5,13 -6,28 -11,41 -3,6 -5,6 -11,6 -18,-16 25,-46 6,-72 z m -223,211 c 1,1 2,3 2,5 1,3 -1,9 1,12 4,11 30,14 31,21 1,10 -11,10 -17,7 -2,-1 -4,-6 -6,-7 -6,-2 -20,1 -25,-2 -2,-2 -2,-12 -4,-14 -3,-2 -13,0 -14,-4 0,-7 5,-19 11,-22 3,-2 17,-1 19,1 1,0 2,2 2,3 z m -388,127 c 3,1 6,2 8,2 2,0 7,0 8,1 4,3 -2,9 -4,10 -5,1 -25,-2 -26,0 -4,4 -1,7 -3,11 -1,2 -4,4 -5,6 -2,4 -2,11 -4,14 -3,3 -9,3 -12,6 -4,3 -2,9 -10,8 -2,-1 -6,-6 -8,-7 -11,-3 -10,14 -15,19 -2,2 -9,4 -12,6 -9,6 -6,11 -19,10 -2,-1 -4,-1 -5,-2 -1,-1 -3,-2 -3,-4 -4,-11 18,-13 15,-25 -2,-7 -8,-11 -9,-19 -1,-1 4,-33 5,-36 2,-5 11,-9 16,-7 5,2 9,14 22,12 1,0 5,-4 6,-5 1,-1 0,-17 2,-22 2,-4 22,-6 28,-8 11,-6 20,-16 30,-23 3,0 7,1 8,4 1,4 2,21 1,25 -1,5 -13,17 -13,18 -1,2 -2,4 -1,6 z m -13,233 c -1,-1 -4,-3 -5,-3 -2,1 -5,7 -7,7 -4,1 -16,-3 -20,-4 -9,-3 -13,-15 -15,-24 -1,-4 2,-13 1,-16 -1,-3 -8,-10 -10,-12 -7,-3 -20,8 -22,-16 0,-1 1,-3 1,-4 4,-5 11,-2 16,-3 2,0 6,-3 8,-3 8,0 17,7 24,4 7,-13 -5,-16 1,-27 1,-2 7,-7 10,-5 1,2 6,11 6,13 1,12 -4,24 -3,36 0,3 4,14 6,17 2,3 7,6 9,8 4,5 8,11 13,14 2,2 7,2 9,4 1,1 2,4 2,6 0,3 -2,14 -3,18 -2,3 -22,26 -25,27 -1,1 -7,-3 -7,-5 -1,-3 6,-7 8,-10 5,-5 4,-15 3,-22 z m -12,158 c 3,1 9,8 9,11 1,2 -1,10 -2,12 0,1 -3,3 -4,3 -4,1 -17,-1 -21,0 -6,1 -24,9 -30,10 -3,0 -13,-1 -16,-3 -1,0 -2,-4 -2,-5 1,-2 4,-5 5,-6 4,-2 17,-6 21,-8 2,-1 5,-5 5,-6 1,-1 0,-5 -1,-6 -2,-3 -11,-11 -13,-14 -1,-2 -4,-7 -4,-8 -1,-1 0,-4 0,-5 0,-1 3,-6 4,-7 1,-1 6,-3 7,-4 1,0 2,-3 3,-3 1,0 3,1 4,1 l 4,4 c 2,4 8,17 11,21 3,3 17,10 20,13 z m 12,184 c -4,9 -9,18 -13,28 -5,9 -8,27 -13,35 -4,5 -25,11 -29,6 -1,-1 -2,-6 -2,-7 0,-2 1,-6 1,-7 4,-7 10,-13 14,-20 10,-19 10,-33 26,-49 2,-2 5,-5 7,-6 3,0 16,-3 17,0 2,4 -6,16 -8,20 z m -98,-3 c -6,4 -10,-4 -10,-9 l 4,-8 3,-9 c 1,-2 2,-10 2,-12 -1,-2 -4,-4 -5,-4 -6,0 -7,10 -10,13 -1,1 -8,3 -9,1 -3,-2 10,-27 13,-30 3,-2 22,-10 25,-7 3,2 2,15 3,20 3,9 16,24 6,32 -4,4 -13,5 -18,8 -2,1 -3,3 -4,5 z m 185,300 c 0,4 -1,13 -2,17 -7,17 -28,47 -47,49 l -4,0 c -2,-1 -10,-8 -11,-10 -1,-2 0,-10 1,-12 3,-6 19,-16 24,-21 5,-5 8,-12 13,-16 5,-5 19,-15 26,-7 z m -48,266 c -1,1 -4,0 -5,-1 -2,-2 -12,-15 -13,-18 -2,-8 3,-31 8,-38 2,-2 8,-4 10,-5 3,0 10,-1 12,1 4,3 8,16 12,20 4,4 10,6 15,10 l -1,3 -6,3 c -4,3 -31,23 -32,25 z"
       id="path21"
       inkscape:connector-curvature="0"
       style="fill:#f0e949;stroke:#999999;stroke-width:4" /></g><g
     transform="matrix(0.93091,0,0,0.93091,-2964.1389,-2344.1719)"
     id="g23"
     style="fill:#f08349"><path
       d="m -1870,4602 c -2,0 -18,-6 -23,-5 -3,0 -8,5 -12,6 -2,0 -8,-1 -10,-2 -2,0 -4,-3 -6,-4 -9,-4 -20,-5 -28,-9 -7,-4 -12,-15 -2,-20 9,-4 31,-9 39,-1 2,2 3,10 6,12 6,5 20,2 29,10 2,2 5,6 6,8 0,0 2,4 1,5 z m 212,149 c 0,-14 1,-66 11,-74 l 1,-8 -21,-10 -3,-8 -7,-13 -34,9 -8,-1 -18,-24 -31,-8 -8,-10 -21,4 -13,-6 -20,2 2,40 -16,-3 -63,15 -19,-15 -19,-6 -10,4 -10,-2 -7,-9 -14,-18 c 5,0 40,-6 45,-3 2,1 3,4 5,6 3,2 19,8 23,9 10,3 18,-10 30,-9 19,2 20,33 40,27 1,-1 3,-3 3,-5 0,-2 -6,-18 -7,-21 -1,-2 -5,-7 -5,-9 1,-4 10,-6 6,-12 -4,-9 -29,-13 -34,-18 0,0 -1,-3 -1,-4 2,-2 10,-1 12,-1 10,-3 45,-19 53,-24 1,-1 1,-3 2,-4 -2,-3 -5,-7 -7,-8 -9,-6 -46,-17 -51,-22 -4,-3 -1,-26 -1,-31 8,-4 20,-7 27,-12 6,-4 32,-52 37,-62 2,-3 3,-6 6,-8 4,-8 7,-17 9,-26 4,-14 17,-85 20,-91 2,-5 9,6 17,5 3,-1 13,-8 16,-7 4,2 -2,16 7,23 3,3 9,3 13,6 3,2 10,9 11,12 1,3 0,13 -2,15 -6,6 -21,9 -28,14 -4,4 -6,18 -5,24 0,4 5,14 5,18 -1,6 -7,11 -9,16 -1,1 0,3 0,5 0,3 9,12 12,14 6,2 25,8 31,9 4,1 17,0 21,-1 2,-1 10,-4 12,-5 4,-4 13,-17 16,-20 4,-4 16,-14 19,-18 1,-3 4,-11 4,-14 2,-3 5,-12 5,-15 0,-2 -4,-8 -6,-10 -3,-7 -17,-10 -20,-17 -2,-6 0,-28 1,-34 -7,-9 -27,-4 -34,-11 -6,-7 2,-26 -5,-36 -2,-2 -2,-5 -1,-7 1,-3 14,-20 17,-23 9,-9 43,-34 54,-39 4,-2 15,-5 19,-5 9,0 21,4 30,6 12,-6 28,-15 42,-16 4,0 24,1 27,2 5,2 11,20 15,26 3,3 21,16 25,17 1,1 5,1 7,1 l 7,55 -10,22 -19,62 -33,-7 -7,41 43,9 -4,38 -4,10 -27,22 -6,10 14,13 -8,23 -20,-3 -16,7 -17,7 -34,-13 -25,24 15,3 23,81 -12,42 2,19 -23,16 -6,16 20,8 -12,40 -41,-11 z m -46,-372 c 4,-4 26,-16 32,-18 2,-1 8,1 10,2 6,3 7,12 4,18 -2,3 -15,17 -18,20 -11,8 -41,7 -37,-9 1,-3 6,-12 9,-13 z"
       id="path25"
       inkscape:connector-curvature="0"
       style="fill:#f08349;stroke:#999999;stroke-width:4" /></g><g
     transform="matrix(0.93091,0,0,0.93091,-2964.1389,-2344.1719)"
     id="g27"
     style="fill:#60f049"><path
       d="m -1554,4991 2,-18 -28,-8 -16,-16 -10,-22 3,-30 -15,-6 -3,-1 -10,8 -32,68 22,35 -13,23 23,23 39,-12 12,2 9,-18 c 5,-10 10,-20 17,-28 z"
       id="path29"
       inkscape:connector-curvature="0"
       style="fill:#60f049;stroke:#999999;stroke-width:4" /></g><g
     transform="matrix(0.93091,0,0,0.93091,-2964.1389,-2344.1719)"
     id="g31"
     style="fill:#49c6f0"><path
       d="m -1225,6676 c 3,-2 11,-15 11,-18 1,-8 -19,-21 -20,-22 -1,-2 0,-14 1,-17 1,-3 7,-6 7,-9 0,-6 -13,-12 -8,-24 4,-8 13,-15 19,-23 2,-4 4,-9 7,-13 2,-2 6,-3 8,-4 14,-10 27,-22 43,-29 9,-4 18,5 27,5 3,0 12,-5 13,-7 2,-9 -7,-72 15,-58 2,1 5,4 6,6 12,27 1,49 3,76 1,8 7,26 10,34 1,3 3,6 4,8 2,17 3,41 3,58 0,24 -19,33 -22,54 -2,14 -2,29 -4,43 -2,17 -5,36 -10,51 -2,5 -16,18 -20,20 -16,8 -19,-15 -20,-17 -4,-3 -18,-5 -23,-8 -6,-4 -10,-9 -17,-12 0,0 -4,-4 -4,-5 -4,-16 18,-10 15,-24 -7,-8 -25,-4 -33,-9 -2,-1 -2,-6 -2,-8 1,-6 8,-7 10,-12 2,-5 3,-20 -1,-24 -5,-1 -14,1 -18,-3 -1,-2 0,-6 0,-9 z m -339,-1083 -2,39 -36,20 -22,43 6,23 -8,26 -16,8 1,15 22,5 26,-19 -7,-17 -3,-7 13,-18 35,-9 20,0 18,6 -1,5 -3,15 12,20 -10,19 16,13 4,13 14,14 0,19 -33,33 26,27 -2,23 10,11 14,14 -3,32 -37,27 -35,-1 5,25 22,38 27,5 6,35 -24,32 6,45 13,18 60,26 49,-12 4,11 1,14 -28,36 0,23 c -7,-1 -11,1 -13,4 l -8,-6 -9,8 3,14 c -7,2 -27,-7 -30,-4 -1,1 -7,25 -8,29 -5,3 -11,-2 -16,-1 -11,2 -12,14 -17,21 -6,8 -21,4 -28,10 -5,4 -6,14 -10,18 -2,2 -9,6 -9,8 -1,3 4,7 4,10 0,3 -4,14 -5,17 -7,1 -14,-4 -21,-3 -14,3 -20,16 -23,18 -6,3 -12,-10 -24,-4 -3,2 -8,12 -12,13 -1,0 -25,-11 -33,-10 -4,1 -8,7 -11,7 -8,1 -10,-8 -11,-10 -2,-1 -12,-3 -14,-5 -2,-2 -2,-8 -5,-9 -8,-4 -36,-1 -43,-4 -7,-3 6,-19 -5,-33 l -3,-3 c -2,0 -33,0 -35,1 -2,0 -5,2 -7,2 -1,0 -13,-8 -13,-8 1,-2 36,-11 38,-13 7,-7 -24,-27 -33,-27 -9,-1 -3,19 -6,23 -3,3 -11,2 -14,3 -25,9 -1,26 -48,8 0,-3 2,-14 -1,-16 -5,-3 -41,1 -57,-5 -19,-1 -13,-32 -40,-27 -31,6 -57,54 -77,64 -5,2 -15,-4 -21,-3 -3,0 -12,5 -15,8 -7,9 -46,68 -48,77 3,6 12,13 13,18 1,8 -8,29 -8,39 1,8 12,30 16,38 l -42,-8 -23,11 -10,19 -62,-27 -36,14 -21,-22 -32,-11 4,-22 0,-4 -33,-14 -15,14 -12,-30 -28,-4 -16,-11 -49,-19 -12,-2 -7,28 -5,-1 -35,-5 -13,9 -16,-8 -49,-5 -22,-24 -54,-4 -21,-19 -5,-15 -2,-7 -43,-6 -35,-23 -29,-1 16,-47 -49,-11 -7,-3 -13,-14 c 10,-3 22,-7 30,-14 2,-2 3,-5 6,-7 3,-3 12,-5 15,-9 5,-8 16,-41 20,-51 14,-49 22,-99 41,-147 3,-6 14,-29 18,-33 4,-3 15,-1 14,-7 0,-3 -7,-21 -11,-19 -11,3 -7,8 -11,15 -1,2 -6,7 -8,7 -3,-1 1,-27 2,-31 7,-42 15,-84 30,-124 1,-4 11,-25 13,-27 1,-1 6,-2 7,-1 2,1 6,13 8,16 6,7 16,13 21,21 11,18 5,56 19,74 3,5 8,8 12,11 3,3 9,6 13,6 -2,-12 -12,-23 -15,-34 -4,-11 -4,-23 -7,-34 -1,-1 -2,-12 -2,-14 -1,-31 -15,-55 -41,-71 -8,-5 -21,-6 -27,-13 -4,-14 0,-12 3,-23 -4,-4 -2,-11 -4,-16 -3,-5 -11,-9 -14,-15 -1,-3 -4,-21 -3,-25 0,-4 6,-4 9,-3 19,12 15,28 20,35 2,2 8,3 10,3 l 3,-1 c 3,-11 -2,-17 -1,-26 0,-5 5,-11 5,-15 0,-10 -15,-12 -15,-20 0,-7 19,-16 17,-26 -1,-6 -9,-6 -14,-5 l -3,0 c -5,-4 -9,-10 -15,-13 -5,-2 -18,-3 -22,-6 -3,-2 -5,-11 -8,-14 -4,-4 -18,-13 -23,-15 -3,-2 -11,-3 -13,-5 -13,-10 -5,-37 -16,-52 -6,-6 -22,-17 -25,-23 -6,-13 29,-42 32,-54 2,-6 -27,-7 -33,-13 2,-7 7,-6 9,-11 3,-6 -4,-19 9,-19 4,1 9,2 13,3 4,1 23,11 24,3 1,-4 -7,-12 -10,-14 -3,-1 -7,-3 -10,-4 -12,-3 -16,-5 -27,1 -4,2 -12,9 -16,9 -3,1 -10,-3 -12,-4 -6,-5 -24,-20 -17,-29 2,-2 20,-1 11,-12 1,-2 1,-9 0,-12 -3,-7 -38,-6 -45,-4 -1,0 -3,1 -4,1 -2,1 -13,-2 -14,-4 -1,-2 5,-7 6,-7 4,-2 16,-2 18,-4 2,-2 2,-9 1,-11 -4,-15 -25,3 -33,3 -4,0 -21,-4 -25,-6 -7,-3 -5,-9 -9,-13 -2,-2 -10,-4 -13,-7 -5,-3 -8,-10 -13,-14 -2,-1 -5,-1 -7,-2 -9,-5 -17,-12 -27,-16 -9,-4 -19,-5 -28,-8 -10,-4 -12,-15 -18,-18 -4,-2 -28,-7 -32,-7 -11,0 2,26 -23,15 -11,-5 5,-19 2,-28 -1,-3 -12,-4 -14,-6 -7,-5 -14,-13 -19,-20 -1,-1 -4,-6 -4,-7 -1,0 -2,0 -3,-1 l 0,-3 c 1,-1 4,-4 6,-4 10,0 46,12 52,10 5,-1 7,-10 7,-15 -1,-2 -3,-5 -4,-7 -5,-5 -24,-11 -31,-11 -3,0 -2,3 -8,1 -2,-3 -1,-12 1,-15 4,-2 37,5 45,6 4,-2 3,-2 4,-6 -7,-12 -9,-9 -19,-13 1,-5 3,-8 5,-12 -23,-4 -30,4 -43,5 -3,0 -15,-4 -18,-5 -7,-6 6,-29 11,-33 13,-12 19,-6 33,-10 8,-3 16,-10 24,-11 5,-1 13,3 19,3 8,-1 16,-8 27,-3 7,3 13,17 22,13 4,-1 13,-12 17,-11 1,0 17,12 25,13 1,0 3,-2 4,-3 12,-12 0,-22 8,-28 8,-6 15,3 22,3 4,0 10,-5 14,-5 9,-1 7,7 10,8 4,2 17,2 21,3 9,4 7,15 10,22 2,5 7,8 9,13 8,14 8,33 24,42 14,7 16,-19 34,-26 3,-1 19,-4 21,-3 1,1 0,4 1,6 0,1 3,5 5,6 3,2 15,8 19,8 12,-3 22,-17 32,-20 9,-2 8,16 13,20 7,5 34,9 43,11 2,0 8,-1 10,-2 2,-1 7,-8 7,-9 2,-7 -13,-11 -16,-15 -2,-3 -3,-11 -2,-14 2,-15 10,-29 11,-43 1,-9 -3,-19 -3,-28 -1,-7 3,-21 2,-27 -1,-4 -10,-12 -12,-16 -2,-6 -3,-21 -6,-25 -3,-5 -11,-2 -14,-11 -8,-22 2,-28 1,-45 0,-6 -6,-10 -4,-17 2,-2 4,-4 7,-3 2,1 7,8 9,9 8,8 22,16 34,15 9,0 17,-8 26,-9 3,-1 18,1 20,3 2,0 3,3 4,4 2,10 -11,13 -15,20 -6,10 8,20 11,29 1,3 2,18 2,19 8,10 17,-1 25,0 16,2 32,11 48,14 11,3 24,1 35,4 13,4 23,20 38,16 8,-2 17,-10 24,-13 9,-5 19,-9 29,-14 4,0 14,-3 6,-8 -2,-1 -8,0 -11,-1 -14,-7 -13,-25 -3,-35 20,-22 65,-39 93,-47 4,-1 8,-1 12,-2 15,-4 32,-9 46,-15 13,-7 26,-17 38,-26 2,-4 11,-20 15,-22 3,-2 13,5 15,2 4,-6 -13,-14 -2,-33 1,-3 6,-14 6,-16 0,-3 -3,-5 -3,-7 -1,-4 4,-19 4,-25 1,-16 -9,-52 2,-65 2,-2 16,-13 19,-15 9,-5 94,-24 111,-27 l 11,27 -2,34 41,35 6,-11 24,-9 16,62 37,14 18,35 14,-5 29,2 18,20 6,17 1,40 35,8 16,3 16,-14 c 2,-12 9,-19 16,-28 l 8,-2 4,6 -8,36 6,35 21,8 33,16 15,17 10,11 5,11 46,-5 23,23 39,-12 12,2 31,15 6,12 15,38 20,11 13,-16 32,29 40,-12 9,-3 20,21 23,6 15,-4 42,23 c -8,10 -14,23 -22,33 -9,10 -21,19 -30,30 -4,6 -13,34 -14,42 -1,10 5,21 1,32 -5,15 -16,28 -19,45 -3,11 -3,24 -3,36 0,5 1,10 1,15 -2,13 -8,27 -8,41 -1,7 12,21 11,25 l -26,31 -26,-2 -11,-20 -27,13 -7,15 19,13 -11,19 c -20,12 -36,31 -50,48 -3,4 -4,8 -8,11 -6,4 -14,6 -20,9 z"
       id="path33"
       inkscape:connector-curvature="0"
       style="fill:#49c6f0;stroke:#999999;stroke-width:4" /></g><g
     transform="matrix(0.93091,0,0,0.93091,-2964.1389,-2344.1719)"
     id="g35"
     style="fill:#f04993"><path
       d="m -556,4022 c -3,-7 -11,-15 -19,-18 -3,-1 -10,0 -12,-1 -2,-1 -8,-16 -7,-17 3,-3 12,2 14,4 5,3 11,5 16,8 3,2 25,24 29,28 4,5 8,11 10,17 -1,1 -9,5 -10,6 -1,0 -6,-1 -8,-1 -3,-1 -27,-2 -28,-3 -2,0 -2,-4 -3,-6 -2,-3 -7,-8 -6,-12 1,-1 4,-4 4,-5 6,-1 12,4 18,3 l 2,-3 z m -83,-76 c -11,-4 -22,19 -32,13 -2,-1 -9,-8 -11,-10 -1,-2 -2,-5 -3,-7 -3,-7 -8,-12 -11,-19 -1,-3 -1,-13 2,-16 2,-3 9,-6 11,-10 3,-7 -3,-16 7,-20 25,-10 8,11 23,16 5,1 19,-3 20,0 1,4 -3,22 -1,27 2,6 12,13 15,18 1,2 0,8 -1,10 -5,6 -16,5 -19,-2 z m -367,1564 -35,-45 -20,-6 -7,-9 -17,7 -15,5 -36,-17 -22,-5 -45,-8 c -4,-1 -10,-2 -13,-3 l -28,-21 -21,11 -10,11 16,10 5,6 c -1,2 -3,6 -6,6 -7,1 -18,-2 -25,-3 -6,0 -15,1 -21,1 -5,0 -13,0 -17,1 -7,2 -17,10 -24,11 -12,2 -33,0 -45,-2 -2,0 -4,-3 -5,-4 1,-4 -12,-18 -11,-25 0,-14 6,-28 8,-41 0,-5 -1,-10 -1,-15 0,-12 0,-25 3,-36 3,-17 14,-30 19,-45 4,-11 -2,-22 -1,-32 1,-8 10,-36 14,-42 9,-11 21,-20 30,-30 8,-10 14,-23 22,-33 l -42,-23 -15,4 -23,-6 -20,-21 -9,3 -40,12 -32,-29 -13,16 -20,-11 -15,-38 -6,-12 -31,-15 9,-18 c 5,-10 10,-20 17,-28 l 2,-18 -28,-8 -16,-16 -10,-22 3,-30 8,-19 9,-7 17,-7 4,-11 -3,-10 -3,-13 -22,-8 -6,-13 17,-9 -12,-17 -14,-7 -9,-14 12,-40 -20,-8 6,-16 23,-16 -2,-19 12,-42 -23,-81 -15,-3 25,-24 34,13 17,-7 16,-7 20,3 8,-23 -14,-13 6,-10 27,-22 4,-10 4,-38 -43,-9 7,-41 33,7 19,-62 10,-22 -7,-55 3,0 c 6,-4 11,-7 13,-16 -4,-9 -25,-13 -27,-23 0,-8 5,-8 7,-11 4,-8 3,-25 10,-31 6,-5 21,-12 30,-14 13,-2 68,-9 77,-1 15,16 3,44 10,53 7,2 25,10 30,2 1,-2 3,-9 3,-11 0,-8 -5,-12 -4,-21 4,-6 19,-3 23,2 2,0 5,1 7,0 1,-1 1,-6 1,-7 0,-4 -4,-8 -4,-12 -1,-10 13,-43 23,-44 7,0 14,3 21,3 16,2 28,0 44,6 11,5 17,25 28,31 5,4 21,6 28,7 4,-4 6,-11 3,-15 -1,-1 -3,-2 -5,-3 -8,-7 -43,-45 -51,-47 -12,-4 -25,-2 -36,-6 -3,-1 -8,-5 -9,-8 0,-2 2,-8 4,-9 1,-2 8,-1 10,-2 1,-2 2,-9 1,-11 -2,-16 -18,-2 -29,-22 l 1,-5 c 2,-3 11,-3 15,-5 7,-4 13,-16 1,-19 -11,-2 -18,9 -27,8 -22,-18 27,-30 33,-39 2,-2 4,-11 4,-13 -1,-17 -14,-19 -23,-29 -14,-16 -18,-38 -21,-58 l 49,8 32,16 24,-5 c 5,0 20,1 24,3 6,2 8,7 13,10 7,3 10,-6 15,-3 1,0 11,11 11,12 2,7 -8,10 -11,12 -1,1 -2,3 -3,4 -2,2 -5,1 -3,5 5,2 19,-3 21,0 1,1 0,7 -1,9 -3,9 -23,16 -21,22 1,3 21,10 24,8 6,-2 6,-11 15,-6 8,4 5,17 14,15 4,-1 4,-14 17,-8 7,3 34,26 39,25 2,-1 3,-3 5,-4 5,-3 10,-2 15,-5 4,-2 11,-11 14,-12 3,-1 6,1 7,0 2,-1 2,-1 3,-2 2,4 5,18 4,21 0,7 -8,27 -11,33 -4,7 -21,24 -20,32 1,4 6,9 11,11 63,-23 50,5 72,6 1,0 5,-3 6,-4 3,-4 3,-10 6,-14 8,-15 19,-32 36,-39 2,-1 5,0 8,0 2,-1 3,-3 5,-3 6,-1 12,1 18,-1 12,-4 41,-55 52,-65 2,-2 10,-5 13,-6 3,0 6,1 9,1 3,0 36,-4 25,7 -8,8 -27,1 -33,7 l 1,7 c 1,1 4,3 6,3 2,0 9,-3 12,-3 6,-1 26,-1 30,1 1,0 15,21 25,26 8,3 50,17 57,17 4,1 6,-6 11,0 1,1 2,5 3,7 1,3 4,6 5,9 4,10 5,21 10,30 2,3 18,26 20,27 l 4,2 c 1,1 32,5 36,6 l 0,13 22,73 6,20 -6,42 c -7,10 -21,15 -22,28 0,3 2,5 3,8 1,4 0,8 1,12 5,12 64,30 69,47 7,19 -6,42 0,61 3,9 19,13 23,20 4,8 -8,20 5,25 l -12,68 21,32 -2,18 35,25 12,61 -17,60 -4,13 -11,5 -18,-13 2,-21 -28,-10 -14,4 -9,10 17,19 -60,31 -11,21 -33,5 -9,16 -21,-1 -9,22 -29,7 -18,23 -40,2 -30,21 -10,18 -29,-19 2,22 10,21 8,9 38,44 -14,38 43,74 39,4 41,39 11,10 26,17 46,21 17,18 -3,31 -9,31 c -15,-7 -27,-10 -44,-14 -1,18 1,40 -15,52 -6,5 -15,6 -22,10 -14,7 -21,14 -36,20 l -11,21 0,17 11,15 29,34 -10,26 22,2 -5,37 -11,16 -20,-9 -14,-25 -27,5 -7,1 -10,-14 -39,2 c -2,6 -7,16 -10,22 l -54,7 -34,17 -23,23 -52,11 -21,-28 -18,-2 -14,-8 -11,1 -13,6 -3,26 -33,25 z"
       id="path37"
       inkscape:connector-curvature="0"
       style="fill:#f04993;stroke:#999999;stroke-width:4" /></g><g
     transform="matrix(0.93091,0,0,0.93091,-2964.1389,-2344.1719)"
     id="g39"><path
       d="m -1658,4751 41,11 9,14 14,7 12,17 -17,9 6,13 22,8 3,13 3,10 -2,9 -2,2 -17,7 -9,7 -8,19 -15,-6 -3,-1 -10,8 -32,68 22,35 -13,23 -46,5 -5,-11 -10,-11 -15,-17 -33,-16 -21,-8 -6,-35 8,-36 -4,-6 -8,2 c -7,9 -14,16 -16,28 l -16,14 -16,-3 -35,-8 -1,-40 -6,-17 -18,-20 -29,-2 -14,5 -18,-35 -37,-14 -16,-62 -24,9 -6,11 -41,-35 2,-34 -11,-27 c 5,-2 40,-15 42,-17 18,-13 47,-24 68,-34 l 14,18 7,9 10,2 10,-4 19,6 19,15 63,-15 16,3 -2,-40 20,-2 13,6 21,-4 8,10 31,8 18,24 8,1 34,-9 7,13 3,8 21,10 -1,8 c -10,8 -11,60 -11,74 z"
       id="path41"
       inkscape:connector-curvature="0"
       style="fill:#fff500;fill-opacity:0.15;stroke:#999999;stroke-width:4" /></g><g
     transform="matrix(0.93091,0,0,0.93091,-2964.1389,-2344.1719)"
     id="g43"><path
       d="m -2337,6531 4,-22 0,-4 -33,-14 -15,14 -1,29 9,2 29,-7 7,2 z"
       id="path45"
       inkscape:connector-curvature="0"
       style="fill:#e77845;fill-opacity:0.15;stroke:#999999;stroke-width:4" /></g></g></svg>