<?xml version="1.0" encoding="UTF-8" standalone="no"?>
<svg viewBox="0 0 679.6311 355.5228" xmlns="http://www.w3.org/2000/svg">
<defs>
<radialGradient cx="589.26849" cy="39.88162" gradientTransform="matrix(-1.40857,.27871,-.10488,-.53007,1208.6403,72.23664)" gradientUnits="userSpaceOnUse" id="radialGradient28003" r="238.92744">
<stop offset="0" stop-color="#8a0"/>
<stop offset="1" stop-color="#8a0" stop-opacity="0"/>
</radialGradient>
</defs>
<title>Paris</title>
<g transform="translate(-13.92199,-14.4663)">
<path d="m13.92199,14.4663h679.6311v355.5228h-679.6311z" fill="url(#radialGradient28003)"/>
<path d="m509.99272,158.92183c-3.51912,13.67351-3.44086,27.89611-4.50922,41.88742-.59547,10.3172-1.32464,20.64133-1.17889,30.98241-2.80915,4.46545-8.102,6.44169-12.89091,8.03544-4.18192,1.95369-4.98655-2.38487-3.51141-5.34255 2.1747-10.59917 2.79253-21.47114 2.71295-32.27233-.21351-10.5717-1.78865-21.23489-5.78757-31.07464 .56303-4.21835 4.90248-6.24789 8.06808-8.38023 4.72989-2.64368 9.97843-5.43571 15.55308-4.94198 .62467.15924 1.24637.4998 1.54389,1.10646z" fill="#fff" stroke="#000" stroke-linecap="round" stroke-linejoin="round" stroke-width="3"/>
<path d="m376.23006,143.63376c-2.50377,21.44598-.98898,43.20007-4.62052,64.54381-3.79561,30.91978-9.33709,61.58634-14.77442,92.24919-3.36525,5.9399-10.98213,11.01138-17.91711,8.64056 15.66332-40.78876 21.22917-88.66467 17.57592-128.51233-.7576-8.14489-3.02688-16.13031-4.82811-23.99313 1.15746-7.92847 10.03783-10.2733 16.36712-12.84117 2.45956-1.20084 5.93522-2.29443 8.19712-.0869z" fill="#fff" stroke="#000" stroke-linecap="round" stroke-linejoin="round" stroke-width="3"/>
<path d="m398.29509,152.33572c-6.71728.10757-23.69811,13.69547-20.53125,17.90625 10.35369-2.58869 21.80598-2.82618 32.28125-.84375 2.5508.48273 5.01293,1.24434 7.53125,1.875 4.40656,1.98459 10.48902,4.41712 11.21875,10.09375 .87087,6.77454-5.73527,13.33366-9.40625,17.875-10.27063,8.99842-9.74537,9.36407-22.375,16.59375-1.01322.58-2.2511.61998-3.34375,1.03125-4.60959,1.73503-9.10051,3.78117-13.75,5.40625-5.463,1.90942-7.97477,2.66491-10.65625,3.21875-2.97212-.9097-5.79303-1.61326-6.65625-1.3125-.15891.0554-.31002.13152-.46875.1875 .68359.22252.67307.96529-.84375,2.5-.18645.0306-.27431.0303-.46875.0625-1.18576-.13605-2.48347.10389-3.5625-.40625-.15411-.0729-.21965-.15484-.25-.25-7.54785,3.01075-14.84048,6.68732-21.75,10.9375-1.18441.72855-1.38789,3.03717-.5625,4.15625 1.77028,2.40016 7.7728-4.8711 9.71875-3.875-.50303.44702-.99011.92475-1.4375,1.4375-1.81369,2.07868 5.49264-.7104 8.25-.625 3.57348.11064 7.1039.784 10.65625,1.1875 22.03511,5.31477 42.38583,15.90449 61.34375,28.125 2.97152,1.91548 5.80784,3.99362 8.71875,6 2.72288,2.07489 6.16809,4.35168 8.65625,7.0625-.20165.69505-.19257,1.31399.125,1.84375l.875-.53125c.18771.61402.0892,1.6644.53125,1.40625 8.05858-4.70602 15.50855-10.44498 23.25-15.65625-.94581-1.57776-3.86555-1.3162-7.375-.0625-3.70823-.99327-7.33947-2.69137-10.75-4.03125-10.3173-4.73885-12.09658-5.36872-22.53125-10.96875-15.49412-8.31532-30.4535-17.78282-46.875-24.25-.0511-.0174-.77684-.29606-1.25-.46875 2.36446-.93458 4.71978-1.87927 7-3 10.25413-5.03994 29.28224-15.33997 40.03125-22.90625 4.37786-3.0816 8.41685-6.59665 12.625-9.90625 5.01214-5.21388 16.0786-14.20225 14-23.15625-1.38978-5.98679-10.45848-8.03489-15.03125-9.875-2.62678-.63094-5.22987-1.35727-7.875-1.90625-8.87832-1.84265-17.95144-2.67048-26.90625-4.03125-.45241-.60154-1.19664-.85912-2.15625-.84375zm-41.28125,73.9375c1.69451-.67592 3.4072-1.30044 5.125-1.90625-1.37174-.44652-5.39015,1.07496-5.125,1.90625z" fill="#fff" stroke="#000" stroke-linecap="round" stroke-linejoin="round" stroke-width="3"/>
<path d="m549.77651,212.77601c-7.84017-3.23721-17.35689-3.09825-24.9864.74165 7.00457-3.88628 14.62564-7.56856 20.88733-12.16297-5.36591,2.59386-10.42174,8.62285-7.05875,14.7833 3.53316,8.65737 9.99042,15.72843 15.34395,23.30342 9.13688,11.66727 18.3376,23.32541 26.67289,35.5806 4.52981,6.95632 6.93371,16.87499 1.09425,23.81717-5.29167,6.0631-9.95286,6.74273-19.79522,13.11486-5.15375,4.21281-11.43449,6.45927-18.11521,6.1724-11.35888.33153-19.21754-9.40943-25.86073-17.30133-9.75078-11.91702-20.42407-23.1282-32.76426-32.40471-9.2373-7.55493-19.22712-14.28338-30.1968-19.06423 .58723-5.68406 7.51918-8.58552 12.23763-10.8507 7.00337-2.07094 10.13369,7.79995 15.7513,10.64695 18.59428,15.93184 38.8531,29.75804 58.05348,44.92824 7.68049,5.6296 17.17297,11.60053 27.08702,8.58236 3.8359-.61481-13.03483,6.31541-15.13633,7.84378 7.80321-2.90037 12.56002-8.93901 10.68455-17.22983-2.98923-15.73476-14.92093-27.49205-25.08912-39.07623-7.83604-8.97166-17.90659-16.36973-23.30724-27.22321-4.0882-7.22876 2.42836-14.3068 8.36328-17.77002 7.13285-4.59482 14.93907-8.18686 22.74008-11.37728 8.46632-2.07223 17.36303-1.32204 26.00803-1.04514 2.84046,5.76748-8.04746,11.38206-12.81918,14.45416-2.85812,1.19008-6.90601,3.9086-9.79455,1.53676z" fill="#ed2939" stroke="#000" stroke-linecap="round" stroke-linejoin="round" stroke-width="3"/>
<g transform="translate(5.01696,2.55045)">
<path d="m178.6518,140.66027c-.28213,1.06117-.61232,2.11072-.8464,3.18352-.50717,2.32446-2.50837,13.45317-2.71029,14.52475-2.62176,13.91362-5.42218,27.79224-8.06193,41.7027-3.57652,17.08839-7.12847,34.1881-11.25088,51.15575-4.02421,15.77131-6.6525,25.94081-9.71764,40.00318-.92379,7.81329-3.39351,14.37585-2.74606,21.34457 2.44248,5.00185-21.13644,16.5158-23.57892,11.51396 2.67581-9.3787 7.81147-18.37567 10.55834-25.41906 12.36179-29.42635 20.86239-62.92539 24.1508-92.42192 .97609-17.72753 4.88964-36.87543-1.25783-52.6145-2.75198-5.40106 22.70888-18.37401 25.46086-12.97295z" fill="#002395" stroke="#000" stroke-linecap="round" stroke-linejoin="round" stroke-width="3"/>
<path d="m196.12081,152.79352c6.96513-.51114 10.9084,6.29363 14.85298,10.89312 9.13641,12.23118 17.0605,26.10933 19.35086,41.40225 .99644,6.24723-1.04229,12.54437-4.82875,17.50877-3.11608,4.82135-6.3627,9.5564-9.5241,14.34783-5.94713,4.85959-14.05282,5.40629-21.30677,3.88148-12.73525-2.30611-25.15998-6.28405-38.07435-7.65876-7.18174-.7032-14.6945-1.43752-21.69098.72262-4.46431,3.02427-1.81309-5.9182-.49116-8.0112 1.84683-4.00767 5.33143-10.94162 10.42501-6.80861 13.41587,3.131 27.17756,4.51814 40.83895,6.17035 9.25531.6949 18.65349,2.72085 27.90541,1.03802 2.93862.0593 7.75054-4.19625 8.341-3.76789-1.24442,2.61866-4.90542,8.93134-4.5307,9.59232 6.45172-9.05138 5.30457-21.15085 1.48962-30.99763-4.45767-12.58004-13.08432-24.46941-25.44776-30.16869-3.42396-1.27054-9.37748,1.23643-7.06037-4.74769 1.549-4.91332 3.80755-10.15958 8.09844-13.26065l.87578-.27591 .77687.14026 2e-005,1e-005z" fill="#002395" stroke="#000" stroke-linecap="round" stroke-linejoin="round" stroke-width="3"/>
</g>
<g transform="translate(-2.69035,25.55831)">
<path d="m295.53028,227.30748h12.38562l18.42165,38.25431-11.99367.0784z" fill="#fff" stroke="#000"/>
<path d="m232.14125,263.03759 .88688,2.82694h9.36769l19.50516-38.47866-12.69918.15678z" fill="#fff" stroke="#000"/>
<path d="m261.27386,227.69943-9.09324,18.50004 1.72458,1.72458 8.30934-7.13349 10.73943-3.1356 11.6801.15678 10.26909,3.9195 7.99578,5.17374 1.33263-3.05721-8.07417-16.22673z" fill="#fff" stroke="#000"/>
<path d="m248.32684,215.81115 55.65182.22172v6.54075l-55.76268-.44344z" fill="#fff" stroke="#000"/>
<path d="m290.67543,216.03287 14.07925.33258-12.85979-42.45945-7.42763,1.21946z" fill="#fff" stroke="#000"/>
<path d="m263.62554,175.79062-10.75343,39.90967 14.41182.33258 3.65839-40.90741z" fill="#fff" stroke="#000"/>
<path d="m269.27941,173.12997 .22172,9.7557 20.28742.33258-.22172-10.64258z" fill="#fff" stroke="#000"/>
<path d="m266.28619,169.36073h7.87107l2.99323-29.82139 .88688-23.94581 2.66064,34.36666 .66517,9.31226 1.99548,10.08828h7.09505l.88688-8.75796-3.10408-16.85075-2.66065-35.9187-1.99548-43.90064-.66516-28.82365-.38467-7.06435-4.37993-1.01783-4.46245,1.68417-.0852,6.17629c.1077,16.41547-.76472,32.81947-1.33032,49.22193l-1.99548,34.58838-1.77377,23.05892-2.66064,19.06795-1.33032,2.88237z" fill="#fff" stroke="#000"/>
<g fill="#fff" transform="translate(-189.39023,-400.53526)">
<path d="m452.65546,581.69176c1.42641,3.62251 2.78933.55211 0,0zm1.34151,0c1.57658,3.3835 2.44371.51791 0,0zm1.35028,0c1.29465,3.06311 2.78245.65543 0,0zm1.34152,0c1.28168,3.07951 2.78044.61897 0,0zm1.35028,0c1.36817,3.62563 2.83648.53424 0,0zm1.35028,0c1.29467,3.0631 2.78246.65545 0,0zm1.35028.009c1.32396,3.07063 2.77459.65373 0,0zm1.35028,0c1.3723,3.11631 2.71839.61971 0,0zm1.34151,0c1.31674,3.09764 2.77413.62433 0,0zm1.35028,0c1.28923,3.08243 2.79667.64037 0,0zm1.35028,0c1.98666,3.66016 2.302.48255 0,0zm1.34152,0c1.91159,3.62133 2.36612.5096 0,0zm1.35028,0c1.86211,3.59783 2.39305.52547 0,0zm1.34151,0c1.81899,3.58094 2.43805.53393 0,0zm1.35028,0c1.80422,3.57706 2.44383.53883 0,0zm1.35028,0c1.86189,3.59774 2.39324.52553 0,0zm1.34151,0c1.91127,3.62117 2.36637.5097 0,0zm1.35028,0c1.97414,3.65599 2.30551.48785 0,0zm1.35028.009c1.72366,3.52451 2.48952.54776 0,0zm1.35028,0c1.71055,3.52198 2.49409.55168 0,0zm1.35028,0c1.75702,3.53209 2.45209.54637 0,0zm1.34152,0c1.79836,3.54793 2.43121.53615 0,0zm1.35028,0c.59888,2.22681 3.36305,1.08278 0,0zm1.34151,0 .22366.1818-.22366-.1818zm-31.82804.15782c1.27093,4.11667 2.44917.48687 0,0zm-.28935,1.06094c-.15972,2.16902 2.63857-.05 0,0zm-.28058,1.0697c-.37993.90952 1.13156-.3994 0,0z" fill="#fff" stroke="#000" stroke-linecap="round" stroke-linejoin="round" stroke-width="2"/>
<path d="m451.85757,581.69176c-.60361.26747.39405.13103 0,0zm1.13108,0c-3.90842,1.53875-.295,2.31951 0,0zm1.35028,0c-2.39783.39877-.83061,4.21618 0,0zm1.35028,0c-2.4265.39108-.76982,4.18495 0,0zm1.34151,0c-2.39785.39878-.83052,4.21612 0,0zm1.35028,0c-2.28944.31252-.92506,4.29689 0,0zm1.34151,0c-2.26341.10521-1.24996,4.3175 0,0zm1.34152.009c-4.63565,1.55849-.30076,2.54238 0,0zm1.35028,0c-3.50932,1.31284-.46917,2.59842 0,0zm1.34151,0c-4.63549,1.55796-.30083,2.54271 0,0zm1.35028,0c-4.62408,1.48955-.31125,2.58258 0,0zm1.34151,0c-3.01145,1.17956-.40074,2.48416 0,0zm1.35028,0c-4.63549,1.55796-.30083,2.54269 0,0zm1.35028,0c-3.50954,1.31271-.46899,2.59817 0,0zm1.34152,0c-3.13347,1.9688-.97372,2.43203 0,0zm1.35028,0c-2.22555.1367-1.13216,4.12479 0,0zm1.34151,0c-3.80703,2.44175-.61897,2.19704 0,0zm1.35028,0c-3.12175,1.937-.97505,2.45595 0,0zm1.34151.009c-3.32457,2.07858-.64603,2.2907 0,0zm1.34152,0c-3.53795,2.38027-.49088,2.08877 0,0zm1.35028,0c-3.10188,1.87467-.98647,2.49302 0,0zm1.34151,0c-3.1809,1.76994-.7159,2.39605 0,0zm1.35028,0c-3.42696,1.22739-.50345,2.67071 0,0zm1.35028,0c-3.85986,1.91605-.35834,2.31264 0,0zm1.22753.11398c-3.58638,2.25505-.62712,2.22594 0,0zm.27181,1.07847c-3.56167.41181-.16854,2.29095 0,0zm.26304,1.07847c-1.1293-.35261.43171.87867 0,0z" fill="#fff" stroke="#000" stroke-linecap="round" stroke-linejoin="round" stroke-width="2"/>
<path d="m462.25648,575.57166c-15.94482-.86637-11.38715,19.72801-16.87617,29.24514-4.8065,6.53224-6.10493,24.75306 6.42037,17.52895 11.71366-9.41053.88877-28.2939 13.03229-37.45835 14.85945-3.08793 12.22619,17.68286 12.93638,26.98726-.63143,10.04017 19.31976,18.01336 16.11182,3.84191-5.62538-12.66609-6.33952-27.37509-12.39659-39.56215-5.57081-2.69282-20.81363,15.07307-19.2281-.58276zm-8.77682.55238c13.22575-4.60043-1.98348,14.21824-.31958.97525l.18802-.57377 .13156-.40148zm28.71538,0c6.19647,9.92451-16.00853,1.61166-3.31852.002l1.65926-.002 1.65926-.00025zm-30.15334,5.90967c11.26179-3.43927 2.60631,7.778 0,0zm9.64486,0h12.30158c-2.87355,3.40798-9.69089,4.07006-12.30158,0zm12.86274,0c10.10239-3.72546 4.89826,7.62238 0,0zm-23.1389,2.55151c15.8796.67391 3.3164,19.49581 6.07871,28.3939 .58936,10.1045-19.65943,14.61549-14.29391,1.66905 3.22199-9.8802 5.99179-19.91037 8.2152-30.06295zm23.49839,0c12.85942-1.70509 12.60816,13.92035 15.10171,22.55852 7.25994,6.27405 3.02608,21.53574-7.29015,14.29642-5.66149-10.38174-4.43039-23.52114-7.41767-34.99767l-.39389-1.85727z" fill="#fff" stroke="#000" stroke-linecap="round" stroke-linejoin="round" stroke-width="2"/>
<path d="m467.57663,391.56354c1.82496,6.09457-.93556,10.97789.001,1.9031l-.001-1.9031z" fill="#fff" stroke="#000" stroke-linecap="round" stroke-linejoin="round" stroke-width="2"/>
<path d="m437.53459,616.67862c-4.72339,12.07533 12.63857,13.08986 20.4327,11.06245h40.3485c3.47557-10.93037-10.36487-5.0238-16.69729-6.12495h-43.86516c-.20423-1.64337.36748-3.33265-.21875-4.9375zm.21875,6.4375c20.06248.0209 40.12503-.0416 60.18745.0312-20.06248-.0222-40.12505.0516-60.18745-.0312z" fill="#fff" stroke="#000" stroke-linecap="round" stroke-linejoin="round" stroke-width="2"/>
<path d="m467.00334,637.30362c-17.27271-.20904-33.36391,15.74642-32.11124,33.21551 .53742-15.83488 12.57627-31.5933 29.1472-32.44872 12.67978-1.66639 26.0573,5.14589 32.74953,15.41601 .44469,3.4574 4.79473,18.08524 2.95665,7.17301-4.22033-13.76904-18.22197-24.17666-32.74214-23.35581z" fill="#fff" stroke="#000" stroke-linecap="round" stroke-linejoin="round" stroke-width="2"/>
<path d="m503.00334,667.20987c.19994,11.27457 25.53824-.18634 8.69916-.15174-2.89703.0954-5.80355.50298-8.69916.15174z" fill="#fff" stroke="#000" stroke-linecap="round" stroke-linejoin="round" stroke-width="2"/>
<path d="m463.67691,429.90795c-1.57382,42.78675-2.44386,85.69423-7.85028,128.21819-8.8895,6.8115 8.49247,21.78243 8.41625,7.26406 2.72318-18.81072 2.77115-37.85422 3.59038-56.80599 .91948,21.30047.90133,42.75977 4.72625,63.80584 15.61977-1.49139 4.06389-20.40751 5.09832-30.00954-2.69133-36.31847-4.50504-72.70728-5.58267-109.10553-.0287-4.63905-5.28427-4.06896-8.39825-3.36703zm.4121.42086c7.97282.43385-4.08891,9.67366.002.11307l-1e-005-.00065-.002-.11242h-.0003zm7.49668,0c4.56103,10.36961-9.73628.44096 0,0zm-7.68958,7.26872c4.73943-3.76593 2.00286,5.21337 0,0zm4.15606,0c4.72463-3.75208 2.03772,5.2366 0,0zm-4.20867,2.00789c9.35171,10.39575.43238,24.62527 3.76155,36.60071-.0102,31.15594-.0132,62.45483-4.42395,93.36485-13.81096,5.74114-6.05215-16.58185-5.37016-23.6951 3.68752-35.30914 4.47436-70.82775 6.03256-106.27046zm4.20867,0c9.7033,10.95404 1.38784,26.01313 5.36973,38.61123 1.40785,31.29816 2.87251,62.68319 7.80036,93.66506-16.01513-1.21452-8.67208-21.56259-11.51755-32.08768-2.53207-33.33722-1.32896-66.79513-1.65254-100.18861z" fill="#fff" stroke="#000" stroke-linecap="round" stroke-linejoin="round" stroke-width="2"/>
<path d="m437.43412,616.2379c19.84817,1.54694 39.76265.45836 59.64152.66839-19.841-1.644-39.7656-.13986-59.64152-.66839z" fill="#fff" stroke="#000" stroke-linecap="round" stroke-linejoin="round" stroke-width="2"/>
<path d="m467.6313,570.67908-16.73822.0351c7.06721,9.55837 23.69851,5.26513 31.81123,3.22123 1.9742-8.40085-11.57411-.83601-15.07301-3.25633z" fill="#fff" stroke="#000" stroke-linecap="round" stroke-linejoin="round" stroke-width="2"/>
<path d="m484.52411,571.3509h-16.92708" fill="#fff" stroke="#000" stroke-linecap="round" stroke-linejoin="round" stroke-width="2"/>
<path d="m451.14736,569.21482c7.52404,2.94935 26.50471,1.94595 27.84074.14727-9.26826-.74042-18.56281.16981-27.84074-.14727z" fill="#fff" stroke="#000" stroke-linecap="round" stroke-linejoin="round" stroke-width="2"/>
<path d="m467.59709,391.55362c3.65039,13.08805-6.4568,27.60002-4.68878,38.64685 10.56953,6.07877 15.6942-11.59668 6.53618-16.0356-1.99529-7.38602-.53623-15.13713-1.8474-22.61125zm-.3125,25c3.92903,9.42907-9.08134,5.06128 0,0zm1.125.0312c9.17434,4.24087-4.18897,8.60892 0,0z" fill="#fff" stroke="#000" stroke-linecap="round" stroke-linejoin="round" stroke-width="2"/>
<path d="m418.00334,667.20987c-2.55521,10.49464 24.54403.70906 8.50273-.12518-2.83398.0379-5.66867.32244-8.50273.12518z" fill="#fff" stroke="#000" stroke-linecap="round" stroke-linejoin="round" stroke-width="2"/>
<path d="m451.2157,627.71528c-6.07432,13.12119-10.83794,27.07423-19.644,38.72089-9.40289,7.58212-15.33284-9.26858-5.82886-12.93763 4.23736-9.92862 7.18291-24.07713 19.72564-26.19172 1.92128-.20203 3.86794-.015 5.74722.40846zm-.67514.84174h-12.18759l-18.50937,37.93059 12.09992-.0789 18.59704-37.85169z" fill="#fff" stroke="#000" stroke-linecap="round" stroke-linejoin="round" stroke-width="2"/>
<path d="m451.14879,571.3509h16.92708" fill="#fff" stroke="#000" stroke-linecap="round" stroke-linejoin="round" stroke-width="2"/>
<path d="m463.99844,430.56241c-1.33023,4.06168 1.13821,7.01928 0,0z" fill="#fff" stroke="#000" stroke-linecap="round" stroke-linejoin="round" stroke-width="2"/>
<path d="m467.8505,634.44915c-5.52511-2.50144-19.29189,5.42795-18.82049,5.95151 13.42479-8.70473 33.16224-6.75728 43.8796,5.40332-5.35655-8.24777-15.79821-10.97294-25.05911-11.35483z" fill="#fff" stroke="#000" stroke-linecap="round" stroke-linejoin="round" stroke-width="2"/>
<path d="m484.4572,627.71528c6.07432,13.12119 10.83795,27.07423 19.64401,38.72089 9.4029,7.58213 15.33285-9.26858 5.82886-12.93763-4.23735-9.92863-7.18291-24.07714-19.72565-26.19173-1.92128-.20202-3.86794-.015-5.74722.40847zm.67514.84174h12.1876l18.50936,37.93059-12.09991-.0789-18.59705-37.85169z" fill="#fff" stroke="#000" stroke-linecap="round" stroke-linejoin="round" stroke-width="2"/>
<path d="m467.84172,628.00463h-30.66213c20.42819-.88438 40.87751-.22771 61.31525-.42087-10.19714.87811-20.43787.21068-30.65312.42087z" fill="#fff" stroke="#000" stroke-linecap="round" stroke-linejoin="round" stroke-width="2"/>
</g>
</g>
</g>
</svg>
