<?xml version="1.0" encoding="UTF-8" standalone="no"?>
<svg width="741.43" xmlns="http://www.w3.org/2000/svg" xmlns:xlink="http://www.w3.org/1999/xlink" height="662.86">
 <defs>
  <filter id="filter7359" y="-.15153" width="1.1667" height="1.3031" x="-.083354">
   <feGaussianBlur id="feGaussianBlur7361" stdDeviation="24.968748"/>
  </filter>
 </defs>
 <g stroke-width="50" stroke-linecap="round">
  <rect id="rect3893" height="661.43" width="741.43" y="3.4286" x="-2" fill="#7f007f"/>
  <g fill="#fff">
   <path id="path3903" d="m111.43 107.14a4.2857 4.2857 0 1 1 -8.572 0 4.2857 4.2857 0 1 1 8.572 0z"/>
   <path id="path3905" d="m245.71 211.43a4.2857 4.2857 0 1 1 -8.571 0 4.2857 4.2857 0 1 1 8.571 0z"/>
   <path id="path3907" d="m204.29 141.43a4.2857 4.2857 0 1 1 -8.572 0 4.2857 4.2857 0 1 1 8.572 0z"/>
   <path id="path3909" d="m362.86 207.14a4.2857 4.2857 0 1 1 -8.571 0 4.2857 4.2857 0 1 1 8.571 0z"/>
   <path id="path3911" d="m382.86 275.71a4.2857 4.2857 0 1 1 -8.571 0 4.2857 4.2857 0 1 1 8.571 0z"/>
   <path id="path3913" d="m422.86 317.14a4.2857 4.2857 0 1 1 -8.571 0 4.2857 4.2857 0 1 1 8.571 0z"/>
   <path id="path3915" d="m418.57 437.14a4.2857 4.2857 0 1 1 -8.571 0 4.2857 4.2857 0 1 1 8.571 0z"/>
   <path id="path3917" d="m402.86 432.86a4.2857 4.2857 0 1 1 -8.571 0 4.2857 4.2857 0 1 1 8.571 0z"/>
   <path id="path3919" d="m208.57 268.57a4.2857 4.2857 0 1 1 -8.571 0 4.2857 4.2857 0 1 1 8.571 0z"/>
   <path id="path3921" d="m68.571 198.57a4.2857 4.2857 0 1 1 -8.5714 0 4.2857 4.2857 0 1 1 8.5714 0z"/>
   <path id="path3923" d="m40 242.86a4.2857 4.2857 0 1 1 -8.5714 0 4.2857 4.2857 0 1 1 8.5714 0z"/>
   <path id="path3937" d="m15.714 98.571a4.2857 4.2857 0 1 1 -8.5714 0 4.2857 4.2857 0 1 1 8.5714 0z"/>
   <path id="path3939" d="m67.143 281.43a4.2857 4.2857 0 1 1 -8.5715 0 4.2857 4.2857 0 1 1 8.5715 0z"/>
   <path id="path3949" d="m101.43 414.29a4.2857 4.2857 0 1 1 -8.5719 0 4.2857 4.2857 0 1 1 8.5719 0z"/>
   <path id="path3951" d="m48.571 455.71a4.2857 4.2857 0 1 1 -8.5714 0 4.2857 4.2857 0 1 1 8.5714 0z"/>
   <path id="path3979" d="m34.286 138.57a4.2857 4.2857 0 1 1 -8.5714 0 4.2857 4.2857 0 1 1 8.5714 0z"/>
   <path id="path3981" d="m48.571 137.14a4.2857 4.2857 0 1 1 -8.5714 0 4.2857 4.2857 0 1 1 8.5714 0z"/>
   <path id="path3983" d="m14.286 112.86a4.2857 4.2857 0 1 1 -8.5714 0 4.2857 4.2857 0 1 1 8.5714 0z"/>
   <path id="path4041" d="m345.71 15.714a4.2857 4.2857 0 1 1 -8.571 0 4.2857 4.2857 0 1 1 8.571 0z"/>
   <path id="path4043" d="m231.43 12.857a4.2857 4.2857 0 1 1 -8.572 0 4.2857 4.2857 0 1 1 8.572 0z"/>
   <path id="path4099" d="m337.14 44.286a4.2857 4.2857 0 1 1 -8.572 0 4.2857 4.2857 0 1 1 8.572 0z"/>
   <path id="path4101" d="m410 134.29a4.2857 4.2857 0 1 1 -8.571 0 4.2857 4.2857 0 1 1 8.571 0z"/>
   <path id="path4103" d="m488.57 192.86a4.2857 4.2857 0 1 1 -8.571 0 4.2857 4.2857 0 1 1 8.571 0z"/>
   <path id="path4105" d="m537.14 190a4.2857 4.2857 0 1 1 -8.572 0 4.2857 4.2857 0 1 1 8.572 0z"/>
   <path id="path4107" d="m572.86 154.29a4.2857 4.2857 0 1 1 -8.571 0 4.2857 4.2857 0 1 1 8.571 0z"/>
   <path id="path4109" d="m561.43 102.86a4.2857 4.2857 0 1 1 -8.572 0 4.2857 4.2857 0 1 1 8.572 0z"/>
   <path id="path4111" d="m494.29 84.286a4.2857 4.2857 0 1 1 -8.572 0 4.2857 4.2857 0 1 1 8.572 0z"/>
   <path id="path4113" d="m375.71 95.714a4.2857 4.2857 0 1 1 -8.571 0 4.2857 4.2857 0 1 1 8.571 0z"/>
   <path id="path4115" d="m338.57 128.57a4.2857 4.2857 0 1 1 -8.571 0 4.2857 4.2857 0 1 1 8.571 0z"/>
   <path id="path4117" d="m372.86 147.14a4.2857 4.2857 0 1 1 -8.571 0 4.2857 4.2857 0 1 1 8.571 0z"/>
   <path id="path4119" d="m504.29 171.43a4.2857 4.2857 0 1 1 -8.572 0 4.2857 4.2857 0 1 1 8.572 0z"/>
   <path id="path4121" d="m594.29 134.29a4.2857 4.2857 0 1 1 -8.572 0 4.2857 4.2857 0 1 1 8.572 0z"/>
   <path id="path4123" d="m630 128.57a4.2857 4.2857 0 1 1 -8.571 0 4.2857 4.2857 0 1 1 8.571 0z"/>
   <path id="path4125" d="m685.71 204.29a4.2857 4.2857 0 1 1 -8.571 0 4.2857 4.2857 0 1 1 8.571 0z"/>
   <path id="path4127" d="m657.14 262.86a4.2857 4.2857 0 1 1 -8.572 0 4.2857 4.2857 0 1 1 8.572 0z"/>
   <path id="path4129" d="m518.57 252.86a4.2857 4.2857 0 1 1 -8.571 0 4.2857 4.2857 0 1 1 8.571 0z"/>
   <path id="path4131" d="m412.86 182.86a4.2857 4.2857 0 1 1 -8.571 0 4.2857 4.2857 0 1 1 8.571 0z"/>
   <path id="path4133" d="m321.43 124.29a4.2857 4.2857 0 1 1 -8.572 0 4.2857 4.2857 0 1 1 8.572 0z"/>
   <path id="path4135" d="m252.86 127.14a4.2857 4.2857 0 1 1 -8.571 0 4.2857 4.2857 0 1 1 8.571 0z"/>
   <path id="path4137" d="m204.29 158.57a4.2857 4.2857 0 1 1 -8.572 0 4.2857 4.2857 0 1 1 8.572 0z"/>
   <path id="path4139" d="m201.43 165.71a4.2857 4.2857 0 1 1 -8.572 0 4.2857 4.2857 0 1 1 8.572 0z"/>
   <path id="path4141" d="m324.29 100a4.2857 4.2857 0 1 1 -8.572 0 4.2857 4.2857 0 1 1 8.572 0z"/>
   <path id="path4143" d="m494.29 51.429a4.2857 4.2857 0 1 1 -8.572 0 4.2857 4.2857 0 1 1 8.572 0z"/>
   <path id="path4145" d="m608.57 80a4.2857 4.2857 0 1 1 -8.571 0 4.2857 4.2857 0 1 1 8.571 0z"/>
   <path id="path4147" d="m667.14 105.71a4.2857 4.2857 0 1 1 -8.572 0 4.2857 4.2857 0 1 1 8.572 0z"/>
   <path id="path4149" d="m684.29 97.143a4.2857 4.2857 0 1 1 -8.572 0 4.2857 4.2857 0 1 1 8.572 0z"/>
   <path id="path4151" d="m667.14 75.714a4.2857 4.2857 0 1 1 -8.572 0 4.2857 4.2857 0 1 1 8.572 0z"/>
   <path id="path4153" d="m467.14 4.2857a4.2857 4.2857 0 1 1 -8.572 0 4.2857 4.2857 0 1 1 8.572 0z"/>
   <path id="path4155" d="m332.86 52.857a4.2857 4.2857 0 1 1 -8.571 0 4.2857 4.2857 0 1 1 8.571 0z"/>
   <path id="path4159" d="m251.43 158.57a4.2857 4.2857 0 1 1 -8.572 0 4.2857 4.2857 0 1 1 8.572 0z"/>
   <path id="path4161" d="m192.86 164.29a4.2857 4.2857 0 1 1 -8.571 0 4.2857 4.2857 0 1 1 8.571 0z"/>
   <path id="path4163" d="m278.57 240a4.2857 4.2857 0 1 1 -8.571 0 4.2857 4.2857 0 1 1 8.571 0z"/>
   <path id="path4165" d="m425.71 310a4.2857 4.2857 0 1 1 -8.571 0 4.2857 4.2857 0 1 1 8.571 0z"/>
   <path id="path4167" d="m525.71 340a4.2857 4.2857 0 1 1 -8.571 0 4.2857 4.2857 0 1 1 8.571 0z"/>
   <path id="path4169" d="m582.86 377.14a4.2857 4.2857 0 1 1 -8.571 0 4.2857 4.2857 0 1 1 8.571 0z"/>
   <path id="path4171" d="m544.29 394.29a4.2857 4.2857 0 1 1 -8.572 0 4.2857 4.2857 0 1 1 8.572 0z"/>
   <path id="path4173" d="m228.57 375.71a4.2857 4.2857 0 1 1 -8.571 0 4.2857 4.2857 0 1 1 8.571 0z"/>
   <path id="path4175" d="m152.86 360a4.2857 4.2857 0 1 1 -8.571 0 4.2857 4.2857 0 1 1 8.571 0z"/>
   <path id="path4177" d="m154.29 382.86a4.2857 4.2857 0 1 1 -8.572 0 4.2857 4.2857 0 1 1 8.572 0z"/>
   <path id="path4179" d="m280 425.71a4.2857 4.2857 0 1 1 -8.571 0 4.2857 4.2857 0 1 1 8.571 0z"/>
   <path id="path4181" d="m485.71 328.57a4.2857 4.2857 0 1 1 -8.571 0 4.2857 4.2857 0 1 1 8.571 0z"/>
   <path id="path4183" d="m502.86 300a4.2857 4.2857 0 1 1 -8.571 0 4.2857 4.2857 0 1 1 8.571 0z"/>
   <path id="path4185" d="m622.86 317.14a4.2857 4.2857 0 1 1 -8.571 0 4.2857 4.2857 0 1 1 8.571 0z"/>
   <path id="path4187" d="m692.86 364.29a4.2857 4.2857 0 1 1 -8.571 0 4.2857 4.2857 0 1 1 8.571 0z"/>
   <path id="path4189" d="m568.57 428.57a4.2857 4.2857 0 1 1 -8.571 0 4.2857 4.2857 0 1 1 8.571 0z"/>
   <path id="path4191" d="m404.29 358.57a4.2857 4.2857 0 1 1 -8.572 0 4.2857 4.2857 0 1 1 8.572 0z"/>
   <path id="path4193" d="m400 340a4.2857 4.2857 0 1 1 -8.571 0 4.2857 4.2857 0 1 1 8.571 0z"/>
   <path id="path4195" d="m388.57 328.57a4.2857 4.2857 0 1 1 -8.571 0 4.2857 4.2857 0 1 1 8.571 0z"/>
   <path id="path4197" d="m230 215.71a4.2857 4.2857 0 1 1 -8.571 0 4.2857 4.2857 0 1 1 8.571 0z"/>
   <path id="path4199" d="m135.71 198.57a4.2857 4.2857 0 1 1 -8.571 0 4.2857 4.2857 0 1 1 8.571 0z"/>
   <path id="path4201" d="m137.14 202.86a4.2857 4.2857 0 1 1 -8.572 0 4.2857 4.2857 0 1 1 8.572 0z"/>
   <path id="path4203" d="m164.29 272.86a4.2857 4.2857 0 1 1 -8.572 0 4.2857 4.2857 0 1 1 8.572 0z"/>
   <path id="path4205" d="m237.14 334.29a4.2857 4.2857 0 1 1 -8.572 0 4.2857 4.2857 0 1 1 8.572 0z"/>
   <path id="path4207" d="m132.86 325.71a4.2857 4.2857 0 1 1 -8.571 0 4.2857 4.2857 0 1 1 8.571 0z"/>
   <path id="path4209" d="m102.86 372.86a4.2857 4.2857 0 1 1 -8.5713 0 4.2857 4.2857 0 1 1 8.5713 0z"/>
   <path id="path4211" d="m275.71 450a4.2857 4.2857 0 1 1 -8.571 0 4.2857 4.2857 0 1 1 8.571 0z"/>
   <path id="path4213" d="m421.43 420a4.2857 4.2857 0 1 1 -8.572 0 4.2857 4.2857 0 1 1 8.572 0z"/>
   <path id="path4215" d="m530 375.71a4.2857 4.2857 0 1 1 -8.571 0 4.2857 4.2857 0 1 1 8.571 0z"/>
   <path id="path4217" d="m618.57 402.86a4.2857 4.2857 0 1 1 -8.571 0 4.2857 4.2857 0 1 1 8.571 0z"/>
   <path id="path4219" d="m615.71 468.57a4.2857 4.2857 0 1 1 -8.571 0 4.2857 4.2857 0 1 1 8.571 0z"/>
   <path id="path4221" d="m525.71 504.29a4.2857 4.2857 0 1 1 -8.571 0 4.2857 4.2857 0 1 1 8.571 0z"/>
   <path id="path4223" d="m372.86 467.14a4.2857 4.2857 0 1 1 -8.571 0 4.2857 4.2857 0 1 1 8.571 0z"/>
   <path id="path4225" d="m295.71 465.71a4.2857 4.2857 0 1 1 -8.571 0 4.2857 4.2857 0 1 1 8.571 0z"/>
   <path id="path4227" d="m312.86 515.71a4.2857 4.2857 0 1 1 -8.571 0 4.2857 4.2857 0 1 1 8.571 0z"/>
   <path id="path4229" d="m445.71 561.43a4.2857 4.2857 0 1 1 -8.571 0 4.2857 4.2857 0 1 1 8.571 0z"/>
   <path id="path4231" d="m630 521.43a4.2857 4.2857 0 1 1 -8.571 0 4.2857 4.2857 0 1 1 8.571 0z"/>
   <path id="path4233" d="m648.57 520a4.2857 4.2857 0 1 1 -8.571 0 4.2857 4.2857 0 1 1 8.571 0z"/>
   <path id="path4235" d="m628.57 555.71a4.2857 4.2857 0 1 1 -8.571 0 4.2857 4.2857 0 1 1 8.571 0z"/>
   <path id="path4237" d="m330 560a4.2857 4.2857 0 1 1 -8.571 0 4.2857 4.2857 0 1 1 8.571 0z"/>
   <path id="path4239" d="m81.429 477.14a4.2857 4.2857 0 1 1 -8.5715 0 4.2857 4.2857 0 1 1 8.5715 0z"/>
   <path id="path4241" d="m61.429 472.86a4.2857 4.2857 0 1 1 -8.5715 0 4.2857 4.2857 0 1 1 8.5715 0z"/>
   <path id="path4243" d="m57.143 515.71a4.2857 4.2857 0 1 1 -8.5715 0 4.2857 4.2857 0 1 1 8.5715 0z"/>
   <path id="path4245" d="m202.86 534.29a4.2857 4.2857 0 1 1 -8.571 0 4.2857 4.2857 0 1 1 8.571 0z"/>
   <path id="path4247" d="m485.71 442.86a4.2857 4.2857 0 1 1 -8.571 0 4.2857 4.2857 0 1 1 8.571 0z"/>
   <path id="path4249" d="m562.86 411.43a4.2857 4.2857 0 1 1 -8.571 0 4.2857 4.2857 0 1 1 8.571 0z"/>
   <path id="path4251" d="m597.14 334.29a4.2857 4.2857 0 1 1 -8.572 0 4.2857 4.2857 0 1 1 8.572 0z"/>
   <path id="path4253" d="m474.29 238.57a4.2857 4.2857 0 1 1 -8.572 0 4.2857 4.2857 0 1 1 8.572 0z"/>
   <path id="path4255" d="m344.29 214.29a4.2857 4.2857 0 1 1 -8.572 0 4.2857 4.2857 0 1 1 8.572 0z"/>
   <path id="path4257" d="m352.86 178.57a4.2857 4.2857 0 1 1 -8.571 0 4.2857 4.2857 0 1 1 8.571 0z"/>
   <path id="path4259" d="m232.86 80a4.2857 4.2857 0 1 1 -8.571 0 4.2857 4.2857 0 1 1 8.571 0z"/>
   <path id="path4261" d="m154.29 37.143a4.2857 4.2857 0 1 1 -8.572 0 4.2857 4.2857 0 1 1 8.572 0z"/>
   <path id="path4263" d="m110 28.571a4.2857 4.2857 0 1 1 -8.571 0 4.2857 4.2857 0 1 1 8.571 0z"/>
   <path id="path4265" d="m125.71 25.714a4.2857 4.2857 0 1 1 -8.571 0 4.2857 4.2857 0 1 1 8.571 0z"/>
   <path id="path4267" d="m177.14 25.714a4.2857 4.2857 0 1 1 -8.572 0 4.2857 4.2857 0 1 1 8.572 0z"/>
   <path id="path4269" d="m84.286 65.714a4.2857 4.2857 0 1 1 -8.5714 0 4.2857 4.2857 0 1 1 8.5714 0z"/>
   <path id="path4271" d="m81.429 64.286a4.2857 4.2857 0 1 1 -8.5715 0 4.2857 4.2857 0 1 1 8.5715 0z"/>
   <path id="path4273" d="m118.57 21.429a4.2857 4.2857 0 1 1 -8.571 0 4.2857 4.2857 0 1 1 8.571 0z"/>
   <path id="path4275" d="m342.86 82.857a4.2857 4.2857 0 1 1 -8.571 0 4.2857 4.2857 0 1 1 8.571 0z"/>
   <path id="path4277" d="m665.71 132.86a4.2857 4.2857 0 1 1 -8.571 0 4.2857 4.2857 0 1 1 8.571 0z"/>
   <path id="path4279" d="m688.57 135.71a4.2857 4.2857 0 1 1 -8.571 0 4.2857 4.2857 0 1 1 8.571 0z"/>
   <path id="path4281" d="m700 165.71a4.2857 4.2857 0 1 1 -8.571 0 4.2857 4.2857 0 1 1 8.571 0z"/>
   <path id="path4283" d="m600 214.29a4.2857 4.2857 0 1 1 -8.571 0 4.2857 4.2857 0 1 1 8.571 0z"/>
   <path id="path4285" d="m481.43 178.57a4.2857 4.2857 0 1 1 -8.572 0 4.2857 4.2857 0 1 1 8.572 0z"/>
   <path id="path4287" d="m422.86 188.57a4.2857 4.2857 0 1 1 -8.571 0 4.2857 4.2857 0 1 1 8.571 0z"/>
   <path id="path4289" d="m442.86 268.57a4.2857 4.2857 0 1 1 -8.571 0 4.2857 4.2857 0 1 1 8.571 0z"/>
   <path id="path4291" d="m555.71 304.29a4.2857 4.2857 0 1 1 -8.571 0 4.2857 4.2857 0 1 1 8.571 0z"/>
   <path id="path4293" d="m461.43 358.57a4.2857 4.2857 0 1 1 -8.572 0 4.2857 4.2857 0 1 1 8.572 0z"/>
   <path id="path4295" d="m300 375.71a4.2857 4.2857 0 1 1 -8.571 0 4.2857 4.2857 0 1 1 8.571 0z"/>
   <path id="path4297" d="m252.86 327.14a4.2857 4.2857 0 1 1 -8.571 0 4.2857 4.2857 0 1 1 8.571 0z"/>
   <path id="path4299" d="m374.29 295.71a4.2857 4.2857 0 1 1 -8.572 0 4.2857 4.2857 0 1 1 8.572 0z"/>
   <path id="path4301" d="m477.14 272.86a4.2857 4.2857 0 1 1 -8.572 0 4.2857 4.2857 0 1 1 8.572 0z"/>
   <path id="path4303" d="m391.43 250a4.2857 4.2857 0 1 1 -8.572 0 4.2857 4.2857 0 1 1 8.572 0z"/>
   <path id="path4305" d="m395.71 230a4.2857 4.2857 0 1 1 -8.571 0 4.2857 4.2857 0 1 1 8.571 0z"/>
   <path id="path4307" d="m507.14 208.57a4.2857 4.2857 0 1 1 -8.572 0 4.2857 4.2857 0 1 1 8.572 0z"/>
   <path id="path4309" d="m575.71 245.71a4.2857 4.2857 0 1 1 -8.571 0 4.2857 4.2857 0 1 1 8.571 0z"/>
   <path id="path4311" d="m621.43 292.86a4.2857 4.2857 0 1 1 -8.572 0 4.2857 4.2857 0 1 1 8.572 0z"/>
   <path id="path4313" d="m657.14 294.29a4.2857 4.2857 0 1 1 -8.572 0 4.2857 4.2857 0 1 1 8.572 0z"/>
   <path id="path4315" d="m632.86 382.86a4.2857 4.2857 0 1 1 -8.571 0 4.2857 4.2857 0 1 1 8.571 0z"/>
   <path id="path4317" d="m671.43 454.29a4.2857 4.2857 0 1 1 -8.572 0 4.2857 4.2857 0 1 1 8.572 0z"/>
   <path id="path4319" d="m522.86 400a4.2857 4.2857 0 1 1 -8.571 0 4.2857 4.2857 0 1 1 8.571 0z"/>
   <path id="path4321" d="m347.14 427.14a4.2857 4.2857 0 1 1 -8.572 0 4.2857 4.2857 0 1 1 8.572 0z"/>
   <path id="path4323" d="m311.43 445.71a4.2857 4.2857 0 1 1 -8.572 0 4.2857 4.2857 0 1 1 8.572 0z"/>
   <path id="path4325" d="m220 378.57a4.2857 4.2857 0 1 1 -8.571 0 4.2857 4.2857 0 1 1 8.571 0z"/>
   <path id="path4327" d="m212.86 318.57a4.2857 4.2857 0 1 1 -8.571 0 4.2857 4.2857 0 1 1 8.571 0z"/>
   <path id="path4329" d="m188.57 355.71a4.2857 4.2857 0 1 1 -8.571 0 4.2857 4.2857 0 1 1 8.571 0z"/>
   <path id="path4331" d="m190 391.43a4.2857 4.2857 0 1 1 -8.571 0 4.2857 4.2857 0 1 1 8.571 0z"/>
   <path id="path4333" d="m182.86 401.43a4.2857 4.2857 0 1 1 -8.571 0 4.2857 4.2857 0 1 1 8.571 0z"/>
   <path id="path4335" d="m154.29 420a4.2857 4.2857 0 1 1 -8.572 0 4.2857 4.2857 0 1 1 8.572 0z"/>
   <path id="path4337" d="m260 477.14a4.2857 4.2857 0 1 1 -8.571 0 4.2857 4.2857 0 1 1 8.571 0z"/>
   <path id="path4339" d="m331.43 504.29a4.2857 4.2857 0 1 1 -8.572 0 4.2857 4.2857 0 1 1 8.572 0z"/>
   <path id="path4341" d="m388.57 528.57a4.2857 4.2857 0 1 1 -8.571 0 4.2857 4.2857 0 1 1 8.571 0z"/>
   <path id="path4343" d="m552.86 555.71a4.2857 4.2857 0 1 1 -8.571 0 4.2857 4.2857 0 1 1 8.571 0z"/>
   <path id="path4345" d="m612.86 564.29a4.2857 4.2857 0 1 1 -8.571 0 4.2857 4.2857 0 1 1 8.571 0z"/>
   <path id="path4347" d="m650 560a4.2857 4.2857 0 1 1 -8.571 0 4.2857 4.2857 0 1 1 8.571 0z"/>
   <path id="path4349" d="m677.14 545.71a4.2857 4.2857 0 1 1 -8.572 0 4.2857 4.2857 0 1 1 8.572 0z"/>
   <path id="path4351" d="m681.43 541.43a4.2857 4.2857 0 1 1 -8.572 0 4.2857 4.2857 0 1 1 8.572 0z"/>
  </g>
 </g>
 <path id="path7293" filter="url(#filter7359)" fill="#fff" d="m529.65 260.84c-1.006 0-8.563 16.076-8.563 18.219 0.000977 1.072 0.599 3.811 1.313 6.094 0.71399 2.282 1.308 5.118 1.312 6.281 0.007996 1.847-1.862 12.609-2.281 13.125-0.085022 0.10501-1.225-0.297-2.5-0.90601l-2.312-1.125-6 3.75c-3.301 2.055-6.068 3.642-6.157 3.531-0.088013-0.112-1.006-1.668-2.031-3.469-2.895-5.087-8.596-10.336-14.531-13.312-22.57-11.32-49.303 2.963-51.438 27.468-1.207 13.859 6.673 27.42 19.563 33.625 5.815 2.8 8.157 5.03 8.187 7.75 0.044006 3.847-0.64102 4.232-5.968 3.344-2.627-0.43701-6.523-0.996-8.657-1.25l-3.875-0.469 3.375 3.719c3.536 3.876 4.038 4.938 2.407 4.938-0.535 0-3.75 0.896-7.188 2-5.316 1.706-6.483 2.319-7.562 4.093-0.70798 1.163-1.249 3.26-1.25 4.75-0.001984 2.33-0.34698 2.947-2.625 4.782-1.438 1.157-2.594 2.547-2.594 3.093 0 0.55298-0.51898 0.94-1.156 0.875-2.078-0.211-2.676 0.028992-3.063 1.188-0.20999 0.63-1.597 1.698-3.062 2.375-3.544 1.635-11.239 7.805-15.219 12.219-4.058 4.5-8.302 11.114-9.844 15.343-1.121 3.078-5.275 12.691-8.25 19.032-0.73099 1.559-1.695 2.92-2.125 3.031-1.707 0.439-13.403 8.077-12.969 8.469 0.25598 0.23001 3.375 1.489 6.938 2.812s7.028 2.709 7.687 3.063c1.624 0.87 1.58 4.835-0.093018 8.531-1.674 3.695-1.723 7.241-0.093994 8.719 0.686 0.62201 1.632 1.988 2.062 3.031 0.431 1.042 1.291 2.044 1.938 2.25 0.647 0.20599 1.358 0.80801 1.562 1.344 0.569 1.484 3.152 2.28 4.313 1.312 0.539-0.449 1.629-0.99002 2.437-1.187 1.259-0.30701 1.5-0.09198 1.5 1.468 0 1.622 1.554 3.887 2.219 3.219 0.741-0.74301 3-7.441 3-8.906 0-2.776-1.379-6.47-3.125-8.469-0.89801-1.029-2.03-2.856-2.531-4.031-0.82999-1.947-0.78601-2.28 0.43701-3.938 1.238-1.678 3.886-12.263 3.907-15.625 0.003998-0.78201 1.035-2.823 2.312-4.5 2.323-3.048 3.565-5.433 4.656-9.125 0.32001-1.08 0.86899-2.007 1.219-2.031 1.712-0.11502 4.954-2.821 5.906-4.937 0.673-1.494 2.452-3.372 4.844-5.063 2.09-1.477 5.823-4.963 8.281-7.75 6.025-6.829 8.651-9.375 9.657-9.375 0.53802 0 0.98602 1.275 1.218 3.531 0.19998 1.942 1.334 5.694 2.532 8.344l2.187 4.844v21.594l-2.312 4.25c-4.149 7.743-12.228 25.148-15.063 32.437-1.535 3.947-3.212 7.856-3.75 8.688-0.87201 1.35-0.85901 1.607 0.062988 2.531 0.94101 0.94299 0.88702 1.195-0.375 2.906-1.01 1.368-1.182 2.099-0.65698 2.625 0.46399 0.46399 0.51599 1.326 0.15698 2.438-0.30698 0.95001-0.88498 3.955-1.282 6.656-0.396 2.701-1.112 6.091-1.593 7.531-0.48099 1.441-1.361 5.7191-1.969 9.5-0.79999 4.97-1.63 7.681-2.938 9.8441-0.99402 1.645-1.96 3.85-2.187 4.9059-0.63 2.934-13.756 29.044-14.5 28.844-0.35901-0.097046-0.84299-3.084-1.063-6.656-0.21899-3.573-0.62802-7.521-0.90601-8.782-0.45902-2.089-12.846-32.987-16.906-42.156-0.93698-2.115-1.719-4.126-1.719-4.437 0-0.31198 1.614-1.62 3.594-2.938l3.625-2.406-3.469-3.656c-5.932-6.271-11.878-15.167-21.937-32.875l-4.688-8.25v-5.219c0-8.319 2.914-15.036 11.406-26.406 7.402-9.91 11.741-21.697 10.157-27.594-0.38998-1.452-1.542-4.008-2.563-5.688-2.62-4.314-3.969-8.708-3.969-13.093 0-7.812 4.963-13.755 17.844-21.438 19.444-11.597 30.265-20.163 31.438-24.844 0.55402-2.214-1.897-6.631-5.219-9.375-1.29-1.065-7.098-4.502-12.906-7.656-17.847-9.69-25.797-14.962-34.032-22.625-6.33-5.891-6.833-6.134-11.031-4.937-1.88 0.535-4.406 1.229-5.656 1.531-3.423 0.827-4.399 3.008-3.375 7.594 0.44699 2.002 1.424 4.411 2.156 5.343 2.472 3.149 7.916 5.055 16.844 5.938 4.2 0.41501 4.211 0.423 17.312 10.281 17.147 12.901 17.344 13.086 17.344 14.281 0 2.25-3.402 4.49-24.219 15.875-13.104 7.168-20.601 10.938-21.75 10.938-1.012 0-1.718-2.775-1.718-6.656 0-2.454 0.048004-2.536 2.062-2.375 1.647 0.13101 2.274-0.14499 2.969-1.438 1.033-1.921 0.621-6.864-0.875-10.437-0.621-1.484-0.82901-3.189-0.56299-4.625 0.841-4.523 0.42499-12.709-0.875-16.875-3.236-10.381-8.708-14.922-19.187-15.907-8.347-0.784-11.07 0.138-15.938 5.407-5.448 5.897-7.74 11.23-9.718 22.593-0.893 5.129-1.941 10.563-2.344 12.063-0.853 3.175-5.576 13.656-6.156 13.656-0.21698 0-4.443-2.864-9.375-6.375s-11.516-8.146-14.657-10.281c-3.14-2.136-5.718-4.127-5.718-4.406 0-0.867 9.607-11.261 13.937-15.094 14.186-12.558 25.615-18.351 35.688-18.063 7.307 0.20999 9.428-1.052 11.781-7 2.059-5.203 1.771-6.218-1.75-6.218-1.234 0-4.31-0.88901-6.844-1.969-7.78-3.318-10.05-2.714-15.437 4.156-3.079 3.926-3.553 4.23-19.375 12.406-15.57 8.046-25.507 13.846-27.188 15.875-1.359 1.642-2.178 1.069-4.875-3.406-3.674-6.098-4.452-6.829-6.875-6.344-1.597 0.31998-2.381 0.057983-3.781-1.281-2.574-2.461-11.123-6.317-15.031-6.781-2.987-0.35501-3.694-0.19501-6 1.406-2.391 1.661-2.918 1.781-6.5 1.375-4.717-0.535-5.912-0.009003-9.688 4.25-2.352 2.653-3.357 3.254-6.344 3.875-6.201 1.29-8.471 4.602-5.812 8.406 1.586 2.269 0.68901 4.184-2.781 6.063-4.044 2.19-4.499 3.642-2.469 7.469 1.883 3.548 1.982 5.354 0.5 8.468-0.939 1.974-0.96199 2.681-0.25 5.063 0.455 1.521 1.747 3.631 2.875 4.687 1.94 1.816 2.255 1.894 6.125 1.532 2.251-0.211 4.094-0.23599 4.094-0.031982 0 0.20499-0.722 0.93799-1.594 1.625-4.458 3.514-3.292 13.032 1.594 13.032 1.967 0 3.972-2.016 3.875-3.907-0.044998-0.87701-0.12201-0.86102-0.438 0-0.198 0.53998-0.796 1.495-1.344 2.125-3.462 3.983-7.622-3.385-4.906-8.687 1.518-2.962 2.928-2.93 3.781 0.093994 0.74701 2.644 2.679 5.156 4 5.156 2.441 0 2.878 7.595 0.71901 12.625l-1.062 2.469-3.782-1.907c-7.516-3.768-13.208-4.073-16.125-0.84302-1.609 1.782-2.206 9.4-2.718 34.625l-0.469 22.437h-8.375c-9.364 0-17.216-0.92001-21-2.437-1.39-0.55798-2.668-0.896-2.844-0.71899-0.176 0.176 0.731 3.206 2 6.719 1.269 3.512 2.281 6.828 2.281 7.343 0 0.75998-3.54 2.844-4.843 2.844-0.18201 0-0.759-0.83099-1.282-1.844-1.564-3.032-7.06-8.775-9.312-9.718-2.122-0.88901-8.063-0.595-8.063 0.40601 0 0.26901 1.606 1.16 3.594 1.969 6.629 2.696 9.256 6.717 6.188 9.5-1.282 1.162-1.385 1.163-3.25-0.21899-2.277-1.687-2.844-1.758-3.938-0.43799-1.638 1.978 2.284 4.731 10.688 7.5 4.278 1.41 6.056 1.482 10.062 0.31299 1.319-0.38501 1.473-0.19601 1.469 1.781-0.003998 2.435-1.518 5.811-2.969 6.625-1.838 1.031-0.905 1.661 1.5 1 11.605-3.19 40.648-17.568 42.969-21.281 0.72301-1.157 1.47-2.111 1.687-2.125 0.839-0.053986 9.188 8.087 10.094 9.844 1.504 2.913 1.188 4.015-2.719 9.843-6.393 9.539-8.504 11.257-20.937 16.688-19.044 8.318-29.043 13.673-36.469 19.562-2.515 1.995-6.542 5.121-8.937 6.938-3.058 2.319-4.659 4.05-5.375 5.844-1.265 3.166-4.763 20.127-7.907 38.312-2.806 16.238-5.466 29.066-6.312 30.438-0.69099 1.12-0.51799-1.075 1.469-19.157l1.343-12.25-1.437-5.75c-3.483-14.164-7.409-23.908-17.437-43.281-11.555-22.321-15.221-30.839-15.219-35.406 0.000397-0.92499 0.7342-2.556 1.6252-3.594 2.386-2.781 2.644-5.362 0.969-9.906-0.789-2.139-2.09-6.112-2.9067-8.813-3.5336-11.688-5.8514-46.001-3.3438-49.437 0.8573-1.175 0.9353-1.152 3.0313 0.34399 1.3692 0.97601 1.8872 1.28 1.9062 0.96802 0.584 0.716 1.584 1.469 1.281 1.282-1.317-0.81598 1.359 3.572 5.657 9.281 2.352 3.125 4.838 6.796 5.531 8.156 0.692 1.36 1.946 2.936 2.75 3.5 1.745 1.225 2.112 1.26 3.969 0.28101 2.931-1.544 8.318-6.419 21.093-19.062l9.219-9.125 2.937 2.062c5.265 3.719 10.982 3.051 14.5-1.718l1.219-1.657-3.156-3.218c-1.728-1.758-3.002-3.267-2.844-3.375 0.158-0.10901 2.803-1.455 5.906-3 3.104-1.546 7.229-4.257 9.157-6 3.198-2.894 3.446-3.27 2.687-4.532-0.593-0.98602-0.633-1.764-0.15601-2.656 1.158-2.169 0.783-3.926-0.96899-4.594-1.309-0.49802-1.625-1.086-1.625-2.906 0-2.853-2.002-4.517-4.344-3.625-1.45 0.55301-1.562 0.45599-1.562-1.656 0-1.878-0.246-2.341-1.625-2.688-0.446-0.112-0.929-0.16101-1.406-0.15601-4.609 0.048004-10.406 5.347-12.313 11.656-0.68401 2.266-2.099 5.02-3.312 6.407l-2.157 2.468-2.406-2.375-2.375-2.343-3.5 1.906-3.531 1.875 1.281 3.437c0.709 1.869 1.313 3.902 1.313 4.532 0 1.305-8.983 8.626-13.625 11.125-7.112 3.827-9.216 2.855-13.594-6.407-1.561-3.302-2.844-6.323-2.844-6.687 0-0.36499-0.673-2.037-1.281-2.531-0.23701-0.19299-0.882-0.51099-1.594-0.84399 0.19-0.29401 0.389-0.59 0.594-0.875 0.19299-0.143 0.773 0.15399 1.25 0.46899-0.132 0.28799-0.227 0.55002-0.219 0.68701 0.020996 0.35998 0.189 0.246 0.375-0.21899 0.043999-0.10901 0.109-0.17602 0.157-0.25 0.102 0.078979 0.198 0.164 0.25 0.21899 0.018997-0.093994 0.118-0.26102 0.218-0.43701 0.17 0.042999 0.355 0.181 0.625 0.40601 1.035 0.85998 5.203 0.27701 5.875-0.81299 0.579-0.93802-0.831-2.218-3.875-3.468-0.95-0.39099-1.539-0.56-1.812-0.56299-0.799-0.728-2.624-1.995-4.281-3.656-1.465-1.468-3.51-4.264-4.532-6.219-1.399-2.678-2.279-3.668-3.625-3.937-1.7634-0.354-7.0294-5.404-6.8435-6.563 0.052795-0.32901 1.7109-0.51599 3.6875-0.43701l3.594 0.125 2.156-3.625c2.141-3.605 2.939-4.233 3.719-2.969 1.097 1.779 2.136 0.31699 3.156-4.438 0.6-2.799 1.094-5.832 1.094-6.718 0-0.88699 0.761-3.134 1.687-4.969 1.381-2.734 2.421-3.733 5.813-5.688 4.414-2.544 6.012-4.379 7.75-8.843 1.586-4.075 1.375-8.416-0.563-12.313-3.815-7.672-8.339-10.934-19.25-13.75-5.763-1.488-7.6194-1.704-12.375-1.375-7.0138 0.48498-14.165 2.481-19.656 5.469-5.6366 3.066-8.1462 5.579-10.656 10.687-1.8531 3.772-2.1002 4.857-2.0937 9.813 0.008801 6.666 1.8443 11.176 5.5313 13.625 1.5894 1.055 2.901 2.9 4.4062 6.156 1.1799 2.553 2.1563 5.048 2.1563 5.531 0 1.219-2.4602 2.639-5.3125 3.063-2.068 0.30701-2.7706 0.01001-5.1876-2.063l-2.8125-2.375-6.25 0.188c-5.82 0.17499-6.5159 0.04599-10.375-1.813-2.2784-1.097-4.2399-2-4.3437-2s-0.5775 0.90298-1.0313 2c-0.7626 1.845-0.6712 2.157 1.0313 3.938 1.0128 1.059 1.716 1.996 1.5625 2.125s-1.7741 1.085-3.5938 2.094c-2.9421 1.63-3.5216 2.333-5.3437 6.468-1.1269 2.558-2.9742 7.189-4.0938 10.25-1.1195 3.061-2.3393 6.288-2.7187 7.188-0.9459 2.244-3.8125 10.599-3.8125 11.125 0 0.23498 3.7276-1.473 8.25-3.781 4.5224-2.309 8.3426-4.033 8.5312-3.844 0.2779 0.27802-6.3372 31.277-11.375 53.312-1.0688 4.676-1.8967 5.629-3.375 3.844-0.5523-0.66699-0.5685-1.802-0.0312-4.312 0.3983-1.861 0.5806-3.733 0.4062-4.188-0.1743-0.45502-1.6548-1.557-3.3125-2.437l-3-1.594-2.4687 2.844c-1.6549 1.924-2.853 2.78-3.7188 2.625-1.1519-0.207-1.4456 0.56-2.75 7.625-0.79784 4.321-1.6264 9.828-1.875 12.25-0.45025 4.385-0.46307 4.407 1.7812 6.656 2.1772 2.181 6.0246 3.567 7.9062 2.844 0.4633-0.17899 1.2164-1.846 1.6875-3.688 0.4712-1.842 1.1307-3.344 1.4688-3.344s2.09 0.75 3.875 1.657c3.6825 1.869 3.6767 1.884 2.5 9.812-0.4052 2.73-0.5925 5.126-0.4063 5.313 0.1863 0.186 3.2257 0.75 6.75 1.281 3.5243 0.53 6.5099 1.072 6.625 1.187 0.1152 0.116-0.2437 1.056-0.7812 2.094-4.3169 8.338-1.942 28.505 6.5 55.281 1.1921 3.782 2.3098 8.356 2.5 10.157 0.1901 1.8 1.2923 7.099 2.4375 11.781 2.6725 10.925 2.8072 16.316 0.5 21.281-1.8586 4-4.0693 6.444-9.5313 10.5-4.2601 3.163-9.6743 9.177-18.719 20.781l-6.2813 8.032 2.0313 7.031c3.7253 12.902 4.3999 14.82 12.25 34.656l5 12.594 4.5937-0.375c7.204-0.565 7.5313-0.66901 7.5313-2.8441 0-4.408 7.8063-30.554 14.875-49.781 9.0654-24.659 12.653-34.314 15-40.281l2.5938-6.532-2.4063-32.093c-2.1366-28.53-2.4036-34.451-1.5312-32.094 0.1333 0.35998 1.9777 3.75 4.125 7.531 2.1472 3.781 5.6683 10.311 7.8125 14.5 3.7406 7.308 21.36 40.335 23.375 43.813 1.061 1.83 1.046 1.884-17.687 33.031-9.787 16.272-14.77 28.631-21.062 52.281-1.6165 6.075-2.8568 11.11-2.75 11.187 0.7979 0.58301 52.908 3.494 59.313 3.313 6.402-0.18097 6.277-0.117 5-1.5309-1.066-1.18-0.936-1.25 3.5-1.688l4.593-0.469v-2.281c0-9.457 6.184-14.334 9.594-7.562 0.787 1.562 1.632 4.426 1.875 6.375l0.438 3.562h5.468c5.453 0 5.5-0.006958 5.5-1.687 0-1.654-1.089-15.287-1.593-20.063l-0.25-2.406 7.781 0.375 7.781 0.406v-1.5c0-0.82495-0.602-4.912-1.312-9.093-0.71001-4.182-2.593-16.382-4.219-27.094l-2.969-19.469v-37.969l4.938-3.125c9.671-6.117 35.983-23.475 41.312-27.25 2.979-2.11 5.553-3.698 5.719-3.531 0.166 0.16699-1.935 4.402-4.688 9.406-13.485 24.52-18.124 34.037-20.406 41.844-1.386 4.743-1.337 3.583-3.781 72.125l-0.375 11.219 4.906 0.468c2.702 0.25403 6.254 0.35101 7.906 0.21899 1.653-0.13098 3-0.074951 3 0.125 0 0.20099-2.174 1.026-4.843 1.813-2.669 0.78699-5.677 2.129-6.688 3-1.683 1.451-1.842 2.0129-2.062 6.875-0.13301 2.919-0.077011 5.974 0.125 6.7809l0.343 1.4691 13.438-0.188 13.437-0.187v-3.407c0.035004-8.317 6.036-13.469 9.25-7.937 0.64601 1.112 1.359 3.449 1.563 5.2191 0.761 6.598 0.33301 6.187 6.187 6.187h5.188v-1.875c0-1.029-0.319-5.807-0.71899-10.594-0.65201-7.803-0.632-8.751 0.313-9.281 0.94899-0.53198 0.976-0.758 0.092987-2.469-1.244-2.411-1.263-4.881-0.030991-5.906 0.528-0.43799 2.342-1.13 4.031-1.562 1.69-0.43201 3.395-1.279 3.75-1.8441 0.97401-1.546-0.73599-6.013-7.812-20.656-11.462-23.721-14.205-31.632-14.094-40.531 0.171-13.663 5.578-27.307 16.5-41.594 15.953-20.867 17.991-24.149 19.875-32.156 3.351-14.24-2.009-25.931-16.125-35.063-2.045-1.323-4.02-3.041-4.375-3.812-0.926-2.012 0.87599-10.106 3.313-14.938 1.615-3.203 1.906-4.435 1.593-6.719-0.27599-2.025-0.16499-2.781 0.438-2.781 1.208 0 5.265 4.445 12.531 13.75 3.516 4.502 7.628 9.504 9.156 11.125 1.529 1.621 6.83 8.829 11.782 16.031 4.951 7.203 9.594 13.899 10.312 14.875 1.273 1.73 1.309 1.942 0.28101 8.188-1.543 9.385-1.738 11.34-1.906 21.687-0.16901 10.448-0.32101 10.037 4.688 11.594l2.281 0.719 0.406 14.031c0.21799 7.711 0.72501 16.533 1.125 19.594 0.401 3.061 0.806 9.248 0.90601 13.75l0.188 8.187-2.188-0.218c-2.081-0.20404-2.175-0.13702-1.843 1.625 0.19202 1.018 0.86801 12.703 1.5 25.937l-0.188 55.156 5.656 1.969c3.459 0 8.164-31.836 7.688-32.313 0.14099 0.075012 0.94 0.62903 1.062 0.5 0.14899-0.15497 0.88699-5.58 1.657-12.062 0.76901-6.482 1.536-12.802 1.687-14.062 1.35-11.22 1.84-21.258 2.906-59.157 0.30298-10.735 0.70499-19.673 0.90698-19.875 0.20102-0.20196 5.011 0.14905 10.687 0.78204 7.425 0.82696 12.562 1.022 18.281 0.71796l7.938-0.406 4.937 7.031c2.713 3.876 7.246 10.093 10.094 13.813 5.47 7.145 8.555 12.976 10.219 19.406 1.388 5.366 1.313 6.25-0.5 6.25-1.47 0-1.479 0.088013-1 4.406 0.26999 2.431 0.508 8.42 0.53101 13.282 0.037994 7.939-0.27499 10.394-3 24.406-2.961 15.225-3.094 15.684-5.562 18.812-1.391 1.763-2.532 3.499-2.532 3.844 0 0.34503 0.72 1.186 1.594 1.875 1.357 1.07 1.668 2.047 2.125 6.75 0.51599 5.312 0.57999 5.525 2.25 5.7191 1.699 0.19696 1.746 0.28094 1.406 4.0309-0.30902 3.417-0.20801 3.898 1.032 4.562 0.763 0.41003 2.909 0.797 4.781 0.875 3.38 0.143 3.415 0.133 4.969-2.656l1.562-2.812 1.719 1.718c2.743 2.749 11.639 6.702 17.437 7.75 6.554 1.185 10.244 1.255 12.375 0.28204 2.864-1.307 2.142-3.543-2.218-6.75-2.385-1.754-3.125-2.681-3.125-4.032 0-1.044-0.62399-2.257-1.5-2.968-1.918-1.557-1.425-1.992 1.375-1.188 4.062 1.168 3.875 1.712 3.875-11.469v-12.125l3.281-12.593c1.793-6.928 4.271-16.412 5.531-21.094 1.261-4.681 2.28-9.846 2.281-11.469 0.001984-1.623 0.33899-3.992 0.71899-5.25 0.38101-1.258 0.944-3.894 1.25-5.875 0.40298-2.603 1.59-5.316 4.313-9.812 2.071-3.421 5.011-8.884 6.531-12.125 2.532-5.397 3.51-8.192 5.469-15.781 0.38-1.472 2.236-5.28 4.156-8.469 2.688-4.465 4.33-6.385 7.094-8.344l3.593-2.531 6.532 6.75c23.208 23.97 28.462 29.209 32.343 32.344l4.313 3.5-1.188 4.593c-1.788 6.827-2.804 19.795-2.406 30.719 0.39499 10.833-0.40201 17.119-4.469 34.687-1.278 5.524-2.168 10.206-1.968 10.407 0.20001 0.19995 2.718 0.12 5.625-0.21906 2.907-0.33899 5.413-0.47797 5.531-0.28094 0.11801 0.19696 0.396 3.235 0.65601 6.75 0.42899 5.792 0.61398 6.433 1.875 6.718 4.21 0.953 7.254 1.55 7.344 1.438 0.05603-0.069946 0.896-1.672 1.844-3.563 2.58-5.146 4.276-4.722 7.562 1.969 2.114 4.304 3.769 5.395 10.125 6.688 15.66 3.185 22.223-5.068 8.125-10.219-3.826-1.398-6.283-3.623-8.344-7.563-1.047-2.002-1.121-1.972 2.375-2.437 1.734-0.22998 3.654-0.77295 4.25-1.219 0.97998-0.73297 0.98297-1.093 0.125-3.562-0.521-1.503-1.264-4.729-1.656-7.188-0.39099-2.458-2.427-12.565-4.531-22.468-5.022-23.64-5.624-26.814-7.219-37.657-1.751-11.911-2.745-15.329-6.219-21.062-1.577-2.604-4.229-7.739-5.875-11.406-1.644-3.668-4.379-9.375-6.062-12.657-1.682-3.282-3.14-6.146-3.25-6.375-0.10998-0.229 0.62-0.716 1.625-1.093 1.005-0.37799 4.187-1.606 7.062-2.719l5.219-2.031 2.469 2.812c1.355 1.54 3.698 5.314 5.219 8.375 1.52 3.061 2.867 5.682 2.968 5.844 0.10199 0.16199 1.168-0.72699 2.407-1.969 1.415-1.419 3.49-4.99 5.531-9.656 3.094-7.072 4.258-9.031 8.187-13.531l1.719-1.969-0.312 2.281c-0.84796 5.958-1.823 19.002-1.625 21.906 0.19299 2.846 0.48901 3.406 2.312 4.469 1.142 0.66602 4.062 1.555 6.469 2l4.344 0.813 6.781 17.312c3.729 9.528 6.781 17.924 6.781 18.656 0 3.423-4.515 19.141-11.687 40.625-4.322 12.947-8.199 25.051-8.594 26.906-0.69 3.241-0.62598 3.553 1.656 8.094 2.961 5.892 7.517 10.841 11.781 12.844 4.731 2.221 10.929 2.148 15.688-0.18799 4.608-2.26 13.373-9.31 15.969-12.843 3.064-4.171 3.174-5.43 0.71802-7.9691-2.544-2.631-4.612-8.802-7.281-21.781-3.103-15.094-2.517-24.144 2.313-37 2.693-7.171 2.673-9.35 0.125-21.781-2.74-13.368-4.807-27.598-4.125-28.282 0.565-0.56601 12.95-2.154 13.656-1.75 0.25598 0.147 2.099 3.158 4.125 6.657 2.026 3.498 6.119 10.489 9.094 15.531 9.281 15.729 9.081 15.14 8.656 23.531-0.28198 5.568-1.054 9.931-3.375 19.031-5.792 22.709-7.647 35.974-8.531 60.719l-0.313 9h1.688c1.517 0 1.662-0.198 1.281-1.719-0.23602-0.94196-0.55298-2.652-0.71899-3.781-0.245-1.67 0.005005-1.394 1.344 1.437 1.538 3.253 1.769 3.473 3.75 3.282 2.067-0.20001 2.119-0.30402 2.312-3.688 0.17401-3.034 0.43701-3.534 1.907-4.094 0.92304-0.35101 2.632-0.47101 3.812-0.25 1.738 0.32703 2.186 0.19702 2.438-0.78101 0.216-0.84198 0.35303-0.68597 0.40601 0.53101 0.046021 1.05 0.69898 2.216 1.687 2.938 0.90399 0.66003 2.654 3.128 3.844 5.4691 2.034 3.999 2.301 4.273 4.625 4.468 1.854 0.15601 2.863-0.18097 4.031-1.281 1.551-1.459 2.279-0.90601 0.78198 0.59399-0.60998 0.61102 0.633 0.81201 5.562 0.81201 5.467 0 6.498-0.18298 7.625-1.312 2.526-2.5309 0.724-8.157-2.781-8.6559-0.93201-0.13306-1.523-0.71405-1.656-1.657-0.19501-1.374 0.030029-1.468 3.375-1.468 5.572 0 5.701-0.17004 4.187-4.157-1.8-4.741-5.516-18.543-7-25.968-1.551-7.761-2.347-15.322-3.625-34.063-1.191-17.475-2.68-31.906-3.656-35.625-1.41-5.373-12.686-29.126-21.156-44.562-1.186-2.161-2.376-5.418-2.625-7.219-0.80798-5.836-5.367-22.704-8.719-32.187-5.359-15.161-8.674-30.351-9.656-44.344l-0.375-5.313 3.875 5.907c6.79 10.352 13.904 18.461 24.062 27.437 10.523 9.298 16.226 16.397 24.156 30 2.467 4.231 4.824 7.688 5.219 7.688 0.39502 0 1.172-0.936 1.719-2.094 0.92499-1.958 1.017-0.75601 1.375 16.875l0.406 18.937 2.906 11.813c4.178 16.903 4.65 21.353 4 37.156-0.29901 7.287-0.46301 26.054-0.375 41.719l0.157 28.5 5.625 2.437c3.104 1.351 6.03 2.469 6.5 2.469 1.218 0 1.071 0.92902-0.71899 4.4691-2.324 4.596-3.833 10.396-3.406 13.031 0.758 4.682 5.197 7.375 12.187 7.375 5.318 0 8.557-1.132 10.125-3.5309 0.95599-1.4611 1.039-2.564 0.53101-8.407-0.32098-3.696-0.47504-9.165-0.34302-12.156 0.22601-5.137 0.32098-5.49 1.906-6.094l1.687-0.625-0.437-6.687c-0.91101-14.117-3.669-41.623-4.625-46.156-0.54999-2.609-1.432-8.085-1.969-12.188-0.88599-6.774-0.89697-7.741 0.062988-10.562 0.815-2.398 0.99603-4.606 0.71802-9.656-0.26099-4.753-0.107-7.253 0.56299-9.157 1.253-3.559 1.17-5.651-0.375-8.687-1.432-2.815-1.75-10.129-0.68799-16.344 0.30798-1.801 0.94-8.4 1.407-14.656l0.875-11.375 1.843 2.187c2.907 3.441 7.39 13.275 9.657 21.188 2.364 8.252 3.852 12.489 6.062 16.719v-229.56c-0.54999-0.207-1.096-0.011017-1.875 0.40601-0.927 0.49698-4.084 3.279-7.031 6.188-7.454 7.356-10.362 13.513-8.25 17.469 0.66101 1.238 7.899 5.155 9.531 5.156 0.82098 0 0.737 6.141-0.125 10.969l-0.469 2.781h2.063c1.222 0 1.924 0.272 1.687 0.65601-0.22198 0.35998-1.353 0.655-2.5 0.65601-5.77 0.006989-8.479 4.622-11.906 20.282-2.35 10.741-5.285 18.561-10.125 26.843-0.94702 1.621-4.032 7.084-6.844 12.125-2.811 5.042-7.156 12.527-9.656 16.657-6.666 11.013-6.935 13.014-1.594 12.281l2.938-0.438-0.313 3.094c-0.16199 1.697-0.37701 3.439-0.5 3.844-0.33398 1.102-9.274 1.702-13.406 0.90601-1.976-0.38101-5.194-1.515-7.156-2.5-3.922-1.968-11.383-8.912-15.563-14.531-3.818-5.135-10.443-16.2-14.5-24.219-4.655-9.202-8.881-15.555-11.187-16.75-1.216-0.63-4.815-1.14-10.063-1.406-4.496-0.229-8.187-0.65701-8.187-0.96899 0-0.31201 1.502-2.495 3.344-4.844 1.841-2.348 3.205-4.419 3.031-4.593-0.17401-0.17499-4.528 1.582-9.688 3.906-5.159 2.323-9.575 4.115-9.812 3.969-0.237-0.147-0.36798-1.882-0.31299-3.844 0.086975-3.061 0.34399-3.769 1.907-5 1.79-1.411 1.867-1.387 4.031-0.21899 1.795 0.96899 2.501 1.019 3.844 0.40601 3.925-1.792 5.193-9.642 2.468-15.281l-1.406-2.906 1.906-4.563c1.047-2.505 2.524-7.337 3.313-10.718 1.408-6.038 1.433-6.233 0.31201-11.125-1.439-6.284-3.497-10.162-8.093-15.25-4.625-5.121-9.52-8.273-13.594-8.782-1.715-0.21402-5.039-0.94-7.375-1.593-2.336-0.65399-6.687-1.378-9.656-1.594-4.738-0.345-6-0.168-10.438 1.344-3.682 1.254-5.826 2.461-7.875 4.437-2.938 2.833-7.811 9.974-10.969 16.125-1.4 2.729-1.917 3.286-2.125 2.313-0.59003-2.764 0.46301-12.021 1.813-16.063 1.321-3.953 1.406-5.925 0.375-8.594-0.27899-0.72101 0.025024-1.167 0.93701-1.406 0.73798-0.19299 1.541-0.87 1.782-1.5 0.70099-1.83-0.97797-7.019-2.782-8.625-1.79-1.595-4.759-1.961-6-0.71899-1.59 1.594-1.522-0.168 0.18799-5.312 1.674-5.038 1.77-7.219 0.375-7.219zm-418.06 102.88c-0.014999 0.067993-0.015999 0.12399 0.030998 0.125 0.059006 0.001007 0.036003-0.053009-0.030998-0.125zm394-51.594c0.018005-0.016998 0.076996-0.009003 0.15698 0 1.201 0.13898 8.987 3.094 9.687 3.719 0.30298 0.271 0.10901 1.183-0.43701 2.031-1.267 1.967-2.613 5.549-4.313 11.438-0.74802 2.59-2.518 6.392-3.969 8.531-1.435 2.117-3.221 5.691-3.968 7.938-0.74799 2.246-1.616 4.238-1.938 4.437-0.32101 0.199-0.89801 1.544-1.281 2.969-0.383 1.425-0.95801 2.594-1.281 2.594-0.323 0-1.56 1.01-2.75 2.25-1.378 1.434-3.066 2.408-4.625 2.687-2.803 0.50198-3.25-0.091003-0.78198-1.031 1.828-0.69699 3.786-4.544 3.157-6.188-0.25198-0.65701 0.98102-2.545 3.5-5.406 2.141-2.432 4.655-5.654 5.593-7.156 4.145-6.635 5.771-16.82 3.938-24.719-0.49298-2.123-0.81-3.971-0.68799-4.094zm26.157 14.188c0.23401 0 0.60199 1.488 0.84302 3.312 0.242 1.825 0.81897 3.693 1.282 4.157 0.46301 0.46301 1.299 1.913 1.843 3.218 1.362 3.264 6.281 8.388 10.938 11.375 3.157 2.025 3.799 2.748 3.469 3.813-0.72198 2.329-1.098 8.705-0.65698 11.062 0.54999 2.937 3.32 6.282 5.219 6.282 3.23 0 5.625-4.509 5.625-10.594v-3.906l2.719 2.312c1.506 1.292 4.327 2.861 6.25 3.469l3.5 1.094-0.219 4.312-0.156 4.281-13.094 0.719c-7.187 0.40298-13.202 0.76498-13.375 0.81299-0.172 0.046997 2.139 1.624 5.125 3.5l5.438 3.437-2.25 0.781c-6.449 2.237-11.627 6.276-13.969 10.907-1.303 2.576-1.807 4.889-2.25 10.25-0.58899 7.119-3.153 36.956-4.875 56.687-1.331 15.246-1.289 15.083-4.375 18.438-3.584 3.895-7.069 5.853-13.25 7.437-2.815 0.72101-5.248 1.436-5.406 1.594-0.15799 0.15799 0.83502 0.746 2.187 1.312 1.352 0.56598 2.313 1.125 2.156 1.282-0.15601 0.15601-2.782 0.83402-5.843 1.5l-5.563 1.218-5.906-6.25c-8.379-8.857-8.11-8.184-5.063-13.187 14.94-24.531 22.761-48.715 21.594-66.719-0.22101-3.421-1.244-11.354-2.281-17.656-1.808-10.99-1.84-11.524-0.75-13.094 0.625-0.89999 1.733-2.841 2.469-4.281 0.73498-1.441 2.343-3.74 3.593-5.094 1.685-1.824 2.571-3.644 3.407-7.062 0.62-2.538 2.074-6.59 3.25-9 1.175-2.411 2.364-5.692 2.625-7.313 0.26099-1.621 0.87799-3.746 1.375-4.719 0.49603-0.97202 0.90601-2.917 0.90601-4.312 0-1.806 0.42401-2.956 1.5-3.969 0.83203-0.78302 1.735-1.406 1.969-1.406zm-171.12 10.094c0.93201-0.18799 2.154 5.639 1.437 8.5-0.43201 1.726-2.542 2.35-3.375 1-0.36301-0.58899 0.31-4.522 1.469-8.719 0.13901-0.504 0.29599-0.74701 0.46899-0.78101zm-96.032 3.281c0.53-0.071014 2.001 1.026 4.094 3.062 5.403 5.256 9.2 8.059 21.094 15.625l10.531 6.688-1.125 1.75c-6.914 10.729-18.585 21-30.969 27.281l-3.593 1.813 2.281 0.968c1.249 0.517 5.39 1.467 9.219 2.125 3.829 0.659 9.946 2.23 13.593 3.5 13.077 4.553 35.691 13.116 36.063 13.657 0.63101 0.918-0.574 7.971-2.031 11.875-0.754 2.017-2.523 5.408-3.938 7.531-1.414 2.122-2.958 4.144-3.406 4.5-1.672 1.326-12.218-1.583-21.781-6.031-8.192-3.811-13.12-7.321-18.157-12.938-8.875-9.898-12.482-15.876-15.093-24.875-0.81799-2.819-2.216-6.193-3.063-7.469-2.444-3.681-7.86-7.169-14.656-9.437-3.748-1.251-6.156-2.395-6.156-2.938 0-0.49002 1.247-1.871 2.75-3.062 1.502-1.191 4.05-3.4 5.656-4.938 1.909-1.827 3.302-2.669 4.031-2.437 0.614 0.19501 1.616 0.138 2.219-0.093994 2.755-1.059 4.02-8.316 1.969-11.25-0.925-1.323-0.90701-1.782 0-4.906 1.12-3.861 2.588-5.527 6.906-7.688 1.617-0.80902 3.149-1.817 3.406-2.218 0.036987-0.057983 0.080994-0.083984 0.15601-0.093994zm331.91 1.375c0.48901-0.026001 0.93402 0.676 1.781 2.594 1.618 3.664 1.47 8.993-0.31299 11.718-1.267 1.939-4.322 2.329-5.656 0.71899-0.659-0.79602-0.53601-1.575 0.53101-4.094 0.72498-1.71 1.502-4.627 1.75-6.5 0.24896-1.872 0.867-3.764 1.375-4.187 0.19-0.15799 0.36902-0.242 0.53198-0.25zm-44.532 10.781c0.13098 0 1.45 0.59198 2.938 1.313 1.488 0.72 3.005 1.312 3.344 1.312 0.87604 0 1.406 1.682 1.406 4.469 0 3.399-1.043 6.619-2.719 8.406-1.739 1.855-1.908 1.85-3.937 0.25-2.917-2.299-4.046-9.086-2.219-13.469 0.521-1.248 1.057-2.281 1.187-2.281zm-298.72 2.5c0.577 0.033997 1.242 2.379 1.25 4.781 0.006989 2.077-0.41301 3.533-1.344 4.719-1.336 1.702-2.84 2.238-3.469 1.219-0.278-0.452 2.625-9.713 3.313-10.563 0.076996-0.095001 0.16699-0.16101 0.25-0.15601zm-140.53 5.188c0.027 0 0.038002 0.001007 0.062004 0 0.065994 0.15701 0.079994 0.31702 0.062996 0.5-0.325-0.246-0.315-0.5-0.125-0.5zm-11.969 25.187c-0.072998 0.32001-0.115 0.58499-0.156 0.81299-0.025002-0.354 0.010002-0.64798 0.156-0.81299zm454.91 25.5c0.046021-0.015991 0.078003-0.009003 0.125 0 0.172 0.03299 0.36298 0.22598 0.56201 0.56299 0.32098 0.54001 2.408 3.329 4.657 6.187 8.549 10.864 14.183 20.405 14.812 25.188 0.75098 5.709-10.252 27.511-18.469 36.625-2.229 2.472-4.362 3.419-5.093 2.218-2.846-4.673-2.368-27.938 1.281-59.906 0.86603-7.588 1.443-10.641 2.125-10.875zm-46.063 84.375c1.145-0.049011 2.361 0.10199 2.625 0.53101 0.19 0.30798-0.32901 1.191-1.156 1.969-1.457 1.371-1.536 1.389-2.594 0.21899-0.599-0.664-1.093-1.547-1.093-1.969 0-0.44 1.074-0.70102 2.218-0.75zm-346.94 117.75c0.012009-0.009949 0.018005-0.007996 0.031006 0 0.035995 0.020996 0.084 0.093018 0.125 0.25 0.16499 0.63 0.16499 1.682 0 2.312-0.164 0.63104-0.312 0.10504-0.312-1.156 0-0.82696 0.069992-1.333 0.15599-1.406zm-34.281 4.031h2.781c4.898 0.018005 5.141 1.132 0.90601 4.406-2.932 2.268-3.687 1.9-3.687-1.906v-2.5zm169.34 32.094l1.375 3.437c0.772 1.891 1.718 3.642 2.094 3.907 0.37698 0.26398 2.064 0.46295 3.75 0.46796l3.063 0.032 1.906-3.938 1.875-3.906-5.719 1.9691-8.344-1.9691z"/>
 <path id="path2497" fill="#7f007f" d="m536.93 260.84c-1.02 0-8.6821 16.076-8.6821 18.219 0.001038 1.072 0.60736 3.811 1.3313 6.094 0.72388 2.282 1.3262 5.118 1.3303 6.281 0.008057 1.847-1.8879 12.609-2.3127 13.125-0.086243 0.10501-1.242-0.297-2.5348-0.90601l-2.3442-1.125-6.0834 3.75c-3.3469 2.055-6.1524 3.642-6.2426 3.531-0.089233-0.112-1.02-1.668-2.0593-3.469-2.9352-5.087-8.7156-10.336-14.733-13.312-22.884-11.32-49.989 2.963-52.154 27.468-1.2238 13.859 6.7658 27.42 19.835 33.625 5.8959 2.8 8.2705 5.03 8.3009 7.75 0.044617 3.847-0.64993 4.232-6.051 3.344-2.6635-0.43701-6.6137-0.996-8.7774-1.25l-3.9289-0.469 3.422 3.719c3.5851 3.876 4.0942 4.938 2.4405 4.938-0.54245 0-3.8022 0.896-7.288 2-5.39 1.706-6.5732 2.319-7.6672 4.093-0.71783 1.163-1.2664 3.26-1.2674 4.75-0.002014 2.33-0.35181 2.947-2.6615 4.782-1.458 1.157-2.6301 2.547-2.6301 3.093 0 0.55298-0.52618 0.94-1.1721 0.875-2.1069-0.211-2.7132 0.028992-3.1056 1.188-0.21292 0.63-1.6192 1.698-3.1046 2.375-3.5933 1.635-11.395 7.805-15.431 12.219-4.1144 4.5-8.4175 11.114-9.9809 15.343-1.1366 3.078-5.3484 12.691-8.3648 19.032-0.74115 1.559-1.7186 2.92-2.1546 3.031-1.7307 0.439-13.589 8.077-13.149 8.469 0.25955 0.23001 3.4219 1.489 7.0345 2.812s7.1258 2.709 7.794 3.063c1.6466 0.87 1.602 4.835-0.094299 8.531-1.6973 3.695-1.747 7.241-0.095306 8.719 0.69553 0.62201 1.6547 1.988 2.0907 3.031 0.43698 1.042 1.3089 2.044 1.9649 2.25 0.65601 0.20599 1.3769 0.80801 1.5837 1.344 0.5769 1.484 3.1958 2.28 4.373 1.312 0.54648-0.449 1.6516-0.99002 2.4709-1.187 1.2765-0.30701 1.5209-0.09198 1.5209 1.468 0 1.622 1.5756 3.887 2.2499 3.219 0.75128-0.74301 3.0417-7.441 3.0417-8.906 0-2.776-1.3982-6.47-3.1685-8.469-0.91052-1.029-2.0583-2.856-2.5662-4.031-0.84152-1.947-0.79694-2.28 0.44308-3.938 1.2552-1.678 3.94-12.263 3.9613-15.625 0.004059-0.78201 1.0494-2.823 2.3442-4.5 2.3553-3.048 3.6146-5.433 4.7208-9.125 0.32446-1.08 0.88107-2.007 1.236-2.031 1.7358-0.11502 5.0229-2.821 5.9881-4.937 0.68237-1.494 2.4861-3.372 4.9114-5.063 2.1191-1.477 5.904-4.963 8.3962-7.75 6.1088-6.829 8.7713-9.375 9.7913-9.375 0.54553 0 0.99976 1.275 1.235 3.531 0.20279 1.942 1.3525 5.694 2.5672 8.344l2.2174 4.844v21.594l-2.3441 4.25c-4.2067 7.743-12.398 25.148-15.272 32.437-1.5564 3.947-3.2567 7.856-3.8022 8.688-0.88416 1.35-0.87097 1.607 0.063843 2.531 0.9541 0.94299 0.89938 1.195-0.38022 2.906-1.024 1.368-1.1984 2.099-0.66611 2.625 0.47046 0.46399 0.52316 1.326 0.15918 2.438-0.31125 0.95001-0.89731 3.955-1.2998 6.656-0.40149 2.701-1.1275 6.091-1.6152 7.531-0.48767 1.441-1.3799 5.7191-1.9964 9.5-0.81113 4.97-1.6527 7.681-2.9788 9.8441-1.0078 1.645-1.9873 3.85-2.2174 4.9059-0.63876 2.934-13.947 29.044-14.702 28.844-0.36401-0.097046-0.85471-3.084-1.0778-6.656-0.22205-3.573-0.63675-7.521-0.91861-8.782-0.46539-2.089-13.025-32.987-17.141-42.156-0.95001-2.115-1.7429-4.126-1.7429-4.437 0-0.31198 1.6364-1.62 3.644-2.938l3.6754-2.406-3.5173-3.656c-6.0145-6.271-12.043-15.167-22.242-32.875l-4.7532-8.25v-5.219c0-8.319 2.9545-15.036 11.565-26.406 7.5049-9.91 11.904-21.697 10.298-27.594-0.39542-1.452-1.5634-4.008-2.5986-5.688-2.6564-4.314-4.0242-8.708-4.0242-13.093 0-7.812 5.032-13.755 18.092-21.438 19.714-11.597 30.686-20.163 31.875-24.844 0.56174-2.214-1.9234-6.631-5.2916-9.375-1.308-1.065-7.1968-4.502-13.086-7.656-18.095-9.69-26.156-14.962-34.505-22.625-6.4181-5.891-6.9281-6.134-11.184-4.937-1.9062 0.535-4.4673 1.229-5.7347 1.531-3.4706 0.827-4.4602 3.008-3.422 7.594 0.45322 2.002 1.4438 4.411 2.186 5.343 2.5064 3.149 8.0261 5.055 17.078 5.938 4.2584 0.41501 4.2696 0.423 17.553 10.281 17.386 12.901 17.585 13.086 17.585 14.281 0 2.25-3.4493 4.49-24.556 15.875-13.286 7.168-20.888 10.938-22.053 10.938-1.0261 0-1.7419-2.775-1.7419-6.656 0-2.454 0.048676-2.536 2.0907-2.375 1.6699 0.13101 2.3056-0.14499 3.0103-1.438 1.0474-1.921 0.62964-6.864-0.88718-10.437-0.62964-1.484-0.84055-3.189-0.5708-4.625 0.85269-4.523 0.43088-12.709-0.88718-16.875-3.281-10.381-8.8291-14.922-19.454-15.907-8.4631-0.784-11.224 0.138-16.16 5.407-5.5238 5.897-7.8477 11.23-9.8532 22.593-0.90543 5.129-1.968 10.563-2.3766 12.063-0.86484 3.175-5.6535 13.656-6.2416 13.656-0.22 0-4.5048-2.864-9.5054-6.375s-11.676-8.146-14.861-10.281c-3.1837-2.136-5.7976-4.127-5.7976-4.406 0-0.867 9.7406-11.261 14.131-15.094 14.383-12.558 25.971-18.351 36.184-18.063 7.4087 0.20999 9.5592-1.052 11.945-7 2.0876-5.203 1.7956-6.218-1.7744-6.218-1.2512 0-4.3699-0.88901-6.9392-1.969-7.8882-3.318-10.19-2.714-15.652 4.156-3.1218 3.926-3.6024 4.23-19.644 12.406-15.787 8.046-25.862 13.846-27.566 15.875-1.3779 1.642-2.2083 1.069-4.9428-3.406-3.7251-6.098-4.5139-6.829-6.9706-6.344-1.6192 0.31998-2.4141 0.057983-3.8336-1.281-2.6098-2.461-11.278-6.317-15.24-6.781-3.0286-0.35501-3.7454-0.19501-6.0835 1.406-2.4242 1.661-2.9586 1.781-6.5904 1.375-4.7826-0.535-5.9942-0.009003-9.8228 4.25-2.3847 2.653-3.4037 3.254-6.4323 3.875-6.2872 1.29-8.5888 4.602-5.8928 8.406 1.6081 2.269 0.69859 4.184-2.8197 6.063-4.1002 2.19-4.5616 3.642-2.5033 7.469 1.9092 3.548 2.0096 5.354 0.50694 8.468-0.95206 1.974-0.97537 2.681-0.25348 5.063 0.46133 1.521 1.7713 3.631 2.915 4.687 1.967 1.816 2.2864 1.894 6.2102 1.532 2.2823-0.211 4.151-0.23599 4.151-0.031982 0 0.20499-0.73204 0.93799-1.6162 1.625-4.52 3.514-3.3378 13.032 1.6162 13.032 1.9944 0 4.0272-2.016 3.9289-3.907-0.045624-0.87701-0.1237-0.86102-0.44409 0-0.20076 0.53998-0.80708 1.495-1.3627 2.125-3.5102 3.983-7.728-3.385-4.9742-8.687 1.5391-2.962 2.9687-2.93 3.8336 0.093994 0.7574 2.644 2.7163 5.156 4.0556 5.156 2.475 0 2.918 7.595 0.72902 12.625l-1.0768 2.469-3.8346-1.907c-7.6205-3.768-13.392-4.073-16.349-0.84302-1.6314 1.782-2.2367 9.4-2.7558 34.625l-0.4755 22.437h-8.4915c-9.4942 0-17.456-0.92001-21.292-2.437-1.4093-0.55798-2.7051-0.896-2.8836-0.71899-0.17844 0.176 0.74118 3.206 2.0278 6.719 1.2866 3.512 2.3127 6.828 2.3127 7.343 0 0.75998-3.5892 2.844-4.9104 2.844-0.18454 0-0.76956-0.83099-1.2998-1.844-1.5857-3.032-7.1582-8.775-9.4415-9.718-2.1515-0.88901-8.1752-0.595-8.1752 0.40601 0 0.26901 1.6284 1.16 3.644 1.969 6.7212 2.696 9.3847 6.717 6.2741 9.5-1.2998 1.162-1.4043 1.163-3.2952-0.21899-2.3087-1.687-2.8836-1.758-3.9928-0.43799-1.6608 1.978 2.3158 4.731 10.837 7.5 4.3375 1.41 6.1402 1.482 10.202 0.31299 1.3373-0.38501 1.4935-0.19601 1.4894 1.781-0.004059 2.435-1.5391 5.811-3.0103 6.625-1.8636 1.031-0.91759 1.661 1.5209 1 11.766-3.19 41.213-17.568 43.567-21.281 0.73308-1.157 1.4905-2.111 1.7105-2.125 0.85068-0.053986 9.3158 8.087 10.234 9.844 1.5249 2.913 1.2045 4.015-2.7568 9.843-6.4819 9.539-8.6223 11.257-21.228 16.688-19.309 8.318-29.447 13.673-36.976 19.562-2.55 1.995-6.633 5.121-9.0613 6.938-3.1005 2.319-4.7238 4.05-5.4498 5.844-1.2826 3.166-4.8292 20.127-8.017 38.312-2.845 16.238-5.542 29.066-6.3998 30.438-0.70061 1.12-0.52519-1.075 1.4894-19.157l1.3617-12.25-1.457-5.75c-3.5314-14.164-7.512-23.908-17.68-43.281-11.716-22.321-15.433-30.839-15.431-35.406 0.000397-0.92499 0.74441-2.556 1.6478-3.594 2.4192-2.781 2.6808-5.362 0.98248-9.906-0.79997-2.139-2.1191-6.112-2.9471-8.813-3.5828-11.688-5.9328-46.001-3.3903-49.437 0.86922-1.175 0.9483-1.152 3.0735 0.34399 1.3882 0.97601 1.9134 1.28 1.9327 0.96802 0.59212 0.716 1.606 1.469 1.2988 1.282-1.3353-0.81598 1.3779 3.572 5.7357 9.281 2.3847 3.125 4.9053 6.796 5.6079 8.156 0.70162 1.36 1.9731 2.936 2.7882 3.5 1.7693 1.225 2.1414 1.26 4.0242 0.28101 2.9718-1.544 8.4337-6.419 21.386-19.062l9.3472-9.125 2.9779 2.062c5.3382 3.719 11.135 3.051 14.702-1.718l1.236-1.657-3.1999-3.218c-1.752-1.758-3.0438-3.267-2.8836-3.375 0.1602-0.10901 2.842-1.455 5.9881-3 3.1472-1.546 7.3296-4.257 9.2844-6 3.2425-2.894 3.4939-3.27 2.7244-4.532-0.60126-0.98602-0.6418-1.764-0.15817-2.656 1.1741-2.169 0.7939-3.926-0.98248-4.594-1.3272-0.49802-1.6476-1.086-1.6476-2.906 0-2.853-2.0298-4.517-4.4044-3.625-1.4702 0.55301-1.5837 0.45599-1.5837-1.656 0-1.878-0.24942-2.341-1.6476-2.688-0.45221-0.112-0.94192-0.16101-1.4256-0.15601-4.6731 0.048004-10.551 5.347-12.484 11.656-0.69353 2.266-2.1282 5.02-3.3581 6.407l-2.187 2.468-2.4395-2.375-2.408-2.343-3.5487 1.906-3.5801 1.875 1.2988 3.437c0.71886 1.869 1.3312 3.902 1.3312 4.532 0 1.305-9.1079 8.626-13.814 11.125-7.2109 3.827-9.3442 2.855-13.783-6.407-1.5827-3.302-2.8836-6.323-2.8836-6.687 0-0.36499-0.68236-2.037-1.2988-2.531-0.2403-0.19299-0.89427-0.51099-1.6162-0.84399 0.19264-0.29401 0.39441-0.59 0.60226-0.875 0.19568-0.143 0.78374 0.15399 1.2674 0.46899-0.13384 0.28799-0.23016 0.55002-0.22205 0.68701 0.021286 0.35998 0.19162 0.246 0.38022-0.21899 0.044609-0.10901 0.11051-0.17602 0.15918-0.25 0.10342 0.078979 0.20075 0.164 0.25348 0.21899 0.019257-0.093994 0.11964-0.26102 0.22103-0.43701 0.17236 0.042999 0.35993 0.181 0.6337 0.40601 1.0494 0.85998 5.2754 0.27701 5.9567-0.81299 0.58704-0.93802-0.84256-2.218-3.9289-3.468-0.96322-0.39099-1.5604-0.56-1.8372-0.56299-0.8101-0.728-2.6605-1.995-4.3406-3.656-1.4854-1.468-3.5588-4.264-4.595-6.219-1.4185-2.678-2.3107-3.668-3.6754-3.937-1.7879-0.354-7.1272-5.404-6.9387-6.563 0.053528-0.32901 1.7347-0.51599 3.7388-0.43701l3.644 0.125 2.186-3.625c2.1708-3.605 2.9799-4.233 3.7707-2.969 1.1123 1.779 2.1657 0.31699 3.1999-4.438 0.60834-2.799 1.1092-5.832 1.1092-6.718 0-0.88699 0.77158-3.134 1.7105-4.969 1.4002-2.734 2.4547-3.733 5.8938-5.688 4.4754-2.544 6.0956-4.379 7.8578-8.843 1.6081-4.075 1.3941-8.416-0.57082-12.313-3.8681-7.672-8.455-10.934-19.518-13.75-5.8432-1.488-7.7254-1.704-12.547-1.375-7.1114 0.48498-14.362 2.481-19.93 5.469-5.715 3.066-8.2595 5.579-10.804 10.687-1.8789 3.772-2.1294 4.857-2.1228 9.813 0.008926 6.666 1.87 11.176 5.6082 13.625 1.6115 1.055 2.9414 2.9 4.4675 6.156 1.1963 2.553 2.1863 5.048 2.1863 5.531 0 1.219-2.4944 2.639-5.3864 3.063-2.0968 0.30701-2.8091 0.01001-5.2598-2.063l-2.8516-2.375-6.3369 0.188c-5.901 0.17499-6.6065 0.04599-10.519-1.813-2.3101-1.097-4.2989-2-4.4041-2-0.10524 0-0.58553 0.90298-1.0456 2-0.77321 1.845-0.68054 2.157 1.0456 3.938 1.0269 1.059 1.7399 1.996 1.5842 2.125-0.15564 0.129-1.7988 1.085-3.6438 2.094-2.983 1.63-3.5706 2.333-5.418 6.468-1.1426 2.558-3.0156 7.189-4.1507 10.25s-2.3718 6.288-2.7565 7.188c-0.95906 2.244-3.8655 10.599-3.8655 11.125 0 0.23498 3.7794-1.473 8.3648-3.781 4.5853-2.309 8.4586-4.033 8.6499-3.844 0.28176 0.27802-6.4254 31.277-11.533 53.312-1.0837 4.676-1.9231 5.629-3.422 3.844-0.55998-0.66699-0.57641-1.802-0.031635-4.312 0.40384-1.861 0.58868-3.733 0.41185-4.188-0.17672-0.45502-1.6778-1.557-3.3586-2.437l-3.0417-1.594-2.503 2.844c-1.6779 1.924-2.8927 2.78-3.7705 2.625-1.1679-0.207-1.4658 0.56-2.7882 7.625-0.80894 4.321-1.649 9.828-1.9011 12.25-0.45651 4.385-0.46951 4.407 1.806 6.656 2.2075 2.181 6.1084 3.567 8.0162 2.844 0.46974-0.17899 1.2333-1.846 1.711-3.688 0.47775-1.842 1.1464-3.344 1.4892-3.344s2.1191 0.75 3.9289 1.657c3.7337 1.869 3.7278 1.884 2.5348 9.812-0.41084 2.73-0.60074 5.126-0.41195 5.313 0.18889 0.186 3.2706 0.75 6.8439 1.281 3.5733 0.53 6.6004 1.072 6.7172 1.187 0.1168 0.116-0.24709 1.056-0.79207 2.094-4.3769 8.338-1.969 28.505 6.5904 55.281 1.2087 3.782 2.3419 8.356 2.5348 10.157 0.19275 1.8 1.3103 7.099 2.4714 11.781 2.7097 10.925 2.8462 16.316 0.50696 21.281-1.8845 4-4.1259 6.444-9.6639 10.5-4.3194 3.163-9.8089 9.177-18.979 20.781l-6.3687 8.032 2.0596 7.031c3.7771 12.902 4.4611 14.82 12.42 34.656l5.0696 12.594 4.6576-0.375c7.3042-0.565 7.6361-0.66901 7.6361-2.8441 0-4.408 7.9149-30.554 15.082-49.781 9.1915-24.659 12.829-34.314 15.209-40.281l2.6299-6.532-2.4398-32.093c-2.1663-28.53-2.437-34.451-1.5525-32.094 0.13516 0.35998 2.0052 3.75 4.1824 7.531 2.1771 3.781 5.7472 10.311 7.9212 14.5 3.7926 7.308 21.657 40.335 23.7 43.813 1.0758 1.83 1.0606 1.884-17.933 33.031-9.9231 16.272-14.975 28.631-21.356 52.281-1.639 6.075-2.8965 11.11-2.7882 11.187 0.809 0.58301 53.644 3.494 60.138 3.313 6.491-0.18097 6.3643-0.117 5.0696-1.5309-1.0808-1.18-0.94902-1.25 3.5487-1.688l4.6569-0.469v-2.281c0-9.457 6.27-14.334 9.7275-7.562 0.79796 1.562 1.6547 4.426 1.9011 6.375l0.4441 3.562h5.544c5.5288 0 5.5765-0.006958 5.5765-1.687 0-1.654-1.1041-15.287-1.6151-20.063l-0.2535-2.406 7.8892 0.375 7.8892 0.406v-1.5c0-0.82495-0.61038-4.912-1.3302-9.093-0.71988-4.182-2.6291-16.382-4.2777-27.094l-3.0103-19.469v-37.969l5.0067-3.125c9.8055-6.117 36.484-23.475 41.887-27.25 3.0204-2.11 5.6302-3.698 5.7986-3.531 0.1683 0.16699-1.9619 4.402-4.7532 9.406-13.672 24.52-18.376 34.037-20.69 41.844-1.4053 4.743-1.3556 3.583-3.8336 72.125l-0.3802 11.219 4.9742 0.468c2.7396 0.25403 6.341 0.35101 8.016 0.21899 1.676-0.13098 3.0417-0.074951 3.0417 0.125 0 0.20099-2.2042 1.026-4.9104 1.813-2.7061 0.78699-5.756 2.129-6.781 3-1.7064 1.451-1.8676 2.0129-2.0907 6.875-0.13487 2.919-0.078079 5.974 0.12674 6.7809l0.3477 1.4691 13.625-0.188 13.624-0.187v-3.407c0.035492-8.317 6.12-13.469 9.3787-7.937 0.655 1.112 1.3779 3.449 1.5848 5.2191 0.77159 6.598 0.33765 6.187 6.2731 6.187h5.2602v-1.875c0-1.029-0.32342-5.807-0.72899-10.594-0.66107-7.803-0.64079-8.751 0.31735-9.281 0.96219-0.53198 0.98958-0.758 0.094284-2.469-1.2613-2.411-1.2806-4.881-0.031418-5.906 0.53534-0.43799 2.3746-1.13 4.0871-1.562 1.7135-0.43201 3.4422-1.279 3.8022-1.8441 0.98756-1.546-0.74623-6.013-7.9206-20.656-11.621-23.721-14.403-31.632-14.29-40.531 0.17339-13.663 5.6556-27.307 16.73-41.594 16.175-20.867 18.241-24.149 20.151-32.156 3.3976-14.24-2.0369-25.931-16.349-35.063-2.0734-1.323-4.0759-3.041-4.4358-3.812-0.93887-2.012 0.88818-10.106 3.3591-14.938 1.6374-3.203 1.9325-4.435 1.6151-6.719-0.27982-2.025-0.16728-2.781 0.44411-2.781 1.2248 0 5.3382 4.445 12.705 13.75 3.5649 4.502 7.7341 9.504 9.2834 11.125 1.5503 1.621 6.925 8.829 11.946 16.031 5.0199 7.203 9.7275 13.899 10.455 14.875 1.2907 1.73 1.3272 1.942 0.28494 8.188-1.5645 9.385-1.7622 11.34-1.9325 21.687-0.17136 10.448-0.3255 10.037 4.7532 11.594l2.3127 0.719 0.4117 14.031c0.22104 7.711 0.73511 16.533 1.1407 19.594 0.40659 3.061 0.8172 9.248 0.91861 13.75l0.1906 8.187-2.2184-0.218c-2.1099-0.20404-2.2053-0.13702-1.8686 1.625 0.1947 1.018 0.8801 12.703 1.5209 25.937l-0.1906 55.156 5.7347 1.969c3.5071 0 8.2776-31.836 7.7949-32.313 0.14298 0.075012 0.95309 0.62903 1.0768 0.5 0.15106-0.15497 0.89935-5.58 1.68-12.062 0.77969-6.482 1.5574-12.802 1.7105-14.062 1.3688-11.22 1.8656-21.258 2.9464-59.157 0.30719-10.735 0.71481-19.673 0.91962-19.875 0.2038-0.20196 5.0807 0.14905 10.836 0.78204 7.5283 0.82696 12.737 1.022 18.535 0.71796l8.0484-0.406 5.0057 7.031c2.7507 3.876 7.3468 10.093 10.234 13.813 5.5461 7.145 8.674 12.976 10.361 19.406 1.4073 5.366 1.3313 6.25-0.50696 6.25-1.4904 0-1.4996 0.088013-1.0139 4.406 0.27374 2.431 0.51508 8.42 0.53839 13.282 0.038544 7.939-0.27881 10.394-3.0417 24.406-3.0022 15.225-3.137 15.684-5.6394 18.812-1.4103 1.763-2.5672 3.499-2.5672 3.844 0 0.34503 0.73001 1.186 1.6162 1.875 1.3759 1.07 1.6912 2.047 2.1546 6.75 0.52316 5.312 0.58804 5.525 2.2813 5.7191 1.7227 0.19696 1.7703 0.28094 1.4256 4.0309-0.31332 3.417-0.21091 3.898 1.0463 4.562 0.77362 0.41003 2.9495 0.797 4.8475 0.875 3.427 0.143 3.4625 0.133 5.0381-2.656l1.5837-2.812 1.7429 1.718c2.7812 2.749 11.801 6.702 17.68 7.75 6.6451 1.185 10.386 1.255 12.547 0.28204 2.9038-1.307 2.1718-3.543-2.2489-6.75-2.4182-1.754-3.1685-2.681-3.1685-4.032 0-1.044-0.63269-2.257-1.5209-2.968-1.9447-1.557-1.4448-1.992 1.3941-1.188 4.1185 1.168 3.9289 1.712 3.9289-11.469v-12.125l3.3266-12.593c1.818-6.928 4.3304-16.412 5.6079-21.094 1.2785-4.681 2.3117-9.846 2.3127-11.469 0.002014-1.623 0.34372-3.992 0.729-5.25 0.38629-1.258 0.95712-3.894 1.2674-5.875 0.40857-2.603 1.6121-5.316 4.373-9.812 2.0998-3.421 5.0807-8.884 6.6219-12.125 2.5672-5.397 3.5588-8.192 5.5451-15.781 0.38528-1.472 2.2671-5.28 4.2138-8.469 2.7254-4.465 4.3903-6.385 7.1927-8.344l3.643-2.531 6.6228 6.75c23.531 23.97 28.858 29.209 32.793 32.344l4.373 3.5-1.2045 4.593c-1.8129 6.827-2.843 19.795-2.4395 30.719 0.40048 10.833-0.40759 17.119-4.5312 34.687-1.2958 5.524-2.1982 10.206-1.9954 10.407 0.20279 0.19995 2.7558 0.12 5.7032-0.21906 2.9474-0.33899 5.4883-0.47797 5.6079-0.28094 0.11963 0.19696 0.40149 3.235 0.6651 6.75 0.435 5.792 0.62256 6.433 1.9011 6.718 4.2686 0.953 7.3549 1.55 7.4461 1.438 0.056824-0.069946 0.90851-1.672 1.8697-3.563 2.6159-5.146 4.3354-4.722 7.6672 1.969 2.1434 4.304 3.8214 5.395 10.266 6.688 15.878 3.185 22.532-5.068 8.238-10.219-3.8792-1.398-6.3704-3.623-8.4601-7.563-1.0615-2.002-1.1366-1.972 2.4081-2.437 1.7581-0.22998 3.7048-0.77295 4.3091-1.219 0.99365-0.73297 0.99664-1.093 0.12677-3.562-0.52826-1.503-1.2816-4.729-1.6791-7.188-0.39642-2.458-2.4608-12.565-4.594-22.468-5.0919-23.64-5.7023-26.814-7.3194-37.657-1.7753-11.911-2.7832-15.329-6.3055-21.062-1.5989-2.604-4.2878-7.739-5.9567-11.406-1.6668-3.668-4.4399-9.375-6.1463-12.657-1.7054-3.282-3.1837-6.146-3.2952-6.375-0.11151-0.229 0.62866-0.716 1.6476-1.093 1.019-0.37799 4.2452-1.606 7.1602-2.719l5.2916-2.031 2.5034 2.812c1.3738 1.54 3.7494 5.314 5.2916 8.375 1.5412 3.061 2.9069 5.682 3.0093 5.844 0.10339 0.16199 1.1842-0.72699 2.4404-1.969 1.4348-1.419 3.5386-4.99 5.608-9.656 3.137-7.072 4.3172-9.031 8.3009-13.531l1.7429-1.969-0.3163 2.281c-0.85974 5.958-1.8483 19.002-1.6476 21.906 0.19568 2.846 0.49579 3.406 2.3442 4.469 1.1578 0.66602 4.1185 1.555 6.559 2l4.4044 0.813 6.8754 17.312c3.7808 9.528 6.8753 17.924 6.8753 18.656 0 3.423-4.5778 19.141-11.85 40.625-4.3821 12.947-8.313 25.051-8.7135 26.906-0.69958 3.241-0.6347 3.553 1.679 8.094 3.0022 5.892 7.6215 10.841 11.945 12.844 4.7968 2.221 11.081 2.148 15.906-0.18799 4.6722-2.26 13.559-9.31 16.191-12.843 3.1066-4.171 3.2181-5.43 0.72797-7.9691-2.5794-2.631-4.6762-8.802-7.3823-21.781-3.1462-15.094-2.5521-24.144 2.3452-37 2.7305-7.171 2.7102-9.35 0.12677-21.781-2.7781-13.368-4.8739-27.598-4.1824-28.282 0.57282-0.56601 13.13-2.154 13.846-1.75 0.25952 0.147 2.1282 3.158 4.1824 6.657 2.0541 3.498 6.2041 10.489 9.2205 15.531 9.4101 15.729 9.2073 15.14 8.7764 23.531-0.28589 5.568-1.0687 9.931-3.4219 19.031-5.8726 22.709-7.7534 35.974-8.6497 60.719l-0.3174 9h1.7115c1.5382 0 1.6851-0.198 1.2988-1.719-0.23932-0.94196-0.56067-2.652-0.729-3.781-0.24841-1.67 0.005066-1.394 1.3627 1.437 1.5594 3.253 1.7936 3.473 3.8022 3.282 2.0958-0.20001 2.1485-0.30402 2.3442-3.688 0.17639-3.034 0.44305-3.534 1.9335-4.094 0.93591-0.35101 2.6686-0.47101 3.865-0.25 1.7622 0.32703 2.2164 0.19702 2.4719-0.78101 0.21899-0.84198 0.35791-0.68597 0.41162 0.53101 0.046692 1.05 0.70874 2.216 1.7105 2.938 0.91656 0.66003 2.6909 3.128 3.8975 5.4691 2.0623 3.999 2.333 4.273 4.6893 4.468 1.8798 0.15601 2.9028-0.18097 4.087-1.281 1.5726-1.459 2.3107-0.90601 0.79291 0.59399-0.61847 0.61102 0.64178 0.81201 5.6393 0.81201 5.543 0 6.5884-0.18298 7.7311-1.312 2.5612-2.5309 0.73407-8.157-2.8197-8.6559-0.94495-0.13306-1.5442-0.71405-1.679-1.657-0.19775-1.374 0.030457-1.468 3.4219-1.468 5.6495 0 5.7803-0.17004 4.2452-4.157-1.825-4.741-5.5927-18.543-7.0974-25.968-1.5726-7.761-2.3796-15.322-3.6754-34.063-1.2076-17.475-2.7173-31.906-3.7068-35.625-1.4296-5.373-12.862-29.126-21.45-44.562-1.2024-2.161-2.409-5.418-2.6615-7.219-0.81921-5.836-5.4416-22.704-8.8403-32.187-5.4335-15.161-8.7947-30.351-9.7903-44.344l-0.3802-5.313 3.9289 5.907c6.8845 10.352 14.097 18.461 24.397 27.437 10.669 9.298 16.452 16.397 24.492 30 2.5013 4.231 4.891 7.688 5.2916 7.688 0.40051 0 1.1883-0.936 1.7429-2.094 0.93787-1.958 1.0312-0.75601 1.3941 16.875l0.4117 18.937 2.9464 11.813c4.2361 16.903 4.7147 21.353 4.0557 37.156-0.30322 7.287-0.46948 26.054-0.38025 41.719l0.1592 28.5 5.7032 2.437c3.1472 1.351 6.1139 2.469 6.5904 2.469 1.235 0 1.0859 0.92902-0.729 4.4691-2.3563 4.596-3.8863 10.396-3.4534 13.031 0.76856 4.682 5.2693 7.375 12.356 7.375 5.392 0 8.6761-1.132 10.266-3.5309 0.9693-1.4611 1.0535-2.564 0.53839-8.407-0.32544-3.696-0.48163-9.165-0.34778-12.156 0.22913-5.137 0.32544-5.49 1.9325-6.094l1.7105-0.625-0.4431-6.687c-0.92371-14.117-3.72-41.623-4.6893-46.156-0.55762-2.609-1.4519-8.085-1.9964-12.188-0.89832-6.774-0.90942-7.741 0.063904-10.562 0.82629-2.398 1.0099-4.606 0.72797-9.656-0.26459-4.753-0.10846-7.253 0.57086-9.157 1.2704-3.559 1.1862-5.651-0.38025-8.687-1.4519-2.815-1.7744-10.129-0.69757-16.344 0.31226-1.801 0.95306-8.4 1.4266-14.656l0.8871-11.375 1.8687 2.187c2.9474 3.441 7.4928 13.275 9.7913 21.188 2.3969 8.252 3.9056 12.489 6.1464 16.719v-229.56c-0.55768-0.207-1.1113-0.011017-1.9011 0.40601-0.93988 0.49698-4.1408 3.279-7.1288 6.188-7.5577 7.356-10.506 13.513-8.3648 17.469 0.67017 1.238 8.0088 5.155 9.6636 5.156 0.8324 0 0.74725 6.141-0.12677 10.969l-0.4755 2.781h2.0917c1.239 0 1.9507 0.272 1.7104 0.65601-0.22504 0.35998-1.3718 0.655-2.5348 0.65601-5.8503 0.006989-8.5969 4.622-12.072 20.282-2.3826 10.741-5.3585 18.561-10.266 26.843-0.9602 1.621-4.0881 7.084-6.9392 12.125-2.8502 5.042-7.2556 12.527-9.7903 16.657-6.7587 11.013-7.0314 13.014-1.6162 12.281l2.9789-0.438-0.3174 3.094c-0.16425 1.697-0.38226 3.439-0.50696 3.844-0.33862 1.102-9.403 1.702-13.592 0.90601-2.0035-0.38101-5.2663-1.515-7.2556-2.5-3.9765-1.968-11.541-8.912-15.779-14.531-3.8712-5.135-10.588-16.2-14.702-24.219-4.7198-9.202-9.0045-15.555-11.343-16.75-1.233-0.63-4.882-1.14-10.203-1.406-4.5585-0.229-8.3008-0.65701-8.3008-0.96899 0-0.31201 1.5229-2.495 3.3905-4.844 1.8666-2.348 3.2496-4.419 3.0731-4.593-0.17639-0.17499-4.591 1.582-9.8228 3.906-5.2307 2.323-9.7082 4.115-9.9485 3.969-0.2403-0.147-0.37305-1.882-0.31732-3.844 0.088196-3.061 0.34876-3.769 1.9335-5 1.8149-1.411 1.8929-1.387 4.087-0.21899 1.82 0.96899 2.5358 1.019 3.8975 0.40601 3.9796-1.792 5.2653-9.642 2.5024-15.281l-1.4256-2.906 1.9326-4.563c1.0615-2.505 2.5591-7.337 3.3591-10.718 1.4276-6.038 1.4529-6.233 0.31634-11.125-1.459-6.284-3.5456-10.162-8.2056-15.25-4.6893-5.121-9.6524-8.273-13.783-8.782-1.7388-0.21402-5.1091-0.94-7.4775-1.593-2.3685-0.65399-6.78-1.378-9.7903-1.594-4.8039-0.345-6.0834-0.168-10.583 1.344-3.7332 1.254-5.907 2.461-7.9845 4.437-2.9789 2.833-7.9196 9.974-11.122 16.125-1.4195 2.729-1.9437 3.286-2.1545 2.313-0.59827-2.764 0.46942-12.021 1.8382-16.063 1.3394-3.953 1.4255-5.925 0.38019-8.594-0.28284-0.72101 0.025391-1.167 0.95007-1.406 0.74823-0.19299 1.5624-0.87 1.8068-1.5 0.71075-1.83-0.99158-7.019-2.8207-8.625-1.8149-1.595-4.8253-1.961-6.0834-0.71899-1.6122 1.594-1.5432-0.168 0.19055-5.312 1.6973-5.038 1.7947-7.219 0.38025-7.219zm-423.88 102.88c-0.015213 0.067993-0.016228 0.12399 0.031425 0.125 0.05983 0.001007 0.036507-0.053009-0.031425-0.125zm399.48-51.594c0.01825-0.016998 0.078064-0.009003 0.15918 0 1.2177 0.13898 9.112 3.094 9.8217 3.719 0.30719 0.271 0.11054 1.183-0.44305 2.031-1.2846 1.967-2.6494 5.549-4.373 11.438-0.75842 2.59-2.553 6.392-4.0242 8.531-1.455 2.117-3.2658 5.691-4.0232 7.938-0.75839 2.246-1.6385 4.238-1.9649 4.437-0.3255 0.199-0.91052 1.544-1.2988 2.969-0.38834 1.425-0.97134 2.594-1.2988 2.594-0.32748 0-1.5817 1.01-2.7882 2.25-1.3972 1.434-3.1086 2.408-4.6893 2.687-2.842 0.50198-3.2952-0.091003-0.79288-1.031 1.8534-0.69699 3.8386-4.544 3.2009-6.188-0.25549-0.65701 0.99466-2.545 3.5487-5.406 2.1708-2.432 4.7198-5.654 5.6708-7.156 4.2026-6.635 5.8512-16.82 3.9928-24.719-0.49988-2.123-0.82129-3.971-0.69757-4.094zm26.521 14.188c0.23724 0 0.61035 1.488 0.85474 3.312 0.24536 1.825 0.83038 3.693 1.2998 4.157 0.46948 0.46301 1.3171 1.913 1.8686 3.218 1.381 3.264 6.3684 8.388 11.09 11.375 3.2009 2.025 3.8519 2.748 3.5173 3.813-0.73206 2.329-1.1133 8.705-0.66614 11.062 0.55762 2.937 3.3662 6.282 5.2916 6.282 3.2749 0 5.7032-4.509 5.7032-10.594v-3.906l2.7568 2.312c1.5269 1.292 4.3872 2.861 6.3369 3.469l3.5487 1.094-0.222 4.312-0.1582 4.281-13.276 0.719c-7.287 0.40298-13.386 0.76498-13.561 0.81299-0.17438 0.046997 2.1688 1.624 5.1963 3.5l5.5136 3.437-2.2812 0.781c-6.5387 2.237-11.789 6.276-14.163 10.907-1.3211 2.576-1.8322 4.889-2.2813 10.25-0.59717 7.119-3.1968 36.956-4.9428 56.687-1.3495 15.246-1.3069 15.083-4.4358 18.438-3.6338 3.895-7.1673 5.853-13.434 7.437-2.8542 0.72101-5.321 1.436-5.4812 1.594-0.16022 0.15799 0.84662 0.746 2.2174 1.312 1.3708 0.56598 2.3452 1.125 2.186 1.282-0.1582 0.15601-2.8207 0.83402-5.9243 1.5l-5.6404 1.218-5.9882-6.25c-8.4955-8.857-8.2228-8.184-5.1334-13.187 15.148-24.531 23.078-48.715 21.894-66.719-0.22412-3.421-1.2614-11.354-2.3127-17.656-1.8331-10.99-1.8656-11.524-0.76044-13.094 0.63367-0.89999 1.7571-2.841 2.5033-4.281 0.74524-1.441 2.3756-3.74 3.643-5.094 1.7084-1.824 2.6068-3.644 3.4544-7.062 0.6286-2.538 2.1028-6.59 3.2952-9 1.1913-2.411 2.3969-5.692 2.6616-7.313 0.26459-1.621 0.8902-3.746 1.3941-4.719 0.50293-0.97202 0.91858-2.917 0.91858-4.312 0-1.806 0.42993-2.956 1.5209-3.969 0.84363-0.78302 1.7592-1.406 1.9964-1.406zm-173.51 10.094c0.94498-0.18799 2.184 5.639 1.457 8.5-0.43799 1.726-2.5773 2.35-3.4219 1-0.36804-0.58899 0.3143-4.522 1.4894-8.719 0.14093-0.504 0.30011-0.74701 0.47549-0.78101zm-97.368 3.281c0.53735-0.071014 2.0288 1.026 4.1509 3.062 5.4781 5.256 9.328 8.059 21.387 15.625l10.678 6.688-1.1407 1.75c-7.0102 10.729-18.844 21-31.4 27.281l-3.643 1.813 2.3127 0.968c1.2664 0.517 5.465 1.467 9.3472 2.125 3.8823 0.659 10.084 2.23 13.782 3.5 13.259 4.553 36.187 13.116 36.565 13.657 0.63977 0.918-0.582 7.971-2.0593 11.875-0.7645 2.017-2.5581 5.408-3.9928 7.531-1.4336 2.122-2.9992 4.144-3.4534 4.5-1.6952 1.326-12.388-1.583-22.084-6.031-8.3059-3.811-13.302-7.321-18.41-12.938-8.9984-9.898-12.656-15.876-15.303-24.875-0.82938-2.819-2.2468-6.193-3.1056-7.469-2.478-3.681-7.9693-7.169-14.86-9.437-3.8001-1.251-6.2416-2.395-6.2416-2.938 0-0.49002 1.2643-1.871 2.7882-3.062 1.5229-1.191 4.1063-3.4 5.7347-4.938 1.9356-1.827 3.3479-2.669 4.0871-2.437 0.62254 0.19501 1.6385 0.138 2.2499-0.093994 2.7933-1.059 4.0759-8.316 1.9964-11.25-0.93787-1.323-0.91962-1.782 0-4.906 1.1356-3.861 2.624-5.527 7.002-7.688 1.6395-0.80902 3.1928-1.817 3.4534-2.218 0.037506-0.057983 0.082123-0.083984 0.15817-0.093994zm336.52 1.375c0.49585-0.026001 0.94702 0.676 1.8058 2.594 1.6405 3.664 1.4905 8.993-0.31732 11.718-1.2847 1.939-4.3821 2.329-5.7347 0.71899-0.66815-0.79602-0.54346-1.575 0.53839-4.094 0.73505-1.71 1.5229-4.627 1.7744-6.5 0.25238-1.872 0.87903-3.764 1.3941-4.187 0.19263-0.15799 0.37415-0.242 0.53937-0.25zm-45.151 10.781c0.13275 0 1.4702 0.59198 2.9788 1.313 1.5087 0.72 3.0468 1.312 3.3905 1.312 0.88824 0 1.4256 1.682 1.4256 4.469 0 3.399-1.0575 6.619-2.7568 8.406-1.7632 1.855-1.9346 1.85-3.9918 0.25-2.9576-2.299-4.1023-9.086-2.2499-13.469 0.52826-1.248 1.0717-2.281 1.2036-2.281zm-302.87 2.5c0.58502 0.033997 1.2593 2.379 1.2674 4.781 0.00708 2.077-0.41876 3.533-1.3627 4.719-1.3546 1.702-2.8795 2.238-3.5173 1.219-0.28186-0.452 2.6615-9.713 3.3591-10.563 0.078064-0.095001 0.16931-0.16101 0.25348-0.15601zm-142.49 5.188c0.027374 0 0.038528 0.001007 0.062866 0 0.06691 0.15701 0.081108 0.31702 0.063873 0.5-0.32952-0.246-0.31939-0.5-0.12674-0.5zm-12.136 25.187c-0.074013 0.32001-0.1166 0.58499-0.15816 0.81299-0.025352-0.354 0.010139-0.64798 0.15816-0.81299zm461.23 25.5c0.046692-0.015991 0.079102-0.009003 0.12677 0 0.17438 0.03299 0.36798 0.22598 0.56982 0.56299 0.32544 0.54001 2.4415 3.329 4.7217 6.187 8.6679 10.864 14.38 20.405 15.018 25.188 0.76141 5.709-10.395 27.511-18.726 36.625-2.26 2.472-4.4227 3.419-5.1639 2.218-2.8856-4.673-2.4009-27.938 1.2988-59.906 0.87805-7.588 1.4631-10.641 2.1545-10.875zm-46.704 84.375c1.1609-0.049011 2.3938 0.10199 2.6615 0.53101 0.19263 0.30798-0.33362 1.191-1.1721 1.969-1.4772 1.371-1.5574 1.389-2.6301 0.21899-0.6073-0.664-1.1082-1.547-1.1082-1.969 0-0.44 1.0889-0.70102 2.2489-0.75zm-351.76 117.75c0.012177-0.009949 0.018265-0.007996 0.031433 0 0.036499 0.020996 0.085175 0.093018 0.12674 0.25 0.1673 0.63 0.1673 1.682 0 2.312-0.16628 0.63104-0.31633 0.10504-0.31633-1.156 0-0.82696 0.070969-1.333 0.15816-1.406zm-34.758 4.031h2.8197c4.9661 0.018005 5.2125 1.132 0.91861 4.406-2.9728 2.268-3.7383 1.9-3.7383-1.906v-2.5zm171.7 32.094l1.3941 3.437c0.78272 1.891 1.7419 3.642 2.1231 3.907 0.38223 0.26398 2.0927 0.46295 3.8022 0.46796l3.1056 0.032 1.9325-3.938 1.9011-3.906-5.7986 1.9691-8.4601-1.9691z"/>
</svg>
