<?xml version="1.0" encoding="UTF-8" standalone="no"?>
<svg viewBox="0 0 117.85963 120.52458" xmlns="http://www.w3.org/2000/svg" xmlns:xlink="http://www.w3.org/1999/xlink">
<defs>
<linearGradient id="linearGradient3173-31-2-02">
<stop offset="0" stop-color="#a5a5a5"/>
<stop offset="1"/>
</linearGradient>
<linearGradient id="linearGradient2803-3-4-3-8">
<stop offset="0" stop-color="#fff"/>
<stop offset="1" stop-color="#cbcbcb"/>
</linearGradient>
<linearGradient gradientTransform="matrix(.05383,-1.03411,-1.10995,-.05777,-139.5229,-66.76961)" gradientUnits="userSpaceOnUse" id="linearGradient14893" x1="6.58718" x2="14.5114">
<stop offset="0" stop-color="#b44"/>
<stop offset="1" stop-color="#ee0d0d"/>
</linearGradient>
<linearGradient gradientTransform="matrix(.05763,-1.10719,-1.03363,-.0538,-139.32553,-65.67669)" gradientUnits="userSpaceOnUse" id="linearGradient14895" x1="73.36198" x2="-2.75829" y1="26.6522" y2="21.27038">
<stop offset="0" stop-color="#fff"/>
<stop offset="1" stop-color="#fff" stop-opacity="0"/>
</linearGradient>
<linearGradient gradientUnits="userSpaceOnUse" id="linearGradient14897" x2="0" y1="-150.69685" y2="327.66039">
<stop offset="0" stop-opacity="0"/>
<stop offset=".5"/>
<stop offset="1" stop-opacity="0"/>
</linearGradient>
<linearGradient id="linearGradient5060-2-4-4-9-1-9">
<stop offset="0"/>
<stop offset="1" stop-opacity="0"/>
</linearGradient>
<linearGradient gradientUnits="userSpaceOnUse" id="linearGradient14903" x1="-113.05666" x2="-111.57539">
<stop offset="0" stop-opacity=".0686"/>
<stop offset="1" stop-color="#fff"/>
</linearGradient>
<linearGradient gradientTransform="matrix(.42547,-.86649,.93003,.45667,-275.69274,-8.24319)" gradientUnits="userSpaceOnUse" id="linearGradient14907" x1="6.58718" x2="14.5114">
<stop offset="0" stop-color="#2b435c"/>
<stop offset="1" stop-color="#1f3245"/>
</linearGradient>
<linearGradient gradientTransform="matrix(.45553,-.92772,.86608,.42527,-276.34943,-7.44282)" gradientUnits="userSpaceOnUse" id="linearGradient14909" x1="73.36198" x2="-2.75829" y1="26.6522" y2="21.27038">
<stop offset="0" stop-color="#282828"/>
<stop offset="1" stop-color="#a9a9a9" stop-opacity="0"/>
</linearGradient>
<linearGradient gradientUnits="userSpaceOnUse" id="linearGradient14911" x1="90.68662" x2="94.99912">
<stop offset="0" stop-color="#ffb142"/>
<stop offset="1" stop-color="#c87600"/>
</linearGradient>
<linearGradient id="linearGradient4467-4">
<stop offset="0" stop-color="#fff"/>
<stop offset="1" stop-color="#fff" stop-opacity=".2476"/>
</linearGradient>
<linearGradient gradientTransform="matrix(.12717,-2.44315,-.47718,-.02484,-139.19565,-66.75258)" gradientUnits="userSpaceOnUse" id="linearGradient14891" x1="10.49612" x2="10.2199" xlink:href="#linearGradient2803-3-4-3-8" y1="93.33804" y2="84.28708"/>
<linearGradient gradientTransform="matrix(1.00519,-2.04713,.39983,.19633,-275.96695,-8.37783)" gradientUnits="userSpaceOnUse" id="linearGradient14905" x1="10.49612" x2="10.2199" xlink:href="#linearGradient2803-3-4-3-8" y1="93.33804" y2="84.28708"/>
<radialGradient cx="414.68207" cy="-8.88047" gradientTransform="matrix(-1.8232002e-6,.27968,-.60927,0,101.72623,-39.26045)" gradientUnits="userSpaceOnUse" id="radialGradient14887" r="123.54523">
<stop offset="0" stop-color="#ffb142"/>
<stop offset=".8868" stop-color="#ffb141"/>
<stop offset="1" stop-color="#c87600"/>
</radialGradient>
<radialGradient cx="18.24093" cy="21.81799" gradientUnits="userSpaceOnUse" id="radialGradient14917" r="8.30851">
<stop offset="0" stop-color="#729fcf" stop-opacity=".2078"/>
<stop offset="1" stop-color="#729fcf" stop-opacity=".6762"/>
</radialGradient>
<radialGradient cx="610.45734" cy="483.44724" gradientTransform="matrix(0,-.48219,.4319,-1.2541889e-6,-151.96816,551.34635)" gradientUnits="userSpaceOnUse" id="radialGradient14889" r="167.56416" xlink:href="#linearGradient3173-31-2-02"/>
<radialGradient cx="605.71429" cy="486.64789" gradientTransform="matrix(2.77439,0,0,1.96971,-1891.633,-872.8854)" gradientUnits="userSpaceOnUse" id="radialGradient14899" r="117.14286" xlink:href="#linearGradient5060-2-4-4-9-1-9"/>
<radialGradient cx="605.71429" cy="486.64789" gradientTransform="matrix(-2.77439,0,0,1.96971,112.7623,-872.8854)" gradientUnits="userSpaceOnUse" id="radialGradient14901" r="117.14286" xlink:href="#linearGradient5060-2-4-4-9-1-9"/>
<radialGradient cx="380.25662" cy="622.48694" gradientTransform="matrix(0,-.74351,.66041,0,-364.70066,582.13395)" gradientUnits="userSpaceOnUse" id="radialGradient14913" r="59.2546" xlink:href="#linearGradient3173-31-2-02"/>
<radialGradient cx="371.45444" cy="647.68732" gradientTransform="matrix(0,-.74351,-.66041,0,552.03191,582.13395)" gradientUnits="userSpaceOnUse" id="radialGradient14915" r="59.2546" xlink:href="#linearGradient3173-31-2-02"/>
<radialGradient cx="15.41437" cy="13.07841" gradientTransform="matrix(3.11542,0,0,2.70588,-75.90531,-278.42765)" gradientUnits="userSpaceOnUse" id="radialGradient14919" r="6.65625" xlink:href="#linearGradient4467-4"/>
<radialGradient cx="15.41437" cy="13.07841" gradientTransform="matrix(3.11542,0,0,2.70588,-112.46726,-278.15979)" gradientUnits="userSpaceOnUse" id="radialGradient14923" r="6.65625" xlink:href="#linearGradient4467-4"/>
</defs>
<g transform="matrix(.95095,0,0,1,-29.8187,-285.5)">
<path d="m81.78118,385.54273c-15.66752,1.61282-33.63754,14.29091-26.49499,17.05577s27.87304,3.91808 31.78992.69241c2.01274-1.65755 5.61385-5.80874 6.03825-9.70397 .42497,3.89491 4.01553,8.04658 6.02807,9.70397 3.91689,3.22567 24.65756,2.07245 31.8001-.69241s-10.82746-15.44295-26.49499-17.05577c-8.06777.77761-10.96962,3.4884-11.33318,6.59829-.36356-3.10989-3.26541-5.82068-11.33318-6.59829z" fill="url(#radialGradient14887)" fill-rule="evenodd" stroke="#000" stroke-width="1.56388"/>
<path d="m81.78374,385.54738c-7.69001.79161-15.92746,4.249-21.48518,7.89147 8.4173,3.89278 18.70904,6.29179 29.86542,6.56775 1.42955-1.88088 2.71021-4.18714 2.95294-6.41501 .24081,2.20701 1.49144,4.49272 2.90203,6.3641 10.97308-.4646 21.05151-2.98006 29.25446-6.9445-5.53778-3.48361-13.43193-6.70294-20.82331-7.46381-8.06777.77762-10.96962,3.4884-11.33318,6.59829-.36356-3.10989-3.26541-5.82068-11.33318-6.59829z" fill-opacity=".3137" fill-rule="evenodd"/>
</g>
<g transform="matrix(.95095,0,0,1,-29.8187,-285.5)">
<path d="m146.27531,340.22539a53.94769,53.94769 0 0,1 -107.89538,0 53.94769,53.94769 0 1,1 107.89538,0z" fill="url(#radialGradient14889)" stroke="#000" stroke-linecap="round" stroke-width="1.56388"/>
<path d="m118.99377,367.19922a26.15335,26.15335 0 1,1 -52.30669,0 26.15335,26.15335 0 1,1 52.30669,0z" fill="#fff" stroke="#000" stroke-linecap="round" stroke-width="1.62921"/>
<path d="m144.15185,325.22596c.10951,1.40269.1731,2.81547.1731,4.24612 0,29.77912-24.1782,53.94714-53.95732,53.94714-24.57503,0-45.31569-16.4592-51.81899-38.94825 2.16988,27.79451 25.42557,49.70103 53.77404,49.70103 29.77913,0 53.95732-24.16802 53.95732-53.94715 0-5.2041-.75099-10.23653-2.12815-14.99889z" fill-opacity=".3137"/>
</g>
<g transform="translate(258.01362,168.45745)">
<path d="m-145.79752-72.90393c2.07275.0096 3.2573-.9214 3.35886-2.76411l1.74536-31.66012c.0147-.26618-.18417-.62508-.45247-.66579l-35.40289-5.37057-.13506,1.41699-6.92423-1.04166c-.67139-.10099-1.26192.13068-1.31651,1.09145l-1.88301,33.15111c-.15528,2.73381 1.95584,5.66174 4.74338,5.67465l36.26657.16804z" fill="#623c3c" stroke="#000" stroke-linecap="round" stroke-linejoin="round" stroke-width="1.08119"/>
<path d="m-175.59718-111.00624-1.77534,31.5076c-.27951,1.67064-1.66547,2.95832-3.39724,2.86817s-2.97657-1.51475-3.08114-3.20536l1.50538-31.52167 .0675.004c-.009,1.79202 1.32967,3.31715 3.13809,3.4113s3.29785-1.28381 3.47528-3.06708l.0674.004z" fill="url(#linearGradient14891)"/>
<path d="m-142.68889-76.34c-.096,1.84303-1.2377,2.79099-3.24234,2.77475l-34.80846-.01854c-3.32907-.0737-5.11106-2.24389-5.54122-4.41602 1.52181,4.68048 9.50148,4.48684 9.7668-1.25096l1.73651-33.36184 33.23363,5.31613c.25848.0414.44557.39987.43173.66529l-1.57665,30.29135z" fill="url(#linearGradient14893)"/>
<path d="m-143.24111-76.57186c-.0947,1.81819-.92188,2.48185-2.89363,2.46609l-32.34547-.27731c1.78652-.919 2.4939-2.51144 2.6295-5.11662l1.68329-32.33949 32.0572,4.72806c.25468.0376.43819.39441.42454.65631l-1.55543,29.88295z" fill="none" stroke="url(#linearGradient14895)" stroke-linecap="round" stroke-miterlimit="20" stroke-width="1.08119"/>
</g>
<g transform="translate(270.11594,91.15104)">
<g transform="matrix(.00935,-.01905,.01888,.00927,-219.99077,-27.88507)">
<path d="m-1559.2523-150.69685h1339.6335v478.35718h-1339.6335z" fill="url(#linearGradient14897)" opacity=".4021"/>
<path d="m-219.61876-150.68038v478.33079c142.87417.90045 345.40022-107.16966 345.40014-239.19618s-159.43682-239.13459-345.40014-239.13462z" fill="url(#radialGradient14899)" opacity=".4021"/>
<path d="m-1559.2523-150.68038v478.33079c-142.8742.90045-345.4002-107.16966-345.4002-239.19618s159.4368-239.13459 345.4002-239.13462z" fill="url(#radialGradient14901)" opacity=".4021"/>
</g>
<path d="m-113.05663-246.67062h2.01579v29.83852h-2.01579z" fill="url(#linearGradient14903)" opacity=".4804" transform="matrix(.44076,-.89763,.88126,.47263,0,0)"/>
<path d="m-267.79955-10.39075c-1.69218-.93281-2.2342-2.22848-1.48068-3.77506l12.94669-26.57242c.10889-.22339.43365-.42543.67059-.33681l31.2653,11.69327-.53307,1.21514 6.11098,2.29412c.59255.22243.96829.67909.5767,1.48621l-13.51125,27.84897c-1.11421,2.29655-4.16201,3.72268-6.43773,2.46814l-29.60753-16.32157z" fill="#242a3a" stroke="#000" stroke-linecap="round" stroke-linejoin="round" stroke-width="1.00789"/>
<path d="m-226.24266-27.89325-12.85309,26.46184c-.53054,1.48723.0137,3.16471 1.46473,3.87723s3.11115.11738 3.96356-1.21181l13.07925-26.35078-.0566-.0278c-.80619,1.46313-2.58811,2.09767-4.10337,1.35364s-2.10276-2.54203-1.43798-4.07461l-.0565-.0278z" fill="url(#linearGradient14905)"/>
<path d="m-268.77151-14.59939c-.75825,1.54425-.25877,2.83432 1.38097,3.7308l28.35248,15.78153c2.74423,1.45073 5.18015.49229 6.51619-1.08123-3.36331,3.12061-9.7731-.65838-7.38528-5.451l13.72617-27.95405-29.4742-10.75318c-.22921-.0836-.54422.12343-.65346.34583l-12.46287,25.38131z" fill="url(#linearGradient14907)"/>
<path d="m-268.21664-14.53758c-.74806,1.52344-.37565,2.43925 1.23709,3.32128l26.46426,14.4531c-1.03901-1.55818-.89101-3.17682.18086-5.3597l13.30552-27.09743-28.24935-10.69811c-.22444-.085-.53579.1223-.64352.3417l-12.29486,25.03916z" fill="none" stroke="url(#linearGradient14909)" stroke-linecap="round" stroke-miterlimit="20" stroke-width="1.00789"/>
</g>
<g transform="matrix(.95095,0,0,1,-29.8187,-285.5)">
<path d="m81.25168,304.32672c-7.47309,0-13.54279,6.9841-13.54279,15.58948s6.0697,15.58948 13.54279,15.58948c4.39173,0 8.28894-2.41465 10.76295-6.15026 2.47384,3.73832 6.37954,6.15026 10.77313,6.15026 7.47309,0 13.54279-6.98411 13.5428-15.58948s-6.06971-15.58948-13.5428-15.58948c-4.39308,0-8.29924,2.41268-10.77313,6.15026-2.47406-3.7348-6.37178-6.15026-10.76295-6.15026z" fill="#fff" stroke="#000" stroke-linecap="round" stroke-width="1.62921"/>
<path d="m92.66203,331.21506c-4.71786,0-9.84597,4.2966-9.64084,7.01024s8.4101,14.02048 10.25621,14.02048 9.02547-11.0807 8.82034-14.24662-6.35885-7.01024-9.43571-6.7841z" fill-opacity=".3137" fill-rule="evenodd"/>
<path d="m91.91737,328.497c-4.71786,0-9.84597,3.89736-9.64085,6.35885s8.4101,12.71771 10.25622,12.71771 9.02547-10.05109 8.82035-12.92283-6.35886-6.35885-9.43572-6.15373z" fill="url(#linearGradient14911)" fill-rule="evenodd" stroke="#000" stroke-width="1.62921"/>
<path d="m87.16293,324.66274a3.38455,3.38455 0 0,1 -6.7691,0 3.38455,3.38455 0 1,1 6.7691,0z" stroke="#000" stroke-linecap="round" stroke-width="1.62921"/>
<path d="m103.76333,324.66274a3.38455,3.38455 0 1,1 -6.7691,0 3.38455,3.38455 0 1,1 6.7691,0z" stroke="#000" stroke-linecap="round" stroke-width="1.62921"/>
</g>
<g transform="matrix(.95095,0,0,1,-29.8187,-285.5)">
<path d="m51.63901,328.16301c15.67663,5.63707-4.61503,30.67561 12.32305,52.52299 3.13081,4.03823-18.85579.68126-26.62868-21.69618-7.55897-21.76158-.36897-35.04071 14.30563-30.82681z" fill="#fff" fill-rule="evenodd" stroke="#000" stroke-width="1.62921"/>
<path d="m51.63901,328.16301c15.67663,5.63707-13.87706,33.27614 12.32305,52.52299 7.37264,5.41601-18.85579.68126-26.62868-21.69618-7.55897-21.76158-.36897-35.04071 14.30563-30.82681z" fill="url(#radialGradient14913)" fill-rule="evenodd" stroke="#000" stroke-width="1.62921"/>
</g>
<g transform="matrix(.95095,0,0,1,-29.8187,-285.5)">
<path d="m135.69223,328.16301c-15.67663,5.63707 4.61504,30.67561-12.32305,52.52299-3.13081,4.03823 18.85579.68126 26.62868-21.69618 7.55898-21.76158.36897-35.04071-14.30563-30.82681z" fill="#fff" fill-rule="evenodd" stroke="#000" stroke-width="1.62921"/>
<path d="m135.69223,328.16301c-15.67663,5.63707 13.87706,33.27614-12.32305,52.52299-7.37264,5.41601 18.85579.68126 26.62868-21.69618 7.55898-21.76158.36897-35.04071-14.30563-30.82681z" fill="url(#radialGradient14915)" fill-rule="evenodd" stroke="#000" stroke-width="1.62921"/>
</g>
<g transform="matrix(.631,0,0,.6888,84.18766,200.21658)">
<path d="m20.92514,12.85623c-.21895,4.42438-3.25363,8.28375-7.61054,9.084" fill="none" stroke="#67473b" stroke-linecap="round" stroke-linejoin="round" stroke-width="3.1778" transform="matrix(-.47429,-.56611,.56611,-.47429,-43.87261,-223.85327)"/>
<g transform="translate(0,.26786)">
<path d="m21.03643,12.46788c0,5.27208-4.27386,9.54594-9.54594,9.54594s-9.54594-4.27386-9.54594-9.54594 4.27386-9.54594 9.54594-9.54594 9.54594,4.27386 9.54594,9.54594z" fill="none" stroke="#67473b" stroke-linecap="round" stroke-linejoin="round" stroke-width="1.44154" transform="matrix(1.62806,0,0,1.62806,-42.38971,-254.87237)"/>
<path d="m25.89779,18.47829c0,4.58866-3.71984,8.30851-8.30851,8.30851s-8.30851-3.71984-8.30851-8.30851 3.71984-8.30851 8.30851-8.30851 8.30851,3.71984 8.30851,8.30851z" fill="url(#radialGradient14917)" fill-rule="evenodd" opacity=".5768" stroke="#3063a3" stroke-linecap="round" stroke-miterlimit="10" stroke-opacity=".4945" stroke-width=".96884" transform="matrix(1.68042,0,0,1.68042,-53.27477,-265.64136)"/>
<path d="m-23.98095-246.78321c-6.25686,0-11.32348,5.06662-11.32348,11.32349 0,1.80701.50499,3.46963 1.25816,4.98607 1.50472.55461 3.10316.93197 4.79967.93197 7.41433,0 13.33567-5.84121 13.79322-13.14085-2.07974-2.45768-5.05832-4.10068-8.52757-4.10068z" fill="url(#radialGradient14919)" fill-rule="evenodd" opacity=".2"/>
</g>
<path d="m21.03643,12.46788c0,5.27208-4.27386,9.54594-9.54594,9.54594s-9.54594-4.27386-9.54594-9.54594 4.27386-9.54594 9.54594-9.54594 9.54594,4.27386 9.54594,9.54594z" fill="none" stroke="#67473b" stroke-linecap="round" stroke-linejoin="round" stroke-width="1.44154" transform="matrix(1.62806,0,0,1.62806,-79.01943,-254.60451)"/>
<path d="m25.89779,18.47829c0,4.58866-3.71984,8.30851-8.30851,8.30851s-8.30851-3.71984-8.30851-8.30851 3.71984-8.30851 8.30851-8.30851 8.30851,3.71984 8.30851,8.30851z" fill="url(#radialGradient14917)" fill-rule="evenodd" opacity=".5768" stroke="#3063a3" stroke-linecap="round" stroke-miterlimit="10" stroke-opacity=".4945" stroke-width="1.23839" transform="matrix(1.68042,0,0,1.68042,-89.8367,-265.3735)"/>
<path d="m-60.54289-246.51535c-6.25687,0-11.32349,5.06662-11.32349,11.32349 0,1.80701.50499,3.46963 1.25817,4.98607 1.50472.55461 3.10315.93197 4.79967.93197 7.41434,0 13.33567-5.84121 13.79323-13.14085-2.07974-2.45768-5.05832-4.10068-8.52757-4.10068z" fill="url(#radialGradient14923)" fill-rule="evenodd" opacity=".2"/>
</g>
</svg>
