<?xml version="1.0" encoding="UTF-8" standalone="no"?>
<svg
   xmlns:dc="http://purl.org/dc/elements/1.1/"
   xmlns:cc="http://creativecommons.org/ns#"
   xmlns:rdf="http://www.w3.org/1999/02/22-rdf-syntax-ns#"
   xmlns:svg="http://www.w3.org/2000/svg"
   xmlns="http://www.w3.org/2000/svg"
   xmlns:sodipodi="http://sodipodi.sourceforge.net/DTD/sodipodi-0.dtd"
   xmlns:inkscape="http://www.inkscape.org/namespaces/inkscape"
   width="358.95203"
   height="261.06992"
   id="svg2"
   version="1.1"
   inkscape:version="0.91 r13725"
   sodipodi:docname="teaching.svg">
  <metadata
     id="metadata122">
    <rdf:RDF>
      <cc:Work
         rdf:about="">
        <dc:format>image/svg+xml</dc:format>
        <dc:type
           rdf:resource="http://purl.org/dc/dcmitype/StillImage" />
        <dc:title></dc:title>
      </cc:Work>
    </rdf:RDF>
  </metadata>
  <defs
     id="defs120" />
  <sodipodi:namedview
     pagecolor="#ffffff"
     bordercolor="#666666"
     borderopacity="1"
     objecttolerance="10"
     gridtolerance="10"
     guidetolerance="10"
     inkscape:pageopacity="0"
     inkscape:pageshadow="2"
     inkscape:window-width="640"
     inkscape:window-height="480"
     id="namedview118"
     showgrid="false"
     fit-margin-top="0"
     fit-margin-left="0"
     fit-margin-right="0"
     fit-margin-bottom="0"
     inkscape:zoom="0.27667057"
     inkscape:cx="586.75"
     inkscape:cy="-165.68008"
     inkscape:window-x="0"
     inkscape:window-y="0"
     inkscape:window-maximized="0"
     inkscape:current-layer="svg2" />
  <g
     id="g4"
     transform="matrix(0.38596217,0,0,0.38596217,0.09649054,0.09649055)"
     style="fill-rule:evenodd;stroke-width:0.5">
    <g
       id="g6"
       style="fill:#ffffff;stroke:#ffffff">
      <path
         d="M 0,426.5 0,0 1173,0 1173,853 0,853 0,426.5 Z M 765.8,121 l 0.2,1 0.2,129.5 q 0.3,129.5 1.6,153.7 1.2,24.3 8.7,25.8 7.5,1.5 8,1.8 l 0.5,0.2 0.2,0 q 0.3,0 0.6,0.5 l 0.2,0.5 1,0 5.2,5 q 5.3,5 8.3,14 3,9 3,24 0,15 -4.5,25 -4.5,10 -4.5,17.5 0,7.5 2.7,15.3 2.8,7.7 5.3,8 l 2.5,0.2 17.5,7.5 q 17.5,7.5 17.7,8.5 0.3,1 0.6,2 l 0.2,1 0.2,0 q 0.3,0 0.6,0.5 l 0.2,0.5 2,0 -7.8,-21.5 q -7.7,-21.5 -7.7,-38.5 0,-17 3,-23 3,-6 12.3,-13.2 9.2,-7.3 13.2,-9.3 4,-2 17.5,-2 13.5,0 21,3 7.5,3 9.7,4.7 2.3,1.8 2.8,2.8 l 0.5,1 0.3,0.2 0.2,0.3 0.2,0.3 0.3,0.2 0.5,1 0.5,1 0.3,0.5 0.2,0.5 0.5,0 0.3,0.2 0.2,0.3 0.2,0.3 0.3,0.2 1,-7 q 1,-7 3.5,-12 2.5,-5 9.8,-10.8 7.2,-5.7 11.2,-7.7 4,-2 16,-1.5 12,0.5 18,3.5 6,3 9.2,7.7 3.3,4.8 4.3,7.3 1,2.5 1.5,4.5 l 0.5,2 0.5,1 0.5,1 0.3,-0.2 0.2,-0.3 6.5,-3.5 q 6.5,-3.5 21.5,-3.5 15,0 23.2,3.3 8.3,3.2 12.8,7.7 4.5,4.5 9,17 4.5,12.5 5.5,19.5 1,7 0.5,20 -0.5,13 -7,28.5 -6.5,15.5 -7.5,21 -1,5.5 1,11.5 2,6 2.5,7.5 l 0.5,1.5 0.3,1.5 0.2,1.5 2,5.2 q 2,5.3 9,6.8 7,1.5 27,10.2 20,8.8 38.8,52.3 18.7,43.5 19.2,45 l 0.5,1.5 0.5,1 0.5,1 0.3,2 0.2,2 -255,0 -5.5,-0.2 -5.5,-0.3 0.2,-0.3 0.3,-0.2 0.5,-1.5 0.5,-1.5 0.5,-1.5 q 0.5,-1.5 5.2,-13.5 l 4.8,-12 0,-0.5 0.2,-0.3 0.3,-0.2 0.5,-1 0.5,-1 0.5,-2 0.5,-2 0.5,-1.5 q 0.5,-1.5 1,-3 l 0.5,-1.5 0.3,-1 0.2,-1 -0.2,-1.5 -0.3,-1.5 -0.3,-0.2 -0.2,-0.3 -0.2,-0.3 -0.3,-0.2 -0.3,0.2 -0.2,0.3 -0.2,0.3 -0.3,0.2 -0.3,-0.2 -0.2,-0.3 -61,0 -0.2,0.3 -0.3,0.2 -0.3,1 -0.2,1 0.2,1 0.3,1 8.5,19 q 8.5,19 9,20.5 l 0.5,1.5 0.3,2 0.2,2 -267,0 0.2,-1.5 0.3,-1.5 0.5,-1 0.5,-1 0.5,-1 q 0.5,-1 8,-20 l 7.5,-19 0.3,-1 0.2,-1 0,-3 -29.5,0.2 -29.5,0.3 -1.5,0.3 -1.5,0.2 0,2.5 0.2,0.3 0.3,0.2 0.5,1 0.5,1 8.5,19.5 q 8.5,19.5 9,20.5 l 0.5,1 0.3,2.5 0.2,2.5 -86,0.2 q -86,0.3 -132.5,0.3 l -46.5,0 -0.2,-0.3 -0.3,-0.2 0,-2 0.5,-1.5 0.5,-1.5 0.5,-1 q 0.5,-1 7.5,-20 l 7,-19 0.3,-0.2 0.2,-0.3 0,-0.5 -0.2,-1 -0.3,-1 -0.3,-0.2 -0.2,-0.3 -18,0 q -18,0 -27.5,0.3 l -9.5,0.2 0,4 0.2,1 0.3,1 7.5,17 q 7.5,17 8,18 l 0.5,1 0.5,1.5 0.5,1.5 0,2 -0.3,0.2 -0.2,0.3 -86,0.5 q -86,0.5 -131.5,0.2 L 19,722 l -0.5,0 0,-3 0.5,-1.5 0.5,-1.5 0.5,-1.5 Q 20.5,713 36,669.5 51.5,626 53.8,625 l 2.2,-1 0.2,-0.5 0.3,-0.5 0.5,0 0.5,-0.2 0.5,-0.3 0.2,-0.3 0.3,-0.2 0.5,0 0,-0.2 q 0,-0.3 1,-0.6 l 1,-0.2 0.2,-0.5 q 0.3,-0.5 0.6,-0.5 l 0.2,0 0.5,-0.2 q 0.5,-0.3 5.7,-3 5.3,-2.8 13.6,-7 8.2,-4.3 13.4,-13.6 l 5.3,-9.2 0.5,-1 0.5,-1 0.5,-1 0.5,-1 0.5,-1 0.5,-1 0.3,-0.2 0.2,-0.3 0.2,-0.3 0.3,-0.2 0.3,-0.2 0.2,-0.3 0,-0.5 0.2,-0.5 q 0.3,-0.5 1.6,-1 1.2,-0.5 1.2,-1.5 l 0,-1 -7.8,-22.5 Q 92.5,530 91.5,526 90.5,522 91,506.5 91.5,491 94.8,483.2 98,475.5 109,467 q 11,-8.5 15.5,-10.5 4.5,-2 18.5,-2 14,0 22.5,3 8.5,3 13.3,7.7 4.7,4.8 8.7,14.3 4,9.5 6,25 2,15.5 1.5,22 -0.5,6.5 -7.5,23.5 -7,17 -7,24.5 0,7.5 2.5,15 2.5,7.5 3,9 l 0.5,1.5 0.5,1.5 0.5,1.5 0.5,1 0.5,1 0.3,-0.2 0.2,-0.3 0.2,-0.3 0.3,-0.2 0.5,-1.5 0.5,-1.5 0.3,-1 0.2,-1 0.2,-0.5 0.3,-0.5 0.3,-0.2 0.2,-0.3 0.2,-0.3 0.3,-0.2 0.3,-0.2 0.2,-0.3 1,-0.5 1,-0.5 1,-0.5 1,-0.5 1,-0.5 q 1,-0.5 2.2,-1.2 1.3,-0.8 14,-7.6 12.8,-6.7 17.6,-15.4 l 4.7,-8.8 0.5,-1 0.5,-1 0.3,-0.2 0.2,-0.3 0.2,-0.3 0.3,-0.2 0.3,-0.2 0.2,-0.3 0.2,-0.3 0.3,-0.2 0.5,-1 0.5,-1 0.5,0 0.2,-0.5 q 0.3,-0.5 1.6,-1.3 1.2,-0.7 -1.6,-8 -2.7,-7.2 -7.7,-22.2 -5,-15 -5.5,-28.5 -0.5,-13.5 1.5,-22 2,-8.5 9.5,-15 7.5,-6.5 14.8,-10.7 7.2,-4.3 20.2,-4.6 l 13,-0.2 0.2,-4 q 0.3,-4 1.8,-25 l 1.5,-21 0.3,-0.2 0.2,-0.3 0,-0.5 0.2,-7.5 q 0.3,-7.5 2.3,-25.5 2,-18 8.5,-50 6.5,-32 8,-33 1.5,-1 17.2,-6.5 l 15.8,-5.5 0,-0.2 q 0,-0.3 0.5,-0.6 l 0.5,-0.2 0,-0.2 q 0,-0.3 0.8,-1.6 l 0.7,-1.2 0.5,-1.5 q 0.5,-1.5 1,-2 l 0.5,-0.5 0.5,-1 0.5,-1 0.5,-1 0.5,-1 0.3,3.5 0.2,3.5 0.5,0 0.3,-1.5 0.2,-1.5 1,0.2 1,0.3 0.2,0.3 0.3,0.2 0.3,0.2 0.2,0.3 0.2,0.3 0.3,0.2 0,-3 -0.3,-0.2 -0.2,-0.3 -0.2,-0.3 -0.3,-0.2 -0.3,-0.2 -0.2,-0.3 -0.2,-0.3 -0.3,-0.2 -0.3,-0.2 -0.2,-0.3 -0.2,-0.3 q -0.3,-0.2 -2.6,-2.4 -2.2,-2.3 -7.4,-13.6 -5.3,-11.2 -5.8,-9.7 -0.5,1.5 -3,-2 -2.5,-3.5 -4.2,-10.3 -1.8,-6.7 -1.8,-8.4 0,-1.8 -1,-2 -1,-0.3 -5.2,-8 -4.3,-7.8 -5.3,-14.8 -1,-7 1,-10.5 2,-3.5 0.3,-5.3 -1.8,-1.7 -1.3,-2.2 l 0.5,-0.5 0.2,-0.3 0.3,-0.2 0.3,-0.2 0.2,-0.3 5,-0.5 q 5,-0.5 10.5,-4 5.5,-3.5 12.5,-6.5 7,-3 18,-3 11,0 18.5,3 7.5,3 8,4.5 0.5,1.5 5.3,6.2 4.7,4.8 5.7,10.8 1,6 -1.5,15.5 -2.5,9.5 -3.5,11.5 -1,2 -0.3,4.2 0.8,2.3 0.6,14.6 -0.3,12.2 -3.8,21.2 -3.5,9 -3,10 0.5,1 1,6.5 l 0.5,5.5 0.3,0.5 0.2,0.5 0.5,0 0.3,0.2 0.2,0.3 0.2,0.3 0.3,0.2 0.5,1 0.5,1 0.3,-0.2 0.2,-0.3 0.2,-0.3 0.3,-0.2 0.3,-0.2 0.2,-0.3 0.2,-0.3 0.3,-0.2 0,-3 q 0,-2 0,-3.5 l 0,-1.5 -0.3,-0.2 -0.2,-0.3 -0.2,-0.3 -0.3,-0.2 -0.3,-1 -0.2,-1 1,0.2 1,0.3 0.2,0.3 0.3,0.2 0.5,1.5 0.5,1.5 2.7,3.2 q 2.8,3.3 16.8,3.3 14,0 17.2,3.3 3.3,3.2 15.8,36.2 12.5,33 16.2,34.8 3.8,1.7 8.8,1.2 5,-0.5 6,-0.8 l 1,-0.2 0,-0.2 q 0,-0.3 0.5,-0.6 l 0.5,-0.2 0,-0.2 q 0,-0.3 0.5,-0.6 l 0.5,-0.2 0.2,-1 0.3,-1 0.3,-0.2 0.2,-0.3 2,0 0,0.5 0.2,0 q 0.3,0 0.3,-15.5 0,-15.5 -1.5,-97 -1.5,-81.5 -2.2,-82.3 -0.8,-0.7 -2,-4 l -1.3,-3.2 -0.3,-3 -0.2,-3 0.2,-1 0.3,-1 0.5,-1.5 0.5,-1.5 0.3,-0.2 0.2,-0.3 66,-0.5 q 66,-0.5 65.5,-1 -0.5,-0.5 5.5,-0.2 6,0.2 6,1.2 0,1 49.5,0.8 49.5,-0.3 70.3,0.4 20.7,0.8 21,1.8 z"
         id="path8"
         inkscape:connector-curvature="0" />
      <path
         d="m 488.8,231 -2.8,-84 138,0.2 138,0.3 0.2,0.3 0.3,0.2 -2,77 q -2,77 -1.7,141 0.2,64 -0.8,64.2 -1,0.3 -2,0.6 l -1,0.2 -0.5,0.2 q -0.5,0.3 -0.5,0.6 l 0,0.2 -1,0.2 q -1,0.3 -10,6.8 -9,6.5 -10.5,9.2 -1.5,2.8 -14,3.6 -12.5,0.7 -16.5,2.7 -4,2 -15,10.5 -11,8.5 -13.8,14.8 -2.7,6.2 -3.4,11.7 l -0.8,5.5 -10,0 0.2,-1 0.3,-1 0.5,-2 q 0.5,-2 0,-11 -0.5,-9 -3.5,-20 -3,-11 -5.5,-14.5 -2.5,-3.5 -8.2,-6.7 -5.8,-3.3 -15.8,-4.3 -10,-1 -14.5,0 -4.5,1 -13,7 l -8.5,6 -0.2,0.3 -0.3,0.2 -0.3,0.2 -0.2,0.3 -0.2,0.3 -0.3,0.2 -0.3,0.2 -0.2,0.3 -2.5,0.3 -2.5,0.2 -4,0.2 q -4,0.3 -6.5,0.8 -2.5,0.5 -7,3 -4.5,2.5 -12.7,9.2 -8.3,6.8 -10.8,11.8 -2.5,5 -3.5,11 l -1,6 -0.3,1.5 -0.2,1.5 -10.5,0 0,-2 0.5,-1.5 q 0.5,-1.5 1,-13.5 0.5,-12 -2.5,-23 -3,-11 -6.3,-15.2 -3.2,-4.3 -8.7,-7 L 506,432 505.5,431.8 Q 505,431.5 503,431 l -2,-0.5 -4.5,-0.3 -4.5,-0.2 0.2,-8 q 0.3,-8 0.3,-36.5 l 0,-28.5 -0.3,-0.2 -0.2,-0.3 -0.2,-0.3 -0.3,-0.2 -0.3,0.2 -0.2,0.3 -0.2,0.3 -0.3,0.2 -0.3,0.2 -0.2,0.3 -0.2,0.3 -0.3,0.2 -0.3,0.2 -0.2,0.3 -0.2,0.3 -0.3,0.2 -0.3,0.2 -0.2,0.3 -0.2,0.3 -0.3,0.2 -0.3,0.2 -0.2,0.3 -0.2,0.3 -0.3,0.2 -0.3,0.2 -0.2,0.3 -0.2,0.3 -0.3,0.2 -0.3,0.2 q -0.2,0.3 -1.2,1.6 l -1,1.2 -0.5,0.2 -0.5,0.3 0,1.5 -0.5,0.2 q -0.5,0.3 -0.5,0.6 l 0,0.2 -0.5,0.2 -0.5,0.3 0,0.5 -2.8,4 q -2.7,4 -3.2,5 l -0.5,1 -0.3,0.2 -0.2,0.3 -0.2,0.3 -0.3,0.2 -0.5,1 -0.5,1 -0.3,0.2 -0.2,0.3 -0.2,0.3 -0.3,0.2 -0.5,1 -0.5,1 -0.3,-0.2 -0.2,-0.3 -0.2,-0.3 -0.3,-0.2 -0.5,-4.5 q -0.5,-4.5 -0.8,-10 l -0.2,-5.5 0.2,0 q 0.3,0 0.8,-4.5 0.5,-4.5 2.5,-11.5 2,-7 3.3,-7.2 1.2,-0.3 0.7,0.2 -0.5,0.5 3,-1.5 l 3.5,-2 0.2,-0.3 q 0.3,-0.2 0.6,-0.7 l 0.2,-0.5 0.2,0 q 0.3,0 0.6,-0.5 l 0.2,-0.5 0.2,0 q 0.3,0 0.6,-0.5 l 0.2,-0.5 1.5,0 0.3,-0.5 0.2,-0.5 0.5,0 0.3,-0.5 0.2,-0.5 1.2,-1 q 1.3,-1 1.6,-1.5 l 0.2,-0.5 0.2,0 q 0.3,0 0.6,-0.5 l 0.2,-0.5 0.5,0 0,-6.5 q 0,-6.5 -2.7,-90.5 z m 9.2,119.2 q 1,-0.2 0.8,0.8 -0.3,1 -2.6,2.5 -2.2,1.5 -0.7,-0.7 1.5,-2.3 2.5,-2.6 z"
         id="path10"
         inkscape:connector-curvature="0" />
    </g>
    <g
       id="g12"
       style="fill:#656565;stroke:#656565">
      <path
         d="m 273.8,715.2 0.2,0.3 0.2,0.3 0.3,0.2 0.5,1 0.5,1 0.3,0.2 0.2,0.3 1,0.5 1,0.5 -103,0.5 q -103,0.5 -128.5,0.5 l -25.5,0 -1,0.5 -1,0.5 0,0.5 -0.5,0 0,-3 0.5,-1.5 0.5,-1.5 0.5,-1.5 q 0.5,-1.5 16,-45 15.5,-43.5 18.2,-45 l 2.8,-1.5 0,0.2 q 0,0.3 1.5,0.6 1.5,0.2 1,-0.8 l -0.5,-1 0,-0.2 q 0,-0.3 1,-0.6 l 1,-0.2 0.2,-0.5 q 0.3,-0.5 0.6,-0.5 l 0.2,0 0,1 q 0,1 7,-2.2 7,-3.3 23.5,-5.8 16.5,-2.5 56,-2 39.5,0.5 52.5,4 13,3.5 22.8,8.8 9.7,5.2 14.2,8.7 4.5,3.5 16.5,35 12,31.5 15.5,39.5 3.5,8 3.8,8.2 z m -217.6,-90 q 0.3,-0.2 0.6,0 l 0.2,0.3 -0.5,0 q -0.5,0 -0.3,-0.3 z"
         id="path14"
         inkscape:connector-curvature="0" />
      <path
         d="m 560,714 0.5,1 0.3,0.2 0.2,0.3 0.2,0.3 0.3,0.2 0.5,1 0.5,1 0.3,0.2 0.2,0.3 0.2,0.3 0.3,0.2 0.3,0.2 0.2,0.3 -207,0 0.2,-0.3 0.3,-0.2 0.5,-2.5 q 0.5,-2.5 1,-13.5 l 0.5,-11 -0.5,-1.5 -0.5,-1.5 -1,10.5 q -1,10.5 -1.3,15.5 l -0.2,5 -49,0 0.2,-1 0.3,-1 0.5,-1.5 0.5,-1.5 15.5,-41 q 15.5,-41 16.2,-44 0.8,-3 10.8,-8.2 10,-5.3 30,-8.3 20,-3 60,-2 40,1 53,5.5 13,4.5 24.2,11.8 11.3,7.2 22.8,37.7 11.5,30.5 15,38.5 3.5,8 4,9 z"
         id="path16"
         inkscape:connector-curvature="0" />
      <path
         d="m 1147.2,712.8 0.3,0.2 0.3,0.2 0.2,0.3 0.2,0.3 0.3,0.2 0.5,1 0.5,1 0.3,0.2 0.2,0.3 0.2,0.3 0.3,0.2 0.3,0.2 0.2,0.3 -103,0.5 q -103,0.5 -126.5,0.5 l -23.5,0 1.5,0.5 1.5,0.5 0,0.5 -5.5,-0.2 -5.5,-0.3 0.2,-0.3 0.3,-0.2 0.5,-1.5 0.5,-1.5 0.5,-1.5 q 0.5,-1.5 5.2,-13.5 l 4.8,-12 1,-0.2 1,-0.3 0.2,-0.3 0.3,-0.2 0.5,-1.5 0.5,-1.5 0.5,-1 0.5,-1 9.5,-26.5 q 9.5,-26.5 10.8,-29.3 1.2,-2.7 11.2,-7.7 10,-5 27.5,-8 17.5,-3 58.5,-2.5 41,0.5 57,6 16,5.5 25.2,11.8 9.3,6.2 24.3,44.7 15,38.5 15.7,39.7 0.8,1.3 1,1.6 z"
         id="path18"
         inkscape:connector-curvature="0" />
      <path
         d="m 851.2,712.8 0.3,0.2 0.3,0.2 0.2,0.3 0.2,0.3 0.3,0.2 0.5,1 0.5,1 0.3,0.2 0.2,0.3 0.2,0.3 0.3,0.2 0.3,0.2 0.2,0.3 -103.5,0.3 Q 648,718 647.8,717 q -0.3,-1 -0.6,0 -0.2,1 -25.2,0.8 l -25,-0.3 0.2,-0.3 0.3,-0.2 0.5,-1.5 0.5,-1.5 16,-42 q 16,-42 17.3,-44.8 1.2,-2.7 11.2,-7.7 10,-5 23,-7.5 13,-2.5 52.5,-2.5 39.5,0 50,1.5 10.5,1.5 23,6.5 12.5,5 20.5,10.3 8,5.2 18.8,34.2 10.7,29 15.4,39.8 4.8,10.7 5,11 z"
         id="path20"
         inkscape:connector-curvature="0" />
    </g>
    <g
       id="g22"
       style="fill:#323232;stroke:#323232">
      <path
         d="m 987,456 0.5,2 0.5,1 0.5,1 0.3,-0.2 0.2,-0.3 6.5,-3.5 q 6.5,-3.5 21.5,-3.5 15,0 23.2,3.3 8.3,3.2 12.8,7.7 4.5,4.5 9,17 4.5,12.5 5.5,19.5 1,7 0.5,20 -0.5,13 -7,28.5 -6.5,15.5 -7.5,21 -1,5.5 1,11.5 2,6 2.5,7.5 l 0.5,1.5 0.3,1.5 0.2,1.5 -0.5,-0.2 -0.5,-0.3 -1,-0.3 -1,-0.2 0.2,1 0.3,1 0,1 -1,0 -0.5,-3 q -0.5,-3 -1.8,-9 -1.2,-6 -5.2,-6.2 -4,-0.3 -35,-0.3 l -31,0 -0.2,0.3 -0.3,0.2 -1.5,0 0,-2 1.5,0 q 1.5,0 -3,-13 -4.5,-13 -8.5,-13.8 -4,-0.7 -21,-0.7 l -17,0 -1,0.3 -1,0.2 0,-0.5 0.2,-0.3 0.3,-0.2 0.3,-0.2 0.2,-0.3 2,-0.5 2,-0.5 -4,-0.5 -4,-0.5 0,-0.5 44,0 -0.2,-1.5 -0.3,-1.5 -0.5,-1.5 -0.5,-1.5 -0.5,-1.5 q -0.5,-1.5 -2,-7 -1.5,-5.5 -20.2,-5.5 -18.8,0 -21,-6.5 -2.3,-6.5 -3,-6.5 l -1,0 q -0.3,0 -1.3,-9.5 -1,-9.5 -4.7,-20 L 911,471 l 0.5,0 0.3,0.2 0.2,0.3 0.2,0.3 0.3,0.2 1,-7 q 1,-7 3.5,-12 2.5,-5 9.8,-10.8 7.2,-5.7 11.2,-7.7 4,-2 16,-1.5 12,0.5 18,3.5 6,3 9.2,7.7 3.3,4.8 4.3,7.3 1,2.5 1.5,4.5 z"
         id="path24"
         inkscape:connector-curvature="0" />
      <path
         d="m 754,431.2 1,-0.2 0.8,1.5 q 0.7,1.5 1.4,0.7 0.8,-0.7 13.8,-0.2 13,0.5 13.5,0.2 l 0.5,-0.2 0.2,0 q 0.3,0 0.6,0.5 l 0.2,0.5 0.2,1 q 0.3,1 0.6,0 l 0.2,-1 5.2,5 q 5.3,5 8.3,14 3,9 3,24 0,15 -4.5,25 -4.5,10 -4.5,17.5 0,7.5 2.7,15.3 2.8,7.7 5.3,8 l 2.5,0.2 0,0.5 0.2,0.3 0.3,0.2 0.3,0.2 0.2,0.3 1,0.3 1,0.2 -0.2,1 -0.3,1 -0.3,-0.2 -0.2,-0.3 -4,0 0,0.5 -2,-0.2 q -2,-0.3 -18,-0.3 -16,0 -17.2,1.7 -1.3,1.8 -4.6,10.8 l -3.2,9 -2,0 -0.2,2 -0.3,2 -0.5,2 -0.5,2 -0.3,0.2 -0.2,0.3 0,0.5 -3,-0.2 q -3,-0.3 -34.5,-0.6 L 685,576 l 0,-0.2 q 0,-0.3 0.2,-0.6 0.3,-0.2 -1.7,-6.7 -2,-6.5 -9.3,-9.7 -7.2,-3.3 -14.7,-4.6 l -7.5,-1.2 0,-0.5 1,-0.5 1,-0.5 0.2,-0.3 0.3,-0.2 0.3,-0.2 0.2,-0.3 0.2,-0.3 0.3,-0.2 0.3,-0.2 0.2,-0.3 0.2,-0.3 0.3,-0.2 0.3,-0.5 0.2,-0.5 2,0.2 2,0.3 5,2 q 5,2 6.5,2.5 l 1.5,0.5 1,0.5 1,0.5 1,0.5 1,0.5 2,0 -0.2,-0.3 -0.3,-0.2 -0.5,-1.5 -0.5,-1.5 -0.5,-1 -0.5,-1 -0.5,-1 q -0.5,-1 -3.5,-11 -3,-10 -4.3,-19.5 l -1.2,-9.5 -11,0 0,-0.5 4,-0.5 q 4,-0.5 5,-1 l 1,-0.5 -2,-0.5 q -2,-0.5 0,-0.8 l 2,-0.2 0,-5 -3,-0.2 -3,-0.3 3,-0.5 3,-0.5 -1,-0.5 -1,-0.5 0,-0.5 4,0 0.8,-5.5 q 0.7,-5.5 3.4,-11.7 2.8,-6.3 13.8,-14.8 11,-8.5 15,-10.5 4,-2 16.5,-2.7 12.5,-0.8 14,-3.6 1.5,-2.7 11,-9.7 9.5,-7 10.5,-7.3 z"
         id="path26"
         inkscape:connector-curvature="0" />
      <path
         d="m 419.2,384.5 0.8,-0.5 0.2,34 q 0.3,34 0.6,35 0.2,1 11.7,1.2 11.5,0.3 14,0.8 2.5,0.5 4,0.8 l 1.5,0.2 0,0.5 5.8,4.3 q 5.7,4.2 8.2,7.7 2.5,3.5 3,4.5 0.5,1 1,2 0.5,1 2,4.5 1.5,3.5 2.5,5.5 1,2 3.5,12.5 2.5,10.5 3,19 l 0.5,8.5 0.5,1 0.5,1 0.5,0 -1.2,5.5 q -1.3,5.5 -1.8,6.5 l -0.5,1 -0.3,1.5 -0.2,1.5 41,0 -0.2,-4 -0.3,-4 -0.3,-1 -0.2,-1 0.5,-0.2 0.5,-0.3 0.2,-0.3 0.3,-0.2 0.5,0 0.2,1 0.3,1 0.5,1.5 0.5,1.5 0.5,1 0.5,1 0.7,1.8 q 0.8,1.7 1.3,2 l 0.5,0.2 0,0.5 -0.2,0.3 -0.3,0.2 -0.3,0.2 -0.2,0.3 -0.2,0.3 -0.3,0.2 -0.3,0.2 -0.2,0.3 0.2,0.3 0.3,0.2 0.3,0.2 0.2,0.3 2,0.5 2,0.5 10.5,4 q 10.5,4 11.5,4.5 l 1,0.5 0.2,0.3 0.3,0.2 0.3,0.5 0.2,0.5 -1.2,2.5 q -1.3,2.5 -1.6,3.5 l -0.2,1 0,0.5 -0.2,0.3 -0.3,0.2 -0.5,1 -0.5,1 -0.5,1 -0.5,1 -4.7,8.2 q -4.8,8.3 -9.6,10.6 -4.7,2.2 -5,2.4 l -0.2,0.3 -1,0.5 -1,0.5 -1,0.5 -1,0.5 -1,0.5 -1,0.5 -0.2,0.3 -0.3,0.2 -0.3,0.5 -0.2,0.5 -1,0.2 -1,0.3 -1,0.5 -1,0.5 -1,0.5 -1,0.5 -1,0.5 -1,0.5 -1,0.5 q -1,0.5 -4,2 -3,1.5 -5,5.8 -2,4.2 -8.5,2 -6.5,-2.3 -12.5,-3 -6,-0.8 -10.2,-13.8 -4.3,-13 -5.6,-13 l -1.2,0 -1,-0.2 q -1,-0.3 -2,-0.8 -1,-0.5 -34.5,-0.8 -33.5,-0.2 -34,0.8 l -0.5,1 -0.8,0 q -0.7,0 -7.2,11.5 -6.5,11.5 -7,12.5 l -0.5,1 -0.3,0.2 -0.2,0.3 -2,0.5 -2,0.5 -1,0.5 -1,0.5 -2,0 -0.2,-0.3 q -0.3,-0.2 -2,-5.2 -1.8,-5 -19.8,-12.8 -18,-7.7 -24.8,-9.4 -6.7,-1.8 -10.4,-14.3 L 308,553 l 0.2,-3 0.3,-3 0.3,-0.2 0.2,-0.3 16,0 q 16,0 23,0 l 7,0 1,-0.3 1,-0.2 0,-3 6.5,2.2 q 6.5,2.3 8,2.8 l 1.5,0.5 1,0.5 1,0.5 1,0.3 1,0.2 -0.2,-6 q -0.3,-6 -0.8,-30.5 -0.5,-24.5 0.2,-27.7 0.8,-3.3 2,-1.6 1.3,1.8 4.3,-3.7 l 3,-5.5 0.3,-0.2 0.2,-0.3 0.2,-0.3 0.3,-0.2 0.3,-1 0.2,-1 -7,0 0,-1 2.5,-0.2 2.5,-0.3 2.5,-0.5 q 2.5,-0.5 8,-4 5.5,-3.5 13,-7.2 7.5,-3.8 7.3,-22.8 -0.3,-19 1.2,-35 1.5,-16 2.2,-16.5 z"
         id="path28"
         inkscape:connector-curvature="0" />
    </g>
    <path
       d="m 362,604 1,0.5 0.2,0.3 0.3,0.2 0.3,0.2 0.2,0.3 0.2,0.3 0.3,0.2 0.5,2 0.5,2 0.3,0.2 0.2,0.3 -0.2,0.3 -0.3,0.2 -0.3,0.2 -0.2,0.3 -1,0.5 -1,0.5 -0.2,0.3 -0.3,0.2 -12,6.5 q -12,6.5 -20.5,31.5 -8.5,25 -8.8,25 l -0.2,0 -0.2,-1 -0.3,-1 -0.3,-0.2 -0.2,-0.3 -18,0 q -18,0 -27.5,0.3 l -9.5,0.2 0,4 -0.5,0 -0.5,-1 -0.5,-1 -0.3,-0.2 Q 263,675.5 252.8,651.8 242.5,628 236.2,624.8 230,621.5 213,614 l -17,-7.5 -2,-0.3 -2,-0.2 0.2,-2 0.3,-2 0.3,-1 0.2,-1 0,-2 1,-0.2 1,-0.3 1,-0.5 1,-0.5 7.5,-4 q 7.5,-4 22,-6.5 14.5,-2.5 53.5,-2 39,0.5 53.5,6 14.5,5.5 21,9.5 6.5,4 7.5,4.5 z"
       id="path30"
       inkscape:connector-curvature="0"
       style="fill:#656565;stroke:#656565" />
    <path
       d="m 186,598.5 0.5,1.5 0.5,1.5 0.5,1.5 0.5,1 0.5,1 0.3,-0.2 0.2,-0.3 0.2,-0.3 0.3,-0.2 0.5,-1.5 0.5,-1.5 0.3,-1 0.2,-1 0.5,0 0.3,0.2 0.2,0.3 0.5,0.3 0.5,0.2 -0.2,1 -0.3,1 -0.3,2 -0.2,2 2,0.2 2,0.3 17,7.5 q 17,7.5 23.2,10.8 6.3,3.2 16.6,27 10.2,23.7 10.4,24 l 0.3,0.2 0.5,1 0.5,1 0.5,0 0.2,1 0.3,1 7.5,17 q 7.5,17 8,18 l 0.5,1 0.5,1.5 0.5,1.5 0,2 -0.3,0.2 -0.2,0.3 -86,0.5 q -86,0.5 -131.5,0.2 L 19,722 l 0,-0.5 1,-0.5 1,-0.5 25.5,0 Q 72,720.5 175,720 l 103,-0.5 -1,-0.5 -1,-0.5 -0.2,-0.3 -0.3,-0.2 -0.5,-1 -0.5,-1 -0.3,-0.2 -0.2,-0.3 -0.2,-0.3 q -0.3,-0.2 -3.8,-8.2 -3.5,-8 -15.5,-39.5 -12,-31.5 -16.5,-35 -4.5,-3.5 -14.2,-8.7 -9.8,-5.3 -22.8,-8.8 -13,-3.5 -52.5,-4 -39.5,-0.5 -56,2 -16.5,2.5 -23.5,6 l -7,3.5 -1,0.5 -1,0.5 -1,0.5 -1,0.5 -0.2,0.3 -0.3,0.2 -0.3,0.2 -0.2,0.3 -0.2,0.3 -0.3,0.2 -0.3,-1 -0.2,-1 0.2,-0.5 0.3,-0.5 0.5,0 0.5,-0.2 0.5,-0.3 0.2,-0.3 0.3,-0.2 0.5,0 0.5,-0.2 0.5,-0.3 0.2,-0.3 0.3,-0.2 0.5,0 0.5,-0.2 0.5,-0.3 0,-0.5 0.5,-0.2 q 0.5,-0.3 5.7,-3 5.3,-2.8 13.6,-7 8.2,-4.3 13.4,-13.6 l 5.3,-9.2 0.5,-1 0.5,-1 0.5,-1 0.5,-1 0.5,-1 0.5,-1 0.3,-0.2 0.2,-0.3 0.2,-0.3 0.3,-0.2 0.3,-0.2 0.2,-0.3 0,-0.5 0.5,0 0,2 -0.5,1.5 -0.5,1.5 -0.5,1.5 -0.5,1.5 -2,6 q -2,6 -2.5,7.5 l -0.5,1.5 -0.5,1 -0.5,1 -0.3,1 -0.2,1 37.5,0.2 q 37.5,0.3 42.5,0.6 l 5,0.2 -0.2,-3 q -0.3,-3 -2.6,-14 -2.2,-11 -4.2,-11.2 -2,-0.3 -34,-0.6 -32,-0.2 -32.5,-1.7 L 108,575 100.2,552.5 Q 92.5,530 91.5,526 90.5,522 91,506.5 91.5,491 94.8,483.2 98,475.5 109,467 q 11,-8.5 15.5,-10.5 4.5,-2 18.5,-2 14,0 22.5,3 8.5,3 13.3,7.7 4.7,4.8 8.7,14.3 4,9.5 6,25 2,15.5 1.5,22 -0.5,6.5 -7.5,23.5 -7,17 -7,24.5 0,7.5 2.5,15 2.5,7.5 3,9 z"
       id="path32"
       inkscape:connector-curvature="0"
       style="fill:#323232;stroke:#323232" />
    <path
       d="m 343.5,262.2 0.5,-0.2 -0.2,1.5 q -0.3,1.5 -10.8,21 -10.5,19.5 -10.8,19.7 l -0.2,0.3 -0.2,0.3 -0.3,0.2 -0.3,1 -0.2,1 4.5,1.2 q 4.5,1.3 11.5,5.8 7,4.5 8.8,6.2 1.7,1.8 1,4.3 -0.8,2.5 -3.6,4.5 -2.7,2 5.3,22.5 8,20.5 13.5,33 5.5,12.5 6,13.5 l 0.5,1 0.5,1 0.5,1 0.5,1 0.5,1 0.3,0.2 q 0.2,0.3 0.7,0.6 l 0.5,0.2 0.5,0 0.3,0.5 0.2,0.5 -0.2,0 q -0.3,0 -0.6,0.5 l -0.2,0.5 1.2,6 q 1.3,6 1.3,21 l 0,15 0.5,0 0.2,4.5 q 0.3,4.5 0.6,11.5 l 0.2,7 -7.5,-0.2 q -7.5,-0.3 -9,-0.6 -1.5,-0.2 -3.7,-10.2 -2.3,-10 -6.8,-17 -4.5,-7 -12.8,-9.8 -8.2,-2.7 -9,-22 Q 326.5,392 322,360 l -4.5,-32 -0.5,-2.5 -0.5,-2.5 -0.5,-1.5 -0.5,-1.5 0,7 4,31.5 q 4,31.5 2.3,51.5 -1.8,20 -8.3,20.8 -6.5,0.7 -12,4.2 -5.5,3.5 -5.7,3.8 l -0.3,0.2 -0.3,0.2 -0.2,0.3 -0.2,0.3 -0.3,0.2 -0.3,0.2 -0.2,0.3 -1,0.5 -1,0.5 -1,0.3 -1,0.2 0.2,-8.5 Q 290.5,425 291,408 l 0.5,-17 -0.5,0 0.2,-7.5 q 0.3,-7.5 2.3,-25.5 2,-18 8.5,-50 6.5,-32 8,-33 1.5,-1 17.2,-6.5 l 15.8,-5.5 0,-0.2 q 0,-0.3 0.5,-0.6 z"
       id="path34"
       inkscape:connector-curvature="0"
       style="fill:#656565;stroke:#656565" />
    <path
       d="m 274,442.2 13,-0.2 1.5,1.2 q 1.5,1.3 7.7,3.6 6.3,2.2 9.3,6.2 3,4 7,13 4,9 6,18 2,9 1.5,20 -0.5,11 -1,12.5 -0.5,1.5 -0.8,3 l -0.2,1.5 -2.8,6.5 q -2.7,6.5 -3.2,7.5 l -0.5,1 -0.5,1.5 -0.5,1.5 -0.5,1 -0.5,1 -0.3,0.2 -0.2,0.3 1,0.5 1,0.5 19,0.3 19,0.2 -0.2,-1.5 Q 348.5,540 348,537 l -0.5,-3 -0.3,-2 -0.2,-2 1.5,0 0.5,1.5 0.5,1.5 0.5,1.5 0.5,1.5 0.5,1.5 0.5,1.5 0.5,1 0.5,1 0.3,1 0.2,1 4,0 0,3 -1,0.2 -1,0.3 -7,0 q -7,0 -23,0 l -16,0 -0.2,0.3 -0.3,0.2 -0.3,3 -0.2,3 -0.8,-0.5 q -0.7,-0.5 0.3,10 1,10.5 1.5,13 l 0.5,2.5 0.3,0.2 0.2,0.3 -38,0.3 -38,0.2 0.2,-1 0.3,-1 0.5,-1 0.5,-1 0.5,-1.5 q 0.5,-1.5 2,-6.5 l 1.5,-5 0.5,-1.5 0.5,-1.5 0.5,-1 0.5,-1 0,-2 -0.5,0 0.2,-0.5 q 0.3,-0.5 1.6,-1.3 1.2,-0.7 -1.6,-8 -2.7,-7.2 -7.7,-22.2 -5,-15 -5.5,-28.5 -0.5,-13.5 1.5,-22 2,-8.5 9.5,-15 7.5,-6.5 14.8,-10.7 7.2,-4.3 20.2,-4.6 z"
       id="path36"
       inkscape:connector-curvature="0"
       style="fill:#323232;stroke:#323232" />
    <g
       id="g38"
       style="fill:#656565;stroke:#656565">
      <path
         d="m 654,601 1,0.5 0.2,0.3 0.3,0.2 0.3,0.2 0.2,0.3 1,0.5 1,0.5 1,0.5 1,0.5 0.2,0.3 0.3,0.2 0,1 -0.3,0.2 -0.2,0.3 -0.2,0.3 -0.3,0.2 -0.3,0.2 -0.2,0.3 -1,0.5 -1,0.5 -13.8,7.7 q -13.7,7.8 -21.2,30.3 -7.5,22.5 -8,24 l -0.5,1.5 -0.3,0.2 -0.2,0.3 -0.5,0.3 -0.5,0.2 0,-3 -29.5,0.2 -29.5,0.3 -1.5,0.3 -1.5,0.2 0,2 -0.5,-0.2 q -0.5,-0.3 -10.3,-23 -9.7,-22.8 -21.4,-28.6 l -11.8,-5.7 -1,-0.3 -1,-0.2 0.2,-1.5 0.3,-1.5 0.5,-2 0.5,-2 0.3,-1 0.2,-1 3.5,-1.8 q 3.5,-1.7 4.5,-2.2 l 1,-0.5 0.2,-0.3 0.3,-0.2 0.3,-0.2 0.2,-0.3 1,-0.5 1,-0.5 0.2,-0.3 0.3,-0.2 0.3,-0.2 0.2,-0.3 1,-0.5 1,-0.5 0.2,-0.3 0.3,-0.2 0.5,0 0.5,-0.2 0.5,-0.3 16,-2.5 q 16,-2.5 53,-2 37,0.5 49,4.5 12,4 13,4.5 z"
         id="path40"
         inkscape:connector-curvature="0" />
      <path
         d="m 394.2,252 -0.2,-1 1,0.2 1,0.3 0.2,0.3 0.3,0.2 3.3,4.8 q 3.2,4.7 17.2,4.7 14,0 17.2,3.3 3.3,3.2 15.8,36.2 12.5,33 16.2,34.8 3.8,1.7 8.8,1.2 5,-0.5 5.2,-0.8 l 0.3,-0.2 0.3,-0.2 0.2,-0.3 0.2,-0.3 0.3,-0.2 0.3,-0.2 0.2,-0.3 0.2,-0.3 0.3,-0.2 0.3,-0.2 0.2,-0.3 0.2,-0.3 0.3,-0.2 0.3,-0.2 0.2,-0.3 0.2,-0.3 0.3,-0.2 0.3,-0.2 0.2,-0.3 2,0 0,0.5 -0.2,0.5 -0.3,0.5 -0.5,0 -0.2,0.5 -0.3,0.5 -0.5,0 -0.2,0.5 -0.3,0.5 -0.3,0.2 -0.2,0.3 -0.2,0.3 -0.3,0.2 -0.3,0.2 -0.2,0.3 -1,0.5 -1,0.5 -3.5,2 q -3.5,2 -3,1.5 0.5,-0.5 -0.7,-0.2 -1.3,0.2 -3.3,7.2 -2,7 -2.5,11.5 -0.5,4.5 -0.8,4.5 l -0.2,0 -0.2,-0.5 -0.3,-0.5 0.5,13 q 0.5,13 2.8,20.2 2.2,7.3 4.7,7.3 l 2.5,0 0.2,-0.3 0.3,-0.2 0.3,-0.2 0.2,-0.3 0.2,-0.3 0.3,-0.2 0.5,1 0.5,1 0.5,-1 0.5,-1 0.5,0 -0.2,2 -0.3,2 -0.5,1 -0.5,1 -0.5,1 -0.5,1 -0.3,0.2 -0.2,0.3 -0.2,0.3 -0.3,0.2 -0.3,0.2 -0.2,0.3 -0.2,0.3 -0.3,0.2 -0.3,0.2 -0.2,0.3 -1,0.5 -1,0.5 -3,0 q -3,0 -5,-1 -2,-1 -9.2,-6.7 -7.3,-5.8 -12,-13.6 -4.8,-7.7 -11.6,-20.4 l -6.7,-12.8 -0.5,-1.5 -0.5,-1.5 -0.3,-2 -0.2,-2 -2,0 -0.2,2.5 -0.3,2.5 -1,11.5 q -1,11.5 -1.3,13.5 l -0.2,2 -0.8,0.5 q -0.7,0.5 -2.2,16.5 -1.5,16 -1.2,35 0.2,19 -7.3,22.8 -7.5,3.7 -13,7.2 -5.5,3.5 -8,4 l -2.5,0.5 -2.5,0.3 -2.5,0.2 -4,0 -0.2,-7 q -0.3,-7 -0.6,-11.5 l -0.2,-4.5 0.2,-10.5 q 0.3,-10.5 0.3,-14 0,-3.5 2,-11.5 2,-8 6,-36.5 4,-28.5 6.7,-67.5 l 2.8,-39 -1,0 q -1,0 -1.2,2 l -0.3,2 -0.3,-2 -0.2,-2 0.2,-2 q 0.3,-2 0.6,-4 l 0.2,-2 0.5,0 0.3,0.2 0.2,0.3 0.2,0.3 0.3,0.2 0.5,1 0.5,1 0.3,-0.2 0.2,-0.3 0.2,-0.3 0.3,-0.2 0.3,-0.2 0.2,-0.3 0.2,-0.3 0.3,-0.2 0,-3 q 0,-2 0,-3.5 l 0,-1.5 -0.3,-0.2 -0.2,-0.3 -0.2,-0.3 -0.3,-0.2 -0.3,-1 z M 478,406 q 1,0 1,1 0,1 -1,1 -1,0 -1,-1 0,-1 1,-1 z"
         id="path42"
         inkscape:connector-curvature="0" />
      <path
         d="m 946,605 1,0.5 1,0.5 1,0.5 0.2,0.3 0.3,0.2 0.3,0.2 0.2,0.3 1,0.5 1,0.5 -0.2,0.3 -0.3,0.2 -0.3,0.2 -0.2,0.3 -1,0.5 -1,0.5 -0.2,0.3 -0.3,0.2 -0.3,0.2 -0.2,0.3 -12,6.3 q -12,6.2 -19.8,30.2 -7.7,24 -8.2,25 l -0.5,1 -0.5,0 -0.2,-1.5 -0.3,-1.5 -0.3,-0.2 -0.2,-0.3 -0.2,-0.3 -0.3,-0.2 -0.3,0.2 -0.2,0.3 -0.2,0.3 -0.3,0.2 -0.3,-0.2 -0.2,-0.3 -61,0 -0.2,0.3 -0.3,0.2 -0.3,1 -0.2,1 -0.5,-0.2 q -0.5,-0.3 -10.7,-24 -10.3,-23.8 -21,-29 l -10.8,-5.3 -1,-0.5 -1,-0.5 -1,-0.5 -1,-0.5 -0.2,-0.3 -0.3,-0.2 -0.3,-0.2 -0.2,-0.3 0.2,-0.3 0.3,-0.2 0.5,-1 0.5,-1 0.3,-0.2 0.2,-0.3 0.2,-0.3 0.3,-0.2 0.3,-0.2 0.2,-0.3 1,-0.5 1,-0.5 7,-4 q 7,-4 24.5,-6.5 17.5,-2.5 54,-1.5 36.5,1 47.5,5 11,4 12,4.5 1,0.5 2,1 z"
         id="path44"
         inkscape:connector-curvature="0" />
    </g>
    <g
       id="g46"
       style="fill:#323232;stroke:#323232">
      <path
         d="m 580,452.2 4,-0.2 0,0.5 1.5,0.5 1.5,0.5 12,2.5 q 12,2.5 16.2,7.8 4.3,5.2 8.8,17.2 4.5,12 5.5,25 1,13 0,17 -1,4 -0.7,4.5 l 0.2,0.5 -0.2,0.5 -0.3,0.5 -0.5,0 -2.2,5 q -2.3,5 -2.8,6.5 l -0.5,1.5 -0.5,1 -0.5,1 -0.3,2 -0.2,2 8,0.2 q 8,0.3 15,0.3 l 7,0 0,-0.5 0.5,0 0.5,-1.5 0.5,-1.5 0.3,0.2 0.2,0.3 0.5,0.3 0.5,0.2 0,0.5 0.2,0.3 0.3,0.2 0.3,0.2 0.2,0.3 1,0.3 1,0.2 -0.2,0.5 -0.3,0.5 -0.3,0.2 -0.2,0.3 -0.2,0.3 -0.3,0.2 -0.3,0.2 -0.2,0.3 -0.2,0.3 -0.3,0.2 -0.3,0.2 -0.2,0.3 -1,0.5 -1,0.5 0,0.5 -1.5,-0.2 Q 649,552.5 634,552.2 l -15,-0.2 -0.8,4.5 q -0.7,4.5 -0.4,6 l 0.2,1.5 -0.5,0 -0.3,-1 -0.2,-1 -1,0.2 -1,0.3 0,0.5 -4.5,-0.2 Q 606,562.5 580.5,562 555,561.5 554,559.8 l -1,-1.8 -0.2,-0.5 -0.3,-0.5 -0.3,-0.2 -0.2,-0.3 -1,-0.5 q -1,-0.5 -11.5,-4.5 l -10.5,-4 -2,-0.5 -2,-0.5 -0.2,-0.3 -0.3,-0.2 -0.3,-0.2 -0.2,-0.3 0.2,-0.3 0.3,-0.2 0.3,-0.2 0.2,-0.3 0.2,-0.3 0.3,-0.2 0.3,-0.2 0.2,-0.3 0,-0.5 3.5,0.2 3.5,0.3 4.5,2 q 4.5,2 6,2.5 l 1.5,0.5 1,0.5 1,0.5 1,0.5 1,0.5 1,0.3 1,0.2 -0.2,-1.5 -0.3,-1.5 -0.5,-1 -0.5,-1 -0.5,-1 -0.5,-1 -0.5,-1.5 q -0.5,-1.5 -1.5,-3.5 -1,-2 -4.7,-16 -3.8,-14 -5.3,-14 l -1.5,0 0,-0.5 0.2,-0.3 0.3,-0.2 0,-1 -0.3,-0.2 -0.2,-0.3 -0.2,-0.3 -0.3,-0.2 -0.3,-0.2 -0.2,-0.3 -1,-0.5 -1,-0.5 1,-0.5 1,-0.5 0.2,-0.3 0.3,-0.2 0.3,0.2 0.2,0.3 0.2,0.3 0.3,0.2 0.3,-1 0.2,-1 -2.5,-0.2 q -2.5,-0.3 -1,-0.8 1.5,-0.5 -1.5,-0.8 l -3,-0.2 0,-3 10,0 0.2,-1.5 0.3,-1.5 1,-6 q 1,-6 3.5,-11 2.5,-5 10.8,-11.8 8.2,-6.7 12.7,-9.2 4.5,-2.5 7,-3 2.5,-0.5 6.5,-0.8 z"
         id="path48"
         inkscape:connector-curvature="0" />
      <path
         d="m 908,466 0.5,1 0.3,0.2 0.2,0.3 0.2,0.3 0.3,0.2 0.5,1 0.5,1 0.3,0.5 0.2,0.5 3.8,10.5 q 3.7,10.5 4.7,20 1,9.5 1.3,9.5 l 0.2,0 -0.2,7 q -0.3,7 -0.8,8.5 l -0.5,1.5 -0.5,1.5 -0.5,1.5 -0.5,1 -0.5,1 -0.3,1 -0.2,1 2,0 0.2,-1.5 0.3,-1.5 0.3,-0.2 q 0.2,-0.3 0.4,-0.6 l 0.3,-0.2 0.5,-1 0.5,-1 0.3,-1 0.2,-1 2,0 -0.2,1 -0.3,1 -0.5,1.5 -0.5,1.5 -1,3.5 q -1,3.5 -1.5,5 l -0.5,1.5 -0.3,0.2 -0.2,0.3 -0.2,0.3 -0.3,0.2 -0.3,0.2 -0.2,0.3 4,0.3 4,0.2 0,0.5 4,0.5 4,0.5 -2,0.5 -2,0.5 -0.2,0.3 -0.3,0.2 -0.3,0.2 -0.2,0.3 0,0.5 -5,0.2 q -5,0.3 -10.2,1.6 -5.3,1.2 -6.3,8.7 l -1,7.5 0.3,0.5 0.2,0.5 -0.5,0.2 -0.5,0.3 -0.2,0.3 -0.3,0.2 -0.5,0 -0.2,-1 q -0.3,-1 -30.6,-2.5 L 844,563 836.2,541.5 q -7.7,-21.5 -7.7,-38.5 0,-17 3,-23 3,-6 12.3,-13.2 9.2,-7.3 13.2,-9.3 4,-2 17.5,-2 13.5,0 21,3 7.5,3 9.7,4.7 2.3,1.8 2.8,2.8 z"
         id="path50"
         inkscape:connector-curvature="0" />
    </g>
    <g
       id="g52"
       style="fill:#656565;stroke:#656565">
      <path
         d="m 618.2,556.5 0.8,-4.5 15,0.2 q 15,0.3 16.5,0.6 l 1.5,0.2 7.5,1.2 q 7.5,1.3 14.7,4.6 7.3,3.2 9.6,10.2 2.2,7 33.2,7.2 31,0.3 34,0.6 l 3,0.2 2.8,11.5 q 2.7,11.5 3,13.5 l 0.2,2 -84,0 0.2,-1.5 0.3,-1.5 0.5,-1 0.5,-1 0.5,-2 q 0.5,-2 2.5,-8 l 2,-6 0.5,-1.5 0.5,-1.5 0.5,-1 0.5,-1 0.3,-0.2 0.2,-0.3 -2,0 -0.2,0.3 -0.3,0.2 -0.3,0.2 -0.2,0.3 -0.2,0.3 -0.3,0.2 -0.3,0.2 -0.2,0.3 -0.2,0.3 -0.3,0.2 -0.5,1 -0.5,1 -0.5,1 -0.5,1 -0.5,1 q -0.5,1 -4.5,8.5 -4,7.5 -5.7,7.7 -1.8,0.3 -13.8,-5.2 -12,-5.5 -20,-7.5 -8,-2 -11.2,-10.7 l -3.3,-8.8 -0.5,-1.5 -0.5,-1.5 -0.3,-1 -0.2,-1 -0.2,-1.5 q -0.3,-1.5 0.4,-6 z"
         id="path54"
         inkscape:connector-curvature="0" />
      <path
         d="m 801,546.8 2,0.2 1.5,0.2 1.5,0.3 1.5,0.5 q 1.5,0.5 6,2 4.5,1.5 14.7,7.2 10.3,5.8 10.8,8.3 0.5,2.5 -5.2,13 Q 828,589 810,598 q -18,9 -18.5,10.8 -0.5,1.7 -5.5,-0.3 -5,-2 -12,-3.5 -7,-1.5 -12,-15.5 l -5,-14 -0.2,-0.3 -0.3,-0.2 -0.3,-0.2 -0.2,-0.3 0.2,-0.3 0.3,-0.2 0.5,-2 0.5,-2 0.3,-1 0.2,-1 3.2,-9 q 3.3,-9 4.6,-10.8 1.2,-1.7 17.2,-1.7 16,0 18,0.3 z"
         id="path56"
         inkscape:connector-curvature="0" />
    </g>
    <path
       d="m 483.5,430.2 1.5,-0.2 0,0.5 1,0.5 q 1,0.5 8,1 l 7,0.5 2.5,0 q 2.5,0 2.5,-0.3 l 0,-0.2 5.5,2.8 q 5.5,2.7 8.7,7 3.3,4.2 6.3,15.2 3,11 2.5,23 -0.5,12 -1,13.5 l -0.5,1.5 0,2 0.5,0 0,3 3,0.2 q 3,0.3 1.5,0.8 -1.5,0.5 1,0.8 l 2.5,0.2 -0.2,1 -0.3,1 -0.3,-0.2 -0.2,-0.3 -0.2,-0.3 -0.3,-0.2 -0.3,0.2 -0.2,0.3 -1,0.5 -1,0.5 1,0.5 1,0.5 0.2,0.3 0.3,0.2 0.3,0.2 0.2,0.3 0.2,0.3 0.3,0.2 0,1 -0.3,0.2 -0.2,0.3 0,0.5 -15,0 -0.8,6.5 q -0.7,6.5 -0.2,9 l 0.5,2.5 0.5,2 0.5,2 0.3,0.5 0.2,0.5 -0.5,0 -0.3,0.2 -0.2,0.3 -0.5,0.3 -0.5,0.2 -0.2,-1.5 -0.3,-1.5 -0.5,-2.5 q -0.5,-2.5 -0.8,-4 -0.2,-1.5 -17.2,-2 l -17,-0.5 0,6 -0.5,0 -0.5,-1 -0.5,-1 -0.5,-8.5 q -0.5,-8.5 -3,-19 -2.5,-10.5 -3.5,-12.5 -1,-2 -2.5,-5.5 -1.5,-3.5 -2,-4.5 -0.5,-1 -1,-2 -0.5,-1 -3,-4.5 -2.5,-3.5 -8.2,-7.7 l -5.8,-4.3 0,-0.5 1,0 q 1,0 3,-4.8 2,-4.7 11.5,-11.7 9.5,-7 12,-8 2.5,-1 4,-1.3 z"
       id="path58"
       inkscape:connector-curvature="0"
       style="fill:#323232;stroke:#323232" />
    <path
       d="m 930,547.8 1,-0.3 17,0 q 17,0 21,0.7 4,0.8 8.5,13.8 4.5,13 3.5,13.2 -1,0.3 -1,0.6 l 0,0.2 -0.5,0.2 q -0.5,0.3 -0.5,0.6 l 0,0.2 -0.2,0.5 q -0.3,0.5 -7.3,12.5 -7,12 -10.7,13.8 -3.8,1.7 -19.8,-5.3 -16,-7 -21.5,-7.7 -5.5,-0.8 -9,-12.3 L 907,567 l -0.2,-0.5 -0.3,-0.5 1,-7.5 q 1,-7.5 6.3,-8.7 5.2,-1.3 10.2,-1.6 l 5,-0.2 1,-0.2 z"
       id="path60"
       inkscape:connector-curvature="0"
       style="fill:#656565;stroke:#656565" />
    <path
       d="m 315.5,323.5 0,-3.5 0.5,1.5 0.5,1.5 0.5,2.5 0.5,2.5 4.5,32 q 4.5,32 5.2,51.2 0.8,19.3 9,22 8.3,2.8 12.8,9.8 4.5,7 6.8,17 2.2,10 3.7,10.2 1.5,0.3 9,0.6 l 7.5,0.2 4,0 0,1.5 -10.5,0.7 q -10.5,0.8 -11.3,9.3 -0.7,8.5 -5.7,20 -5,11.5 -5,17.5 l 0,6 0.3,2 0.2,2 -1,0 -0.2,-1.5 -0.3,-1.5 -0.5,-2 q -0.5,-2 -14.2,-3 l -13.8,-1 0.2,-1.5 q 0.3,-1.5 0.8,-3 0.5,-1.5 1,-12.5 0.5,-11 -1.5,-20 -2,-9 -6,-18 -4,-9 -7,-13 -3,-4 -9.3,-6.2 -6.2,-2.3 -7.7,-3.6 l -1.5,-1.2 0.2,-4 q 0.3,-4 1.8,-25 l 1.5,-21 0.3,-0.2 0.2,-0.3 0,-0.5 0.5,0 -0.5,17 q -0.5,17 -0.8,25.5 l -0.2,8.5 1,-0.2 1,-0.3 1,-0.5 1,-0.5 0.2,-0.3 0.3,-0.2 0.3,-0.2 0.2,-0.3 0.2,-0.3 0.3,-0.2 0.3,-0.2 q 0.2,-0.3 5.7,-3.8 5.5,-3.5 12,-4.2 6.5,-0.8 8.3,-20.8 1.7,-20 -2.3,-51.5 l -4,-31.5 0,-3.5 z"
       id="path62"
       inkscape:connector-curvature="0"
       style="fill:#323232;stroke:#323232" />
    <g
       id="g64"
       style="fill:#fefefe;stroke:#fefefe">
      <path
         d="m 765.8,121 0.2,1 -0.2,0 q -0.3,0 -0.3,5 0,5 -0.7,6.2 -0.8,1.3 -141.3,1.6 L 483,135 l -0.2,-1 -0.3,-1 -0.5,-2 -0.5,-2 -0.5,-2.5 -0.5,-2.5 -0.5,0 0.2,-1 0.3,-1 0.5,-1.5 0.5,-1.5 0.3,-0.2 0.2,-0.3 66,-0.5 q 66,-0.5 65.5,-1 -0.5,-0.5 5.5,-0.2 6,0.2 6,1.2 0,1 49.5,0.8 49.5,-0.3 70.3,0.4 20.7,0.8 21,1.8 z"
         id="path66"
         inkscape:connector-curvature="0" />
      <path
         d="m 422.8,354.5 0.2,-2.5 2,0 0.2,2 0.3,2 0.5,1.5 0.5,1.5 6.7,12.8 q 6.8,12.7 11.6,20.4 4.7,7.8 12,13.6 7.2,5.7 9.2,6.7 2,1 5,1 l 3,0 1,-0.5 1,-0.5 0.2,-0.3 0.3,-0.2 0.3,-0.2 0.2,-0.3 0.2,-0.3 0.3,-0.2 0.3,-0.2 0.2,-0.3 0.2,-0.3 0.3,-0.2 0.5,-1 0.5,-1 0.5,-1 0.5,-1 0.3,-2 0.2,-2 -0.2,-16 q -0.3,-16 -0.6,-16.2 l -0.2,-0.3 0,-1 0.5,-0.3 0.5,-0.2 1,-0.2 1,-0.3 0,-0.5 -1,0 0,-1.5 0.5,-0.3 0.5,-0.2 1,-0.2 1,-0.3 0.2,-0.3 0.3,-0.2 0.3,-0.2 0.2,-0.3 0.2,-0.3 0.3,-0.2 -0.5,27.5 q -0.5,27.5 -0.8,33.5 l -0.2,6 -1.5,0.2 q -1.5,0.3 -4,1.3 -2.5,1 -12,8 -9.5,7 -11.5,11.7 -2,4.8 -3,4.8 l -1,0 -1.5,-0.2 q -1.5,-0.3 -4,-0.8 -2.5,-0.5 -14,-0.8 -11.5,-0.2 -11.7,-1.2 -0.3,-1 -0.6,-35 l -0.2,-34 0.2,-2 q 0.3,-2 1.3,-13.5 l 1,-11.5 0.3,-2.5 z"
         id="path68"
         inkscape:connector-curvature="0" />
    </g>
    <g
       id="g70"
       style="fill:#656565;stroke:#656565">
      <path
         d="m 462.5,578.8 1.5,0.2 0,0.2 q 0,0.3 0.5,0.6 l 0.5,0.2 1.8,10.5 q 1.7,10.5 2,13 l 0.2,2.5 -84,0 0.2,-1 0.3,-1 0.5,-1.5 0.5,-1.5 0.5,-1.5 q 0.5,-1.5 3.2,-10.5 l 2.8,-9 0.5,-1 q 0.5,-1 34,-0.8 33.5,0.3 35,0.6 z"
         id="path72"
         inkscape:connector-curvature="0" />
      <path
         d="m 108,576 0,-1 0.5,1.5 q 0.5,1.5 32.5,1.7 32,0.3 34,0.6 2,0.2 4.2,11.2 2.3,11 2.6,14 l 0.2,3 -5,-0.2 q -5,-0.3 -42.5,-0.6 L 97,606 l 0.2,-1 0.3,-1 0.5,-1 0.5,-1 0.5,-1.5 q 0.5,-1.5 2.5,-7.5 l 2,-6 0.5,-1.5 0.5,-1.5 0.5,-1.5 0.5,-1.5 0,-2 -0.5,0 0.2,-0.5 q 0.3,-0.5 1.6,-1 1.2,-0.5 1.2,-1.5 z"
         id="path74"
         inkscape:connector-curvature="0" />
    </g>
    <path
       d="m 660,493 -0.5,2 -0.3,1 -0.2,1 6,0 0,0.5 1,0.5 1,0.5 -3,0.5 -3,0.5 3,0.3 3,0.2 0,5 -2,0.2 q -2,0.3 0,0.8 l 2,0.5 -1,0.5 q -1,0.5 -5,1 l -4,0.5 0,0.5 -2,0 q -2,0 -4.2,9 -2.3,9 -0.8,14.5 1.5,5.5 2,6.5 l 0.5,1 0.5,1.5 0.5,1.5 0.3,1.5 0.2,1.5 -0.5,-0.2 -0.5,-0.3 -0.2,-0.3 -0.3,-0.2 -0.5,1.5 -0.5,1.5 -0.5,0 -0.2,-1.5 -0.3,-1.5 -0.5,-2.5 Q 649.5,540 648.2,534 647,528 638,527.8 l -9,-0.3 0,0.5 -0.2,0.5 -0.3,0.5 -1,0 0,-2 0.5,-1 q 0.5,-1 1.5,-4 1,-3 0,-16 -1,-13 -5.5,-25 -4.5,-12 -8.8,-17.2 Q 611,458.5 599,456 l -12,-2.5 -1.5,-0.5 -1.5,-0.5 0,-0.5 2.5,-0.2 2.5,-0.3 0.2,-0.3 0.3,-0.2 0.3,-0.2 0.2,-0.3 0.2,-0.3 0.3,-0.2 0.3,-0.2 0.2,-0.3 8.5,-6 q 8.5,-6 13,-7 4.5,-1 14.5,0 10,1 15.8,4.3 5.7,3.2 8.2,6.7 2.5,3.5 5.5,14.5 3,11 3.5,20 0.5,9 0,11 z"
       id="path76"
       inkscape:connector-curvature="0"
       style="fill:#323232;stroke:#323232" />
    <g
       id="g78"
       style="fill:#656565;stroke:#656565">
      <path
         d="m 1054,592 0.5,3 0.5,0 0.2,3 0.3,3 0.3,1.5 0.2,1.5 -85,0 0.2,-1 0.3,-1 0.5,-1 0.5,-1 0.5,-1.5 q 0.5,-1.5 3.8,-11.5 l 3.2,-10 0,-1 31.5,0.2 q 31.5,0.3 35.5,0.6 4,0.2 5.2,6.2 1.3,6 1.8,9 z"
         id="path80"
         inkscape:connector-curvature="0" />
      <path
         d="m 551.8,560.5 1.2,-2.5 1,1.8 q 1,1.7 26.5,2.2 25.5,0.5 30,0.8 l 4.5,0.2 0.5,0 0.5,3.5 0.5,3.5 1,5 q 1,5 1.5,7.5 l 0.5,2.5 0,2 -0.3,0.2 -0.2,0.3 -3.5,0 q -3.5,0 -37,-0.3 L 545,587 l 0.2,-1 0.3,-1 0.5,-1 0.5,-1 0.5,-2 q 0.5,-2 2,-6.5 l 1.5,-4.5 0.5,-1 0.5,-1 0.5,-1.5 0.5,-1.5 0,-2 -0.3,0.2 -0.2,0.3 -0.2,0.3 -0.3,0.2 -0.3,0.2 -0.2,0.3 -0.5,0.3 -0.5,0.2 0.2,-1 q 0.3,-1 1.6,-3.5 z"
         id="path82"
         inkscape:connector-curvature="0" />
      <path
         d="m 840.8,566 0.2,-4 1,0.2 q 1,0.3 1.5,0.6 l 0.5,0.2 30.2,1.5 q 30.3,1.5 30.6,2.5 l 0.2,1 1.2,6.5 q 1.3,6.5 1.8,9.5 l 0.5,3 0.3,1.5 0.2,1.5 -28,-0.2 q -28,-0.3 -37.5,-0.8 l -9.5,-0.5 0.2,-0.3 0.3,-0.2 0.5,-1.5 0.5,-1.5 0.5,-1.5 q 0.5,-1.5 2.5,-7.5 2,-6 2.3,-10 z"
         id="path84"
         inkscape:connector-curvature="0" />
      <path
         d="m 380,472.2 0,-0.2 7,0 -0.2,1 -0.3,1 -0.3,0.2 -0.2,0.3 -0.2,0.3 -0.3,0.2 -3,5.5 q -3,5.5 -4.3,3.7 -1.2,-1.7 -2,1.6 -0.7,3.2 -0.2,27.7 0.5,24.5 0.8,30.5 l 0.2,6 -1,-0.2 -1,-0.3 -1,-0.5 -1,-0.5 -1.5,-0.5 q -1.5,-0.5 -8,-2.8 l -6.5,-2.2 -4,0 -0.2,-1 -0.3,-1 -0.5,-1 -0.5,-1 -0.5,-1.5 -0.5,-1.5 -0.5,-1.5 -0.5,-1.5 -0.5,-1.5 -0.5,-1.5 -0.5,0 -0.2,-2 -0.3,-2 0,-6 q 0,-6 5,-17.5 5,-11.5 5.7,-20 0.8,-8.5 11.3,-9.3 l 10.5,-0.7 0,-0.3 z"
         id="path86"
         inkscape:connector-curvature="0" />
    </g>
    <path
       d="m 349,252 0.5,-1 0.3,3.5 0.2,3.5 0.8,6.5 q 0.7,6.5 1.2,7 0.5,0.5 0.8,1.5 l 0.2,1 -1,0 q -1,0 -1.2,-1 l -0.3,-1 -0.5,-1 -0.5,-1 1.5,18 q 1.5,18 10.5,63 9,45 9.5,46.5 l 0.5,1.5 0.3,2.5 0.2,2.5 0.5,0 0.3,0.5 0.2,0.5 -0.2,1 -0.3,1 -0.3,-0.2 -0.2,-0.3 0,-0.5 -0.5,-0.2 -0.5,-0.3 0,-0.5 -0.2,-1 -0.3,-1 -0.5,-1 -0.5,-1 -0.5,-1 -0.5,-1 -0.5,-1 q -0.5,-1 -6,-13.5 -5.5,-12.5 -13.5,-33 -8,-20.5 -5.3,-22.5 2.8,-2 3.6,-4.5 0.7,-2.5 -1,-4.3 -1.8,-1.7 -8.8,-6.2 -7,-4.5 -11.5,-5.8 l -4.5,-1.2 0.2,-1 0.3,-1 0.3,-0.2 0.2,-0.3 0.2,-0.3 q 0.3,-0.2 9.8,-17.7 9.5,-17.5 10.2,-20.5 l 0.8,-3 0,-0.2 q 0,-0.3 0.5,-0.6 l 0.5,-0.2 0,-0.2 q 0,-0.3 0.8,-1.6 l 0.7,-1.2 0.5,-1.5 q 0.5,-1.5 1,-2 l 0.5,-0.5 0.5,-1 0.5,-1 0.5,-1 z"
       id="path88"
       inkscape:connector-curvature="0"
       style="fill:#b6b6b6;stroke:#b6b6b6" />
    <path
       d="m 389.5,269.2 0.5,-0.2 0.2,2 0.3,2 0.3,-2 q 0.2,-2 1.2,-2 l 1,0 -2.8,39 q -2.7,39 -6.7,67.5 -4,28.5 -6,36.5 -2,8 -2,11.5 0,3.5 -0.3,14 l -0.2,10.5 -0.5,0 0,-15 q 0,-15 -1,-18.5 -1,-3.5 -1.7,-6.5 l -0.8,-3 0.2,0 q 0.3,0 0.6,0.5 l 0.2,0.5 0,0.5 0.2,0.3 0.3,0.2 0.3,-1 0.2,-1 -0.2,-0.5 -0.3,-0.5 -0.5,0 -0.2,-2.5 -0.3,-2.5 -0.5,-1.5 q -0.5,-1.5 -9.5,-46.5 -9,-45 -10.5,-63 l -1.5,-18 0.5,1 0.5,1 0.3,0.2 0.2,0.3 0.5,0.3 0.5,0.2 0,0.5 0.5,0.3 0.5,0.2 0.5,0 2.7,2.8 q 2.8,2.7 12.3,2.7 9.5,0 14.3,-3.7 4.7,-3.8 5.4,-5 0.8,-1.3 1.3,-1.6 z"
       id="path90"
       inkscape:connector-curvature="0"
       style="fill:#2b2b2b;stroke:#2b2b2b" />
    <path
       d="m 805,543.2 0,-0.2 17.5,7.5 q 17.5,7.5 17.7,8.5 0.3,1 0.6,2 l 0.2,1 0,0.2 q 0,0.3 0.5,0.6 l 0.5,0.2 -2.8,9.5 q -2.7,9.5 -3.2,11 l -0.5,1.5 -0.5,1.5 -0.5,1.5 -0.3,0.2 -0.2,0.3 9.5,0.5 q 9.5,0.5 37.5,0.8 l 28,0.2 -0.2,-1.5 -0.3,-1.5 -0.5,-3 q -0.5,-3 -1.8,-9.5 l -1.2,-6.5 0.5,0 0.3,-0.2 0.2,-0.3 0.5,-0.3 0.5,-0.2 3.5,11.5 q 3.5,11.5 9,12.3 5.5,0.7 21.5,7.7 16,7 19.8,5.3 3.7,-1.8 10.7,-13.8 7,-12 7.3,-12.5 l 0.2,-0.5 1,0 -3.2,10 q -3.3,10 -3.8,11.5 l -0.5,1.5 -0.5,1 -0.5,1 -0.3,1 -0.2,1 85,0 -0.2,-1.5 -0.3,-1.5 -0.3,-3 -0.2,-3 0.5,0 0,-1 -0.3,-1 -0.2,-1 1,0.2 1,0.3 0.5,0.3 0.5,0.2 2,5.2 q 2,5.3 9,6.8 7,1.5 27,10.2 20,8.8 38.8,52.3 18.7,43.5 19.2,45 l 0.5,1.5 0.5,1 0.5,1 0.3,2 0.2,2 -255,0 0,-0.5 -1.5,-0.5 -1.5,-0.5 23.5,0 q 23.5,0 126.5,-0.5 l 103,-0.5 -0.2,-0.3 -0.3,-0.2 -0.3,-0.2 -0.2,-0.3 -0.2,-0.3 -0.3,-0.2 -0.5,-1 -0.5,-1 -0.3,-0.2 -0.2,-0.3 -0.2,-0.3 -0.3,-0.2 -0.3,-0.2 q -0.2,-0.3 -1,-1.6 -0.7,-1.2 -15.7,-39.7 -15,-38.5 -24.3,-44.7 -9.2,-6.3 -25.2,-11.8 -16,-5.5 -57,-6 -41,-0.5 -58.5,2.5 -17.5,3 -27.5,8 -10,5 -11.2,7.7 -1.3,2.8 -10.8,29.3 l -9.5,26.5 -0.5,1 -0.5,1 -0.5,1.5 -0.5,1.5 -0.3,0.2 -0.2,0.3 -1,0.3 -1,0.2 0,-0.5 0.2,-0.3 0.3,-0.2 0.5,-1 0.5,-1 0.5,-2 0.5,-2 0.5,-1.5 q 0.5,-1.5 1,-3 l 0.5,-1.5 0.3,-1 0.2,-1 0.5,0 0.5,-1 q 0.5,-1 8.2,-25 7.8,-24 19.8,-30.2 l 12,-6.3 0.2,-0.3 0.3,-0.2 0.3,-0.2 0.2,-0.3 1,-0.5 1,-0.5 0.2,-0.3 0.3,-0.2 0.3,-0.2 0.2,-0.3 -1,-0.5 -1,-0.5 -0.2,-0.3 -0.3,-0.2 -0.3,-0.2 -0.2,-0.3 -1,-0.5 -1,-0.5 -1,-0.5 q -1,-0.5 -2,-1 -1,-0.5 -12,-4.5 -11,-4 -47.5,-5 -36.5,-1 -54,1.5 -17.5,2.5 -24.5,6.5 l -7,4 -1,0.5 -1,0.5 -0.2,0.3 -0.3,0.2 -0.3,0.2 -0.2,0.3 -0.2,0.3 -0.3,0.2 -0.5,1 -0.5,1 -0.3,0.2 -0.2,0.3 0.2,0.3 0.3,0.2 0.3,0.2 0.2,0.3 1,0.5 1,0.5 1,0.5 1,0.5 10.8,5.3 q 10.7,5.2 21,29 10.2,23.7 10.7,24 l 0.5,0.2 0.2,1 0.3,1 8.5,19 q 8.5,19 9,20.5 l 0.5,1.5 0.3,2 0.2,2 -267,0 0.2,-1.5 0.3,-1.5 0.5,-1 0.5,-1 0.5,-1 q 0.5,-1 8,-20 l 7.5,-19 0.3,-1 0.2,-1 0.5,-0.2 0.5,-0.3 0.2,-0.3 0.3,-0.2 0.5,-1.5 q 0.5,-1.5 8,-24 7.5,-22.5 21.2,-30.3 l 13.8,-7.7 1,-0.5 1,-0.5 0.2,-0.3 0.3,-0.2 0.3,-0.2 0.2,-0.3 0.2,-0.3 0.3,-0.2 0,-1 -0.3,-0.2 -0.2,-0.3 -1,-0.5 -1,-0.5 -1,-0.5 -1,-0.5 -0.2,-0.3 -0.3,-0.2 -0.3,-0.2 -0.2,-0.3 -1,-0.5 q -1,-0.5 -13,-4.5 -12,-4 -49,-4.5 -37,-0.5 -53,2 l -16,2.5 -0.5,0.3 -0.5,0.2 -0.2,-0.5 -0.3,-0.5 -0.5,0 0.2,-0.5 0.3,-0.5 0.3,-0.2 0.2,-0.3 1,-0.5 1,-0.5 1,-0.5 1,-0.5 1,-0.5 1,-0.5 0.2,-0.3 q 0.3,-0.2 5,-2.4 4.8,-2.3 9.6,-10.6 l 4.7,-8.2 0.5,-1 0.5,-1 0.5,-1 0.5,-1 0.3,-0.2 0.2,-0.3 0,-0.5 0.5,-0.2 0.5,-0.3 0.2,-0.3 0.3,-0.2 0.3,-0.2 0.2,-0.3 0.2,-0.3 0.3,-0.2 0,2 -0.5,1.5 -0.5,1.5 -0.5,1 -0.5,1 -1.5,4.5 q -1.5,4.5 -2,6.5 l -0.5,2 -0.5,1 -0.5,1 -0.3,1 -0.2,1 33.5,0.2 q 33.5,0.3 37,0.3 l 3.5,0 0.2,-0.3 0.3,-0.2 0,-2 -0.5,-2.5 q -0.5,-2.5 -1.5,-7.5 l -1,-5 -0.5,-3.5 -0.5,-3.5 -0.5,0 0,-0.5 1,-0.3 1,-0.2 0.2,1 0.3,1 0.5,0 0.2,1 0.3,1 0.5,1.5 0.5,1.5 3.3,8.8 q 3.2,8.7 11.2,10.7 8,2 20,7.5 12,5.5 13.8,5.2 1.7,-0.2 5.7,-7.7 4,-7.5 4.5,-8.5 l 0.5,-1 0.5,-1 0.5,-1 0.5,-1 0.5,-1 0.3,-0.2 0.2,-0.3 0.2,-0.3 0.3,-0.2 0.3,-0.2 0.2,-0.3 0.2,-0.3 0.3,-0.2 0.3,-0.2 0.2,-0.3 0.2,-0.3 0.3,-0.2 0.3,-0.2 0.2,-0.3 0.5,-0.3 0.5,-0.2 -0.2,1 -0.3,1 -0.5,1 -0.5,1 -0.5,1.5 -0.5,1.5 -2,6 q -2,6 -2.5,8 l -0.5,2 -0.5,1 -0.5,1 -0.3,1.5 -0.2,1.5 84,0 -0.2,-2 q -0.3,-2 -3,-13.5 L 754,577 l 0,-0.5 0.2,-0.3 0.3,-0.2 0.5,-2 0.5,-2 0.3,-2 0.2,-2 2,0 -0.2,1 -0.3,1 -0.5,2 -0.5,2 -0.3,0.2 -0.2,0.3 0.2,0.3 0.3,0.2 0.3,0.2 0.2,0.3 5,14 q 5,14 12,15.5 7,1.5 12,3.5 5,2 5.5,0.3 0.5,-1.8 18.5,-10.8 18,-9 23.8,-19.5 5.7,-10.5 5.2,-13 -0.5,-2.5 -10.8,-8.3 -10.2,-5.7 -14.7,-7.2 -4.5,-1.5 -6,-2 l -1.5,-0.5 -1.5,-0.3 -1.5,-0.2 0,-0.5 4,0 0.2,0.3 0.3,0.2 0.3,-1 0.2,-1 -1,-0.2 -1,-0.3 -0.2,-0.3 -0.3,-0.2 -0.3,-0.2 -0.2,-0.3 0,-0.3 z m 46.2,169.6 0.3,0.2 0.3,0.2 0.2,0.3 0.2,0.3 0.3,0.2 0.5,1 0.5,1 0.3,0.2 0.2,0.3 0.2,0.3 0.3,0.2 0.3,0.2 0.2,0.3 -103.5,0.3 Q 648,718 647.8,717 q -0.3,-1 -0.6,0 -0.2,1 -25.2,0.8 l -25,-0.3 0.2,-0.3 0.3,-0.2 0.5,-1.5 0.5,-1.5 16,-42 q 16,-42 17.3,-44.8 1.2,-2.7 11.2,-7.7 10,-5 23,-7.5 13,-2.5 52.5,-2.5 39.5,0 50,1.5 10.5,1.5 23,6.5 12.5,5 20.5,10.3 8,5.2 18.8,34.2 10.7,29 15.4,39.8 4.8,10.7 5,11 z"
       id="path92"
       inkscape:connector-curvature="0"
       style="fill:#030303;stroke:#030303" />
    <g
       id="g94"
       style="fill:#656565;stroke:#656565">
      <path
         d="m 968,536.5 0.5,1.5 0.5,1.5 0.5,1.5 0.3,1.5 0.2,1.5 -44,0 -4,-0.2 -4,-0.3 0.2,-0.3 0.3,-0.2 0.3,-0.2 0.2,-0.3 0.2,-0.3 0.3,-0.2 0.5,-1.5 q 0.5,-1.5 1.5,-5 l 1,-3.5 0.3,-1.5 0.2,-1.5 -2,0 -0.2,1 -0.3,1 -0.3,0.2 q -0.2,0.3 -0.4,0.6 l -0.3,0.2 -0.3,1.5 -0.2,1.5 -2,0 0.2,-1 0.3,-1 0.5,-1 0.5,-1 0.5,-1.5 0.5,-1.5 0.5,-1.5 q 0.5,-1.5 0.8,-8.5 l 0.2,-7 0.8,0 q 0.7,0 3,6.5 2.2,6.5 21,6.5 18.7,0 20.2,5.5 1.5,5.5 2,7 z"
         id="path96"
         inkscape:connector-curvature="0" />
      <path
         d="m 483,524 0,-3 17,0.5 q 17,0.5 17.2,2 0.3,1.5 0.8,4 l 0.5,2.5 0.3,1.5 0.2,1.5 0.2,1 0.3,1 0.3,4 0.2,4 -41,0 0.2,-1.5 0.3,-1.5 0.5,-1 q 0.5,-1 1.8,-6.5 l 1.2,-5.5 0,-3 z"
         id="path98"
         inkscape:connector-curvature="0" />
    </g>
    <path
       d="m 655,509 13,0 1.2,9.5 q 1.3,9.5 4.3,19.5 3,10 3.5,11 l 0.5,1 0.5,1 0.5,1 0.5,1.5 0.5,1.5 0.3,0.2 0.2,0.3 -2,0 -1,-0.5 -1,-0.5 -1,-0.5 -1,-0.5 -1.5,-0.5 q -1.5,-0.5 -6.5,-2.5 l -5,-2 -2,-0.3 -2,-0.2 -1,-0.2 -1,-0.3 -0.2,-0.3 -0.3,-0.2 -0.3,-0.2 -0.2,-0.3 0,-0.5 -0.2,-1.5 -0.3,-1.5 -0.5,-1.5 -0.5,-1.5 -0.5,-1 q -0.5,-1 -2,-6.5 -1.5,-5.5 0.8,-14.5 2.2,-9 4.2,-9 z"
       id="path100"
       inkscape:connector-curvature="0"
       style="fill:#fefefe;stroke:#fefefe" />
    <path
       d="m 315.2,527.5 2.8,-6.5 13.8,1 q 13.7,1 14.2,3 l 0.5,2 0.3,1.5 0.2,1.5 0.2,2 0.3,2 0.5,3 q 0.5,3 0.8,4.5 l 0.2,1.5 -19,-0.2 -19,-0.3 -1,-0.5 -1,-0.5 0.2,-0.3 0.3,-0.2 0.5,-1 0.5,-1 0.5,-1.5 0.5,-1.5 0.5,-1 q 0.5,-1 3.2,-7.5 z"
       id="path102"
       inkscape:connector-curvature="0"
       style="fill:#656565;stroke:#656565" />
    <path
       d="m 307.2,552.5 0.8,0.5 3.8,12.5 q 3.7,12.5 10.4,14.3 6.8,1.7 24.8,9.4 18,7.8 19.8,12.8 1.7,5 2,5.2 l 0.2,0.3 2,0 1,-0.5 1,-0.5 2,-0.5 2,-0.5 0.2,-0.3 0.3,-0.2 0.5,-1 q 0.5,-1 7,-12.5 6.5,-11.5 7.2,-11.5 l 0.8,0 -2.8,9 q -2.7,9 -3.2,10.5 l -0.5,1.5 -0.5,1.5 -0.5,1.5 -0.3,1 -0.2,1 84,0 -0.2,-2.5 q -0.3,-2.5 -2,-13 L 465,580 l -0.2,-0.5 q -0.3,-0.5 -0.6,-0.5 l -0.2,0 0.5,-0.8 q 0.5,-0.7 1.7,0.6 1.3,1.2 5.6,14.2 4.2,13 10.2,13.8 6,0.7 12.5,3 6.5,2.2 8.5,-2 2,-4.3 5,-5.8 3,-1.5 4,-2 l 1,-0.5 1,-0.5 1,-0.5 1,-0.5 1,-0.5 1,-0.5 1,-0.5 1,-0.3 1,-0.2 0.5,0 0.3,0.5 0.2,0.5 -0.5,0 -0.3,0.2 -0.2,0.3 -1,0.5 -1,0.5 -0.2,0.3 -0.3,0.2 -0.3,0.2 -0.2,0.3 -1,0.5 -1,0.5 -0.2,0.3 -0.3,0.2 -0.3,0.2 -0.2,0.3 -1,0.5 q -1,0.5 -4.5,2.2 l -3.5,1.8 -0.2,1 -0.3,1 -0.5,2 -0.5,2 -0.3,1.5 -0.2,1.5 1,0.2 1,0.3 11.8,5.7 q 11.7,5.8 21.4,28.6 9.8,22.7 10.3,23 l 0.5,0.2 0,0.5 0.2,0.3 0.3,0.2 0.5,1 0.5,1 8.5,19.5 q 8.5,19.5 9,20.5 l 0.5,1 0.3,2.5 0.2,2.5 -86,0.2 q -86,0.3 -132.5,0.3 l -46.5,0 -0.2,-0.3 -0.3,-0.2 0,-2 0.5,-1.5 0.5,-1.5 0.5,-1 q 0.5,-1 7.5,-20 l 7,-19 0.3,-0.2 0.2,-0.3 0,-0.5 0.2,0 q 0.3,0 8.8,-25 8.5,-25 20.5,-31.5 l 12,-6.5 0.3,-0.2 0.2,-0.3 1,-0.5 1,-0.5 0.2,-0.3 0.3,-0.2 0.3,-0.2 0.2,-0.3 -0.2,-0.3 -0.3,-0.2 -0.5,-2 -0.5,-2 -0.3,-0.2 -0.2,-0.3 -0.2,-0.3 -0.3,-0.2 -0.3,-0.2 -0.2,-0.3 -1,-0.5 q -1,-0.5 -7.5,-4.5 -6.5,-4 -21,-9.5 -14.5,-5.5 -53.5,-6 -39,-0.5 -53.5,2 -14.5,2.5 -22,6.5 l -7.5,4 -1,0.5 -1,0.5 -1,0.3 -1,0.2 0,2 -0.5,-0.2 -0.5,-0.3 -0.2,-0.3 -0.3,-0.2 -0.5,0 0.2,-0.5 0.3,-0.5 0.3,-0.2 0.2,-0.3 0.2,-0.3 0.3,-0.2 0.3,-0.2 0.2,-0.3 1,-0.5 1,-0.5 1,-0.5 1,-0.5 1,-0.5 q 1,-0.5 2.2,-1.2 1.3,-0.8 14,-7.6 12.8,-6.7 17.6,-15.4 l 4.7,-8.8 0.5,-1 0.5,-1 0.3,-0.2 0.2,-0.3 0.2,-0.3 0.3,-0.2 0.3,-0.2 0.2,-0.3 0.2,-0.3 0.3,-0.2 0.5,-1 0.5,-1 1,0 0,2 -0.5,1 -0.5,1 -0.5,1.5 -0.5,1.5 -1.5,5 q -1.5,5 -2,6.5 l -0.5,1.5 -0.5,1 -0.5,1 -0.3,1 -0.2,1 38,-0.2 38,-0.3 -0.2,-0.3 -0.3,-0.2 -0.5,-2.5 q -0.5,-2.5 -1.5,-13 -1,-10.5 -0.3,-10 z M 560,714 l 0.5,1 0.3,0.2 0.2,0.3 0.2,0.3 0.3,0.2 0.5,1 0.5,1 0.3,0.2 0.2,0.3 0.2,0.3 0.3,0.2 0.3,0.2 0.2,0.3 -207,0 0.2,-0.3 0.3,-0.2 0.5,-2.5 q 0.5,-2.5 1,-13.5 l 0.5,-11 -0.5,-1.5 -0.5,-1.5 -1,10.5 q -1,10.5 -1.3,15.5 l -0.2,5 -49,0 0.2,-1 0.3,-1 0.5,-1.5 0.5,-1.5 15.5,-41 q 15.5,-41 16.2,-44 0.8,-3 10.8,-8.2 10,-5.3 30,-8.3 20,-3 60,-2 40,1 53,5.5 13,4.5 24.2,11.8 11.3,7.2 22.8,37.7 11.5,30.5 15,38.5 3.5,8 4,9 z"
       id="path104"
       inkscape:connector-curvature="0"
       style="fill:#030303;stroke:#030303" />
    <path
       d="m 519.2,515.5 0.8,-6.5 16.5,0 q 1.5,0 5.3,14 3.7,14 4.7,16 1,2 1.5,3.5 l 0.5,1.5 0.5,1 0.5,1 0.5,1 0.5,1 0.3,1.5 0.2,1.5 -1,-0.2 -1,-0.3 -1,-0.5 -1,-0.5 -1,-0.5 -1,-0.5 -1.5,-0.5 q -1.5,-0.5 -6,-2.5 l -4.5,-2 -3.5,-0.3 -3.5,-0.2 -0.5,-0.2 q -0.5,-0.3 -1.3,-2 l -0.7,-1.8 -0.5,-1 -0.5,-1 -0.5,-1.5 -0.5,-1.5 -0.3,-1 -0.2,-1 -0.2,-0.5 -0.3,-0.5 -0.5,-2 -0.5,-2 -0.5,-2.5 q -0.5,-2.5 0.2,-9 z"
       id="path106"
       inkscape:connector-curvature="0"
       style="fill:#fefefe;stroke:#fefefe" />
    <path
       d="m 629,527.8 0,-0.3 9,0.3 q 9,0.2 10.2,6.2 1.3,6 1.8,8.5 l 0.5,2.5 0.3,1.5 0.2,1.5 0,0.5 -7,0 q -7,0 -15,-0.3 l -8,-0.2 0.2,-2 0.3,-2 0.5,-1 0.5,-1 0.5,-1.5 q 0.5,-1.5 2.8,-6.5 l 2.2,-5 0.5,0 0.3,-0.5 0.2,-0.5 0,-0.2 z"
       id="path108"
       inkscape:connector-curvature="0"
       style="fill:#656565;stroke:#656565" />
    <path
       d="m 390,254.5 0.5,5.5 0.3,0.5 0.2,0.5 -0.2,2 q -0.3,2 -0.6,4 l -0.2,2 -0.5,0.2 q -0.5,0.3 -1.3,1.6 -0.7,1.2 -5.4,5 -4.8,3.7 -14.3,3.7 -9.5,0 -12.3,-2.7 l -2.7,-2.8 -0.5,0 -0.2,-0.5 q -0.3,-0.5 -0.6,-0.5 l -0.2,0 -0.2,-1 q -0.3,-1 -1,-7.5 l -0.8,-6.5 0.5,0 0.3,-1.5 0.2,-1.5 1,0.2 1,0.3 0.2,0.3 0.3,0.2 0.3,0.2 0.2,0.3 0.2,0.3 0.3,0.2 0,-3 -0.3,-0.2 -0.2,-0.3 -0.2,-0.3 -0.3,-0.2 -0.3,-0.2 -0.2,-0.3 -0.2,-0.3 -0.3,-0.2 -0.3,-0.2 -0.2,-0.3 -0.2,-0.3 q -0.3,-0.2 -2.6,-2.4 -2.2,-2.3 -7.4,-13.6 -5.3,-11.2 -5.8,-9.7 -0.5,1.5 -3,-2 -2.5,-3.5 -4.2,-10.3 -1.8,-6.7 -1.8,-8.4 0,-1.8 -1,-2 -1,-0.3 -5.2,-8 -4.3,-7.8 -5.3,-14.8 -1,-7 1,-10.5 2,-3.5 0.3,-5.3 -1.8,-1.7 -1.3,-2.2 l 0.5,-0.5 0.2,-0.3 0.3,-0.2 0.3,-0.2 0.2,-0.3 5,-0.5 q 5,-0.5 10.5,-4 5.5,-3.5 12.5,-6.5 7,-3 18,-3 11,0 18.5,3 7.5,3 8,4.5 0.5,1.5 5.3,6.2 4.7,4.8 5.7,10.8 1,6 -1.5,15.5 -2.5,9.5 -3.5,11.5 -1,2 -0.3,4.2 0.8,2.3 0.6,14.6 -0.3,12.2 -3.8,21.2 -3.5,9 -3,10 0.5,1 1,6.5 z"
       id="path110"
       inkscape:connector-curvature="0"
       style="fill:#fdfdfd;stroke:#fdfdfd" />
    <path
       d="m 765.8,122 0.2,0 0.2,129.5 q 0.3,129.5 1.6,153.7 1.2,24.3 8.7,25.8 7.5,1.5 8,1.8 l 0.5,0.2 0.2,0 q 0.3,0 0.6,0.5 l 0.2,0.5 1,0 -0.2,1 q -0.3,1 -1.6,0.2 -1.2,-0.7 -14.2,-1.7 -13,-1 -13.8,-0.3 -0.7,0.8 -2,-0.2 l -1.2,-1 0.2,0 q 0.3,0 0.6,-0.5 l 0.2,-0.5 1,-0.2 q 1,-0.3 2,-0.6 1,-0.2 0.8,-64.2 -0.3,-64 1.7,-141 l 2,-77 -0.3,-0.2 -0.2,-0.3 -138,-0.3 -138,-0.2 2.8,84 q 2.7,84 2.7,90.5 l 0,6.5 -0.5,0 -0.5,0.2 -0.5,0.3 0,0.5 -2,0 -0.2,-14 q -0.3,-14 -1.8,-95.5 -1.5,-81.5 -2.2,-82.3 -0.8,-0.7 -2,-4 l -1.3,-3.2 -0.3,-3 -0.2,-3 0.5,0 0.5,2.5 0.5,2.5 0.5,2 0.5,2 0.3,1 0.2,1 140.5,-0.2 q 140.5,-0.3 141.3,-1.6 0.7,-1.2 0.7,-6.2 0,-5 0.3,-5 z"
       id="path112"
       inkscape:connector-curvature="0"
       style="fill:#282828;stroke:#282828" />
    <path
       d="m 492.2,422 -0.2,8 4.5,0.2 4.5,0.3 2,0.5 q 2,0.5 2.5,0.8 l 0.5,0.2 0,0.2 q 0,0.3 -2.5,0.3 l -2.5,0 -7,-0.5 q -7,-0.5 -8,-1 l -1,-0.5 0,-0.5 0.2,-6 q 0.3,-6 0.8,-33.5 l 0.5,-27.5 -0.3,0.2 -0.2,0.3 -0.2,0.3 -0.3,0.2 -0.3,0.2 -0.2,0.3 -0.2,0.3 q -0.3,0.2 -1,1.2 l -0.8,1 -1,0 0,-1.5 0.5,-0.3 0.5,-0.2 1,-1.2 q 1,-1.3 1.2,-1.6 l 0.3,-0.2 0.3,-0.2 0.2,-0.3 0.2,-0.3 0.3,-0.2 0.3,-0.2 0.2,-0.3 0.2,-0.3 0.3,-0.2 0.3,-0.2 0.2,-0.3 0.2,-0.3 0.3,-0.2 0.3,-0.2 0.2,-0.3 0.2,-0.3 0.3,-0.2 0.3,-0.2 0.2,-0.3 0.2,-0.3 0.3,-0.2 0.3,-0.2 0.2,-0.3 0.2,-0.3 0.3,-0.2 3.7,-3 q 3.8,-3 1,0.5 -2.7,3.5 -3.2,32 -0.5,28.5 -0.8,36.5 z"
       id="path114"
       inkscape:connector-curvature="0"
       style="fill:#030303;stroke:#030303" />
    <path
       d="m 467,376 -0.5,-13 0.3,0.5 0.2,0.5 0.2,5.5 q 0.3,5.5 0.8,10 l 0.5,4.5 0.3,0.2 0.2,0.3 0.2,0.3 0.3,0.2 0.5,-1 0.5,-1 0.3,-0.2 0.2,-0.3 0.2,-0.3 0.3,-0.2 0.5,-1 0.5,-1 0.3,-0.2 0.2,-0.3 0.2,-0.3 0.3,-0.2 0.5,-1 q 0.5,-1 3.2,-5 l 2.8,-4 0,-0.5 0.5,-0.3 0.5,-0.2 0,-0.2 q 0,-0.3 0.5,-0.6 l 0.5,-0.2 1,0 -0.8,1.5 q -0.7,1.5 -1,17.5 l -0.2,16 -0.5,0 -0.7,3 q -0.8,3 -1.8,3 -1,0 -0.8,-1 l 0.3,-1 0.5,-1 0.5,-1 0,-2 -0.3,0.2 -0.2,0.3 -0.2,0.3 -0.3,0.2 -0.3,0.2 -0.2,0.3 -2.5,0 q -2.5,0 -4.7,-7.3 Q 467.5,389 467,376 Z"
       id="path116"
       inkscape:connector-curvature="0"
       style="fill:#020202;stroke:#020202" />
  </g>
</svg>
